<svg width="512" height="512" viewBox="0 0 512 512" fill="none" xmlns="http://www.w3.org/2000/svg">
<g clip-path="url(#clip0)">
<path d="M115.936 36.004H95.936V56.004C95.936 89.474 109.636 119.744 131.736 141.503V141.513L235.935 174.053V171.003V156.003C235.935 89.733 182.205 36.004 115.936 36.004Z" fill="#5CBD9B"/>
<path d="M310.074 15.864C302.264 8.054 289.604 8.054 281.794 15.864C252.224 45.434 235.934 84.753 235.934 126.573V211.002L275.934 213.312V126.573C275.934 95.433 288.064 66.163 310.074 44.144C317.884 36.334 317.884 23.674 310.074 15.864Z" fill="#57555C"/>
<path d="M351.064 136.123C412.643 136.123 455.563 205.342 455.563 277.072C455.563 361.331 395.663 502 315.344 502C310.834 502 289.754 494.59 282.884 490.04C274.654 484.59 265.064 482.4 255.744 483.46C246.424 482.4 236.844 484.59 228.604 490.04C221.734 494.59 200.664 502 196.154 502C115.835 502 55.935 361.331 55.935 277.072C55.935 217.112 85.925 159.083 131.734 141.513C140.724 138.063 150.324 136.163 160.424 136.123C189.024 136.003 208.914 161.993 222.764 168.943C243.875 179.523 268.11 179.3 288.723 168.943C302.564 162.003 322.474 136.123 351.064 136.123Z" fill="#ED5151"/>
<path d="M356.184 186.002C361.704 186.002 366.184 181.522 366.184 176.002C366.184 170.482 361.704 166.002 356.184 166.002C350.664 166.002 346.184 170.482 346.184 176.002C346.184 181.522 350.664 186.002 356.184 186.002Z" fill="black"/>
<path d="M405.813 277.072C405.813 282.594 410.291 287.072 415.813 287.072C421.335 287.072 425.813 282.594 425.813 277.072C425.813 244.632 415.29 212.488 397.662 191.086C394.151 186.823 387.85 186.212 383.586 189.725C379.323 193.236 378.713 199.538 382.225 203.801C396.995 221.733 405.813 249.125 405.813 277.072Z" fill="black"/>
<path d="M68.132 188.601C53.98 214.498 46.186 245.918 46.186 277.071C46.186 321.759 62.365 380.19 87.404 425.933C117.784 481.434 156.494 511.998 196.405 511.998C203.747 511.998 226.929 503.308 234.372 498.379C245.061 491.311 254.479 493.696 257.125 493.394C264.261 492.581 271.538 494.353 277.614 498.376C285.061 503.308 308.25 511.998 315.595 511.998C355.506 511.998 394.216 481.433 424.596 425.933C449.635 380.19 465.814 321.758 465.814 277.071C465.814 239.599 454.526 202.015 434.843 173.956C413.206 143.109 383.542 126.122 351.315 126.122C320.341 126.122 299.073 151.088 286.185 159.037V126.572C286.185 98.112 297.27 71.348 317.395 51.214C329.12 39.491 329.123 20.518 317.396 8.79299C305.675 -2.93001 286.7 -2.93401 274.974 8.79199C251.678 32.087 236.142 61.069 229.641 92.604C207.366 52.898 164.862 26.003 116.186 26.003H96.186C96.126 26.003 96.068 26.011 96.008 26.012C90.462 26.108 86.182 30.676 86.186 36.008V56.003C86.186 86.389 96.512 115.114 115.506 138.258C96.668 148.872 80.463 166.035 68.132 188.601ZM246.185 126.573C246.185 87.425 261.432 50.619 289.117 22.934C293.022 19.029 299.344 19.025 303.255 22.935C307.154 26.836 307.172 33.153 303.252 37.074C279.35 60.989 266.186 92.773 266.186 126.573V165.951C259.566 167.04 252.82 167.061 246.186 166.014C246.185 154.112 246.185 138.488 246.185 126.573ZM226.185 156.003V159.276C207.561 148.149 185.064 114.843 134.803 130.008C117.252 110.764 107.251 86.325 106.273 60.234L149.114 103.075C153.021 106.98 159.35 106.979 163.257 103.075C167.162 99.17 167.162 92.838 163.257 88.932L120.418 46.093C179.117 48.326 226.185 96.766 226.185 156.003ZM135.566 150.85C135.567 150.85 135.567 150.849 135.568 150.849C143.65 147.747 152.111 146.158 160.717 146.123C160.77 146.123 160.821 146.123 160.873 146.123C185.278 146.123 203.053 170.115 218.534 177.884C242.101 189.694 269.675 189.833 293.456 177.882C308.918 170.13 326.81 146.123 351.313 146.123C376.834 146.123 400.684 160.087 418.467 185.441C435.845 210.215 445.812 243.614 445.812 277.072C445.812 318.652 430.597 373.314 407.05 416.332C391.611 444.539 359.252 491.82 315.84 491.999C311.541 491.45 293.89 485.17 288.654 481.702C278.982 475.298 267.422 472.372 255.992 473.408C244.562 472.379 233.013 475.299 223.331 481.702C218.095 485.17 200.45 491.45 196.155 491.999C152.742 491.82 120.385 444.537 104.945 416.332C81.398 373.314 66.183 318.652 66.183 277.072C66.186 219.353 95.365 166.269 135.566 150.85Z" fill="black"/>
</g>
<defs>
<clipPath id="clip0">
<rect width="511.999" height="511.999" fill="white"/>
</clipPath>
</defs>
</svg>
