<svg id="Capa_1" enable-background="new 0 0 512 512" height="512" viewBox="0 0 512 512" width="512" xmlns="http://www.w3.org/2000/svg"><g><g><path d="m159.203 212.954c3.438-9.893 7.706-19.5 12.779-28.664 17.759-32.083 45.642-58.723 79.661-72.888 34.878-14.523 71.921-12.667 107.57-2.148 34.048 10.047 63.044 33.145 83.252 62.016 21.807 31.155 33.632 68.899 34.35 106.864 1.695 89.576-48.971 178.147-121.534 211.746-15.047 6.967-33.726 10.841-49.738 13.477-4.901.807-13.48.83-19.9.703-5.54-.109-11.02-1.234-16.245-3.334-6.057-2.434-14.091-5.866-18.438-8.571-14.203-8.836-30.529-19.893-42.505-32.407-57.756-60.343-78.197-163.506-49.252-246.794z" fill="#fe9738"/></g><g><path d="m355.28 489.879c-15.051 6.972-33.723 10.842-49.741 13.475-4.897.808-13.475.828-19.898.708-1.506-.03-3.012-.13-4.498-.319 1.227-.1 2.344-.229 3.321-.389 16.019-2.633 34.69-6.503 49.741-13.475 72.562-33.603 123.231-122.174 121.535-211.742-.718-37.972-12.548-75.714-34.351-106.863-20.208-28.875-49.203-51.975-83.254-62.019-14.233-4.199-28.686-7.022-43.138-7.959 21.395-1.476 43.049 1.716 64.214 7.959 34.052 10.044 63.047 33.144 83.254 62.019 21.804 31.149 33.633 68.892 34.351 106.863 1.695 89.568-48.974 178.138-121.536 211.742z" fill="#fe860a"/></g><g><path d="m328.63 111.032c8.128-4.326 15.465-10.249 21.656-17.024 9.672-10.583 16.136-23.755 17.701-38.016.173-1.578-.602-3.112-1.976-3.907-12.249-7.087-26.477-9.713-40.551-8.307-11.443 1.142-23.302 4.421-32.88 11.033-15.255 10.53-27.634 26.226-31.557 44.701-.374 1.759-.671 3.534-.894 5.318-.037.295-.143 1.582-.242 2.818-.126 1.568.684 3.066 2.066 3.819 3.524 1.919 7.229 3.502 11.051 4.727 17.917 5.744 38.942 3.717 55.626-5.162z" fill="#00c27a"/></g><g><path d="m367.99 55.992c-1.566 14.263-8.029 27.429-17.704 38.011-6.194 6.782-13.525 12.707-21.654 17.026-16.687 8.877-37.712 10.912-55.626 5.167-3.82-1.227-7.53-2.813-11.051-4.728-1.386-.758-2.194-2.254-2.065-3.82.1-1.237.199-2.523.239-2.823.02-.14.03-.269.06-.409 17.525 5.097 37.762 2.923 53.92-5.685 8.129-4.319 15.46-10.243 21.654-17.016 9.047-9.894 15.29-22.063 17.335-35.259 4.478 1.376 8.807 3.252 12.917 5.625 1.367.799 2.145 2.335 1.975 3.911z" fill="#08b865"/></g><g><path d="m238.11 121.605c-2.592-17.745-6.071-65.763-2.83-95.191 1.459-13.25 14.573-21.926 27.305-17.977.182.057.365.113.547.169 10.195 3.133 16.424 13.396 14.574 23.9-3.265 18.536-7.503 62.82-7.804 86.935-.11 8.775-7.202 15.851-15.978 15.851-7.941-.001-14.666-5.829-15.814-13.687z" fill="#d77f4a"/></g><g><path d="m277.704 32.503c-3.262 18.542-7.501 62.817-7.8 86.935-.11 8.777-7.201 15.849-15.979 15.849-3.69 0-7.132-1.257-9.854-3.401 3.69-2.892 6.074-7.391 6.134-12.448.299-24.117 4.538-68.393 7.8-86.935 1.656-9.366-3.122-18.542-11.4-22.632 4.718-2.474 10.383-3.172 15.979-1.436.18.06.369.11.549.169 10.192 3.133 16.426 13.396 14.571 23.899z" fill="#c86d36"/></g><g><path d="m352.796 212.954c-3.438-9.893-7.706-19.5-12.779-28.664-17.759-32.083-45.642-58.723-79.661-72.888-34.878-14.523-71.921-12.667-107.57-2.148-34.048 10.047-63.044 33.145-83.252 62.016-21.807 31.155-33.632 68.899-34.35 106.864-1.694 89.575 48.972 178.146 121.535 211.745 15.047 6.967 33.726 10.841 49.738 13.477 4.901.807 13.48.83 19.9.703 5.54-.109 11.02-1.234 16.245-3.334 6.057-2.434 14.091-5.866 18.438-8.571 14.203-8.836 30.529-19.893 42.505-32.407 57.755-60.342 78.196-163.505 49.251-246.793z" fill="#fe9738"/></g><g><path d="m303.55 459.75c-11.979 12.512-28.306 23.569-42.507 32.402-4.349 2.708-12.386 6.135-18.443 8.571-5.222 2.097-10.707 3.223-16.24 3.339-6.426.126-14.997.097-19.9-.709-4.63-.767-9.474-1.621-14.396-2.64 4.465.243 9.707.233 13.978.146 5.543-.117 11.018-1.233 16.25-3.339 6.057-2.436 14.085-5.863 18.434-8.571 14.201-8.834 30.529-19.89 42.507-32.402 57.757-60.339 78.191-163.506 49.244-246.793-19.725-56.786-64.193-96.915-114.825-108.797 58.786 4.786 112.816 47.73 135.142 112 28.947 83.287 8.504 186.444-49.244 246.793z" fill="#fe860a"/></g><path d="m484.294 277.991c-.751-39.697-13.389-79.064-35.587-110.849-22.32-31.96-53.409-55.083-87.537-65.111-2.151-.632-4.343-1.194-6.547-1.731.395-.417.797-.821 1.186-1.247 11.137-12.185 17.92-26.794 19.614-42.245.497-4.524-1.726-8.919-5.665-11.2-13.284-7.685-28.856-10.894-45.041-9.276-14.177 1.415-26.76 5.676-36.387 12.321-2.061 1.423-4.044 2.911-5.95 4.455.912-7.735 1.843-14.481 2.693-19.306 2.505-14.212-5.983-28.12-19.77-32.358l-.502-.154c-8.181-2.538-16.983-1.3-24.146 3.395-7.197 4.717-11.866 12.338-12.81 20.908-2.132 19.355-1.419 47.043.107 69.133-12.42-2.67-32.375-1.245-33.371-1.163-14.72 1.213-29.635 4.319-43.751 8.467-34.129 10.029-65.217 33.152-87.537 65.112-22.197 31.784-34.836 71.151-35.587 110.849-.846 44.689 11.197 91.116 33.91 130.727 22.839 39.831 55.498 71.066 91.96 87.949 16.716 7.74 37.492 11.737 51.668 14.07 12.915 2.125 27.878 1.861 40.149-3.071 4.038-1.623 7.578-3.13 10.607-4.515 3.029 1.385 6.569 2.892 10.608 4.515 11.854 4.763 27.684 5.123 40.15 3.071 13.684-2.253 33.782-6.097 50.246-13.426 3.775-1.68 5.472-6.102 3.792-9.876-1.68-3.775-6.106-5.473-9.876-3.792-14.891 6.628-33.723 10.213-46.592 12.331-3.401.559-9.983.774-18.538.604-4.584-.09-9.107-1.013-13.448-2.736 11.649-7.557 25.787-17.617 36.609-28.923 28.883-30.177 49.861-72.262 59.07-118.503 9.179-46.097 6.283-94.367-8.158-135.919-3.206-9.225-7.118-18.221-11.625-26.737-1.932-3.65-6.461-5.047-10.111-3.112-3.651 1.933-5.045 6.46-3.112 10.112 4.153 7.847 7.759 16.14 10.717 24.65 27.986 80.531 7.973 181.115-47.589 239.166-12.062 12.602-29.207 23.857-41.052 31.227-14.881 9.258-32.074 13.028-49.42 10.172-13.312-2.192-32.749-5.911-47.808-12.883-69.547-32.203-118.836-118.342-117.199-204.818.696-36.762 12.378-73.187 32.895-102.565 20.38-29.181 48.609-50.249 79.489-59.323 6.44-1.892 13.572-3.31 20.47-4.682 31.302-6.218 62.005-3.639 90.892 10.77 19.484 9.719 36.636 23.832 50.365 40.698 2.608 3.205 7.321 3.689 10.524 1.079 3.205-2.608 3.688-7.32 1.079-10.524-8.327-10.23-17.581-19.282-27.526-27.067 10.901-.871 21.676-3.905 31.294-9.023 2.863-1.524 5.644-3.247 8.351-5.128 5.612 1.134 11.259 2.351 16.456 3.879 30.878 9.072 59.108 30.141 79.488 59.322 20.517 29.379 32.199 65.804 32.894 102.565.69 36.411-7.513 73.537-23.721 107.368-15.994 33.386-38.709 61.408-65.69 81.036-3.341 2.43-4.079 7.109-1.649 10.45 2.432 3.342 7.111 4.079 10.451 1.648 59.543-43.316 97.056-122.13 95.568-200.786zm-236.683-178.922c-1.477-.435-2.961-.843-4.451-1.232-1.68-21.848-2.622-50.832-.444-70.604.453-4.116 2.691-7.773 6.14-10.034 2.25-1.475 4.839-2.233 7.46-2.233 1.356 0 2.722.204 4.053.616l.566.174c6.558 2.016 10.6 8.658 9.403 15.452-2.717 15.429-6.108 48.183-7.399 73.255-.959-.382-1.917-.764-2.886-1.142-4.084-1.593-8.236-3.014-12.442-4.252zm77.505 5.359c-14.173 7.542-32.117 9.51-47.45 5.332.421-9.878 1.251-21.502 2.269-32.896 4.597-5.934 10.298-11.345 16.892-15.896 7.551-5.211 17.708-8.581 29.375-9.746 12.219-1.22 23.942.931 34.049 6.23-1.739 11.442-7.064 22.292-15.488 31.51-5.831 6.381-12.625 11.73-19.647 15.466z"/></g></svg>