<svg id="Capa_1" enable-background="new 0 0 511.947 511.947" height="512" viewBox="0 0 511.947 511.947" width="512" xmlns="http://www.w3.org/2000/svg"><g id="XMLID_2478_"><path id="XMLID_1630_" d="m416.921 142.466 44.886-44.886c11.964-11.965 11.964-31.363 0-43.327-11.965-11.965-31.363-11.965-43.327 0l-44.886 44.886z" fill="#c68a65"/><path id="XMLID_1371_" d="m406.492 368.043-90.777 80.748c-58.869 52.365-142.073 67.421-215.559 39.006-22.774-8.806-47.702-10.407-71.416-4.588 5.819-23.713 4.218-48.642-4.588-71.416-28.415-73.486-13.358-156.691 39.006-215.559l80.748-90.777z" fill="#ddb9a3"/><path id="XMLID_1369_" d="m160.762 42.141c-29.637 38.043-21.175 93.378 18.745 120.434 32.781 22.217 63.941 47.845 92.981 76.885s54.668 60.2 76.885 92.981c27.055 39.92 82.39 48.382 120.434 18.745 33.383-26.006 41.953-72.764 20.282-109.111-26.315-44.136-58.466-85.76-96.461-123.755s-79.619-70.146-123.755-96.461c-36.346-21.671-83.105-13.101-109.111 20.282z" fill="#c68a65"/><g id="XMLID_802_"><path id="XMLID_887_" d="m498.678 236.953c-19.781-33.178-42.651-64.612-68.232-93.871l38.432-38.432c15.843-15.844 15.843-41.624 0-57.469-7.676-7.675-17.881-11.902-28.735-11.902s-21.06 4.228-28.734 11.902l-38.172 38.171c-30.49-27.143-63.407-51.314-98.242-72.083-40.649-24.237-93.149-14.466-122.122 22.726-14.622 18.771-21.541 42.576-19.413 66.158l-77.774 87.434c-26.915 30.258-44.953 67.314-52.164 107.164-7.211 39.849-3.302 80.877 11.302 118.649 8.108 20.968 9.562 43.592 4.203 65.425-.833 3.396.168 6.981 2.641 9.455s6.061 3.474 9.455 2.641c21.833-5.356 44.458-3.903 65.426 4.204 25.449 9.84 52.37 14.823 79.419 14.823 13.097 0 26.229-1.169 39.229-3.521 39.849-7.211 76.906-25.249 107.164-52.164l87.442-77.78c2.792.251 5.588.392 8.378.392 20.768 0 41.227-6.91 57.771-19.799 37.191-28.973 46.962-81.474 22.726-122.123zm-73.127-175.63c3.897-3.897 9.08-6.044 14.592-6.044 5.513 0 10.695 2.146 14.593 6.044 8.046 8.047 8.046 21.14 0 29.186l-37.702 37.701c-5.342-5.743-10.779-11.406-16.334-16.961-4.182-4.182-8.428-8.294-12.717-12.356zm38.111 281.974c-16.291 12.69-36.5 17.904-56.892 14.683-20.228-3.196-37.671-14.258-49.118-31.148-14.322-21.133-30.112-41.664-46.933-61.023-3.622-4.17-9.939-4.61-14.107-.99-4.169 3.622-4.612 9.938-.99 14.107 16.298 18.76 31.598 38.652 45.474 59.127 11.082 16.352 26.572 28.409 44.668 35.046l-76.695 68.221c-56.327 50.103-134.996 64.338-205.306 37.15-20.084-7.766-41.449-10.372-62.564-7.719 2.651-21.114.046-42.482-7.719-62.563-27.189-70.314-12.953-148.983 37.15-205.308l68.221-76.695c6.636 18.096 18.694 33.585 35.046 44.667 20.482 13.883 40.377 29.185 59.132 45.479 4.168 3.622 10.485 3.178 14.107-.99 3.622-4.169 3.179-10.485-.99-14.107-19.355-16.816-39.888-32.608-61.029-46.938-16.891-11.447-27.953-28.891-31.148-49.118-3.222-20.396 1.992-40.602 14.682-56.892 22.785-29.25 64.101-36.918 96.102-17.839 44.141 26.318 85.122 58.262 121.805 94.943 36.682 36.683 68.625 77.664 94.943 121.805 19.079 32.002 11.41 73.317-17.839 96.102z"/><path id="XMLID_889_" d="m369.614 186.206c5.522 0 10-4.477 10-10 0-5.522-4.478-10-10-10-10.896 0-19.761-8.864-19.761-19.76 0-5.522-4.477-10-10-10-5.522 0-10 4.478-10 10 0 21.924 17.837 39.76 39.761 39.76z"/><path id="XMLID_894_" d="m283.759 96.937c0-5.522-4.478-10-10-10-10.896 0-19.76-8.864-19.76-19.761 0-5.523-4.477-10-10-10s-10 4.478-10 10c0 21.924 17.836 39.761 39.76 39.761 5.523 0 10-4.478 10-10z"/><path id="XMLID_895_" d="m448.884 262.061c-10.895 0-19.76-8.864-19.76-19.76 0-5.523-4.478-10-10-10s-10 4.477-10 10c0 21.924 17.836 39.76 39.76 39.76 5.522 0 10-4.478 10-10 0-5.523-4.478-10-10-10z"/><path id="XMLID_896_" d="m374.88 243.441c-10.895 0-19.76-8.864-19.76-19.76 0-5.522-4.477-10-10-10-5.522 0-10 4.478-10 10 0 21.924 17.836 39.76 39.76 39.76 5.522 0 10-4.477 10-10s-4.478-10-10-10z"/><path id="XMLID_897_" d="m292.38 160.941c-10.896 0-19.761-8.864-19.761-19.76 0-5.522-4.478-10-10-10s-10 4.478-10 10c0 21.924 17.837 39.76 39.761 39.76 5.522 0 10-4.478 10-10 0-5.523-4.478-10-10-10z"/><path id="XMLID_898_" d="m115.644 242.793c-4.127-3.672-10.447-3.302-14.118.825-18.817 21.154-31.427 47.061-36.468 74.92-5.042 27.859-2.309 56.542 7.901 82.948 1.534 3.966 5.318 6.397 9.33 6.397 1.199 0 2.419-.218 3.604-.676 5.151-1.992 7.712-7.782 5.721-12.934-18.19-47.043-8.666-99.677 24.856-137.362 3.67-4.127 3.301-10.447-.826-14.118z"/><path id="XMLID_899_" d="m272.489 229.459c-2.631 0-5.21 1.07-7.07 2.93s-2.93 4.44-2.93 7.07 1.069 5.21 2.93 7.07c1.86 1.859 4.44 2.93 7.07 2.93s5.21-1.07 7.069-2.93c1.86-1.86 2.931-4.441 2.931-7.07 0-2.63-1.07-5.21-2.931-7.07-1.859-1.859-4.439-2.93-7.069-2.93z"/></g></g></svg>