<svg width="512" height="512" viewBox="0 0 512 512" fill="none" xmlns="http://www.w3.org/2000/svg">
<g clip-path="url(#clip0)">
<path d="M287.916 237.323C349.763 175.476 373.107 89.8208 357.946 10.0003H316.768C330.112 80.2615 309.564 155.661 255.124 210.102L287.916 237.323Z" fill="#D1A184"/>
<path d="M206.063 212.496C233.159 212.496 255.124 190.53 255.124 163.435C255.124 136.34 233.159 114.375 206.063 114.375C178.968 114.375 157.003 136.34 157.003 163.435C157.003 190.53 178.968 212.496 206.063 212.496Z" fill="#9D9AE8"/>
<path d="M135.292 217.482C162.388 217.482 184.353 195.517 184.353 168.421C184.353 141.326 162.388 119.361 135.292 119.361C108.197 119.361 86.2317 141.326 86.2317 168.421C86.2317 195.517 108.197 217.482 135.292 217.482Z" fill="#9D9AE8"/>
<path d="M204.674 286.864C231.77 286.864 253.735 264.899 253.735 237.803C253.735 210.708 231.77 188.743 204.674 188.743C177.579 188.743 155.614 210.708 155.614 237.803C155.614 264.899 177.579 286.864 204.674 286.864Z" fill="#9D9AE8"/>
<path d="M274.057 356.246C301.152 356.246 323.117 334.281 323.117 307.186C323.117 280.09 301.152 258.125 274.057 258.125C246.961 258.125 224.996 280.09 224.996 307.186C224.996 334.281 246.961 356.246 274.057 356.246Z" fill="#9D9AE8"/>
<path d="M343.439 425.628C370.534 425.628 392.499 403.663 392.499 376.568C392.499 349.472 370.534 327.507 343.439 327.507C316.343 327.507 294.378 349.472 294.378 376.568C294.378 403.663 316.343 425.628 343.439 425.628Z" fill="#9D9AE8"/>
<path d="M109.852 312.305C136.948 312.305 158.913 290.34 158.913 263.244C158.913 236.149 136.948 214.184 109.852 214.184C82.7571 214.184 60.7919 236.149 60.7919 263.244C60.7919 290.34 82.7571 312.305 109.852 312.305Z" fill="#9D9AE8"/>
<path d="M179.235 381.687C206.33 381.687 228.295 359.722 228.295 332.626C228.295 305.531 206.33 283.566 179.235 283.566C152.139 283.566 130.174 305.531 130.174 332.626C130.174 359.722 152.139 381.687 179.235 381.687Z" fill="#9D9AE8"/>
<path d="M248.617 451.069C275.712 451.069 297.677 429.104 297.677 402.009C297.677 374.913 275.712 352.948 248.617 352.948C221.521 352.948 199.556 374.913 199.556 402.009C199.556 429.104 221.521 451.069 248.617 451.069Z" fill="#9D9AE8"/>
<path d="M84.3956 407.144C111.491 407.144 133.456 385.179 133.456 358.083C133.456 330.988 111.491 309.023 84.3956 309.023C57.3003 309.023 35.3351 330.988 35.3351 358.083C35.3351 385.179 57.3003 407.144 84.3956 407.144Z" fill="#9D9AE8"/>
<path d="M153.778 476.525C180.873 476.525 202.838 454.56 202.838 427.464C202.838 400.369 180.873 378.404 153.778 378.404C126.682 378.404 104.717 400.369 104.717 427.464C104.717 454.56 126.682 476.525 153.778 476.525Z" fill="#9D9AE8"/>
<path d="M58.9908 501.93C86.0862 501.93 108.051 479.965 108.051 452.869C108.051 425.774 86.0862 403.809 58.9908 403.809C31.8955 403.809 9.93032 425.774 9.93032 452.869C9.93032 479.965 31.8955 501.93 58.9908 501.93Z" fill="#9D9AE8"/>
<path d="M418.603 162.446C418.603 162.446 425.493 156.809 428.625 131.126C318.645 99.5401 328.401 193.766 328.401 193.766C328.401 193.766 234.175 184.01 265.761 293.99C291.443 290.858 297.081 283.968 297.081 283.968C297.081 283.968 279.601 334.138 339.08 367.308C365.846 333.497 359.06 304.06 357.977 300.096C359.72 305.898 379.626 363.849 472.435 337.799C498.486 244.99 440.534 225.084 434.733 223.341C438.697 224.425 468.134 231.21 501.945 204.443C468.774 144.966 418.603 162.446 418.603 162.446V162.446Z" fill="#D5EA79"/>
<path d="M510.677 199.573C491.646 165.447 466.982 154.489 449.641 151.304C444.448 150.351 439.579 150.025 435.242 150.064C436.528 145.288 437.684 139.454 438.553 132.336C439.148 127.457 436.11 122.87 431.386 121.514C405.254 114.01 383.235 112.672 365.562 117.465C373.845 81.7046 374.645 44.3244 367.77 8.13325C366.874 3.41511 362.75 0 357.946 0H316.768C313.789 0 310.965 1.32804 309.066 3.62311C307.166 5.91718 306.388 8.93928 306.944 11.8664C309.394 24.7658 310.627 37.7282 310.702 50.6076C310.561 68.0241 296.354 82.1506 278.906 82.1506C265.979 82.1506 255.464 71.6342 255.464 58.7088C255.464 49.4715 262.98 41.9553 272.218 41.9553C277.74 41.9553 282.218 37.4772 282.218 31.955C282.218 26.4328 277.74 21.9547 272.218 21.9547C251.951 21.9547 235.463 38.4422 235.463 58.7088C235.463 82.6636 254.951 102.151 278.906 102.151C289.026 102.151 298.469 99.2231 306.456 94.1859C299.054 130.796 282.115 165.235 256.756 193.784C262.211 184.71 265.124 174.296 265.124 163.435C265.124 147.66 258.981 132.828 247.826 121.672C236.671 110.517 221.84 104.373 206.063 104.373C191.692 104.373 178.115 109.486 167.375 118.827C157.903 112.673 146.855 109.359 135.292 109.359C119.517 109.359 104.685 115.504 93.5289 126.658C82.3746 137.812 76.2304 152.644 76.2304 168.42C76.2304 182.879 81.4045 196.536 90.8548 207.305C82.3766 210.177 74.6033 214.967 68.0891 221.48C45.9534 243.617 45.1084 279.091 65.532 302.261C57.1948 305.074 49.3615 309.784 42.7303 316.416C20.6346 338.512 19.7546 373.896 40.0623 397.068C31.749 399.882 23.9407 404.587 17.3255 411.202C-5.70118 434.231 -5.70118 471.7 17.3255 494.726C28.8399 506.241 43.9644 511.998 59.0888 511.998C74.2133 511.998 89.3378 506.241 100.852 494.726C107.466 488.112 112.171 480.304 114.985 471.992C125.754 481.445 139.413 486.621 153.875 486.621C169.65 486.621 184.483 480.477 195.638 469.323C202.275 462.685 206.987 454.846 209.799 446.501C220.558 455.913 234.187 461.066 248.617 461.066C264.392 461.066 279.224 454.922 290.379 443.768C296.893 437.254 301.683 429.479 304.554 421.002C315.323 430.451 328.98 435.627 343.439 435.627C359.214 435.627 374.047 429.483 385.201 418.328C396.355 407.174 402.5 392.342 402.5 376.566C402.5 367.012 400.232 357.812 395.978 349.558C417.537 356.847 444.047 356.153 475.136 347.424C478.494 346.482 481.118 343.858 482.062 340.499C483.903 333.94 485.404 327.49 486.522 321.328C487.508 315.893 483.903 310.689 478.469 309.703C473.029 308.706 467.829 312.321 466.844 317.756C466.147 321.593 465.283 325.567 464.261 329.623C385.728 349.387 369.208 302.716 367.552 297.214C365.977 291.972 360.481 288.976 355.217 290.481C349.955 291.992 346.886 297.451 348.33 302.731C349.034 305.306 354.188 327.023 336.404 353.972C294.273 325.886 305.996 288.843 306.525 287.254C308.121 282.674 306.2 277.609 301.966 275.239C297.971 273 292.999 273.776 289.87 277.033C289.266 277.495 285.036 280.445 273.128 282.733C266.34 254.459 268.454 233.47 279.444 220.27C295.612 200.85 327.083 203.68 327.369 203.709C330.363 204.014 333.321 202.954 335.448 200.839C337.578 198.723 338.641 195.747 338.349 192.76C338.319 192.445 335.487 160.974 354.907 144.807C368.107 133.817 389.095 131.702 417.37 138.49C415.083 150.395 412.134 154.627 411.672 155.232C408.411 158.36 407.607 163.34 409.846 167.338C412.215 171.57 417.25 173.5 421.829 171.906C423.477 171.354 460.522 159.631 488.609 201.764C461.66 219.548 439.943 214.393 437.368 213.691C432.091 212.245 426.628 215.316 425.117 220.578C423.607 225.84 426.608 231.337 431.849 232.913C433.286 233.345 440.847 235.849 448.824 242.783C452.991 246.406 459.307 245.965 462.931 241.797C465.07 239.337 465.792 236.13 465.17 233.17C477.611 230.592 492.497 224.67 508.149 212.281C511.997 209.241 513.066 203.857 510.677 199.573V199.573ZM151.615 360.245C136.385 345.016 136.385 320.235 151.615 305.007C158.992 297.628 168.801 293.566 179.235 293.566C189.668 293.566 199.476 297.628 206.853 305.007C214.232 312.384 218.294 322.192 218.294 332.625C218.294 343.06 214.232 352.868 206.853 360.245C191.624 375.475 166.842 375.475 151.615 360.245ZM204.674 276.864C194.24 276.864 184.432 272.802 177.055 265.423C161.825 250.193 161.825 225.413 177.055 210.185C184.432 202.806 194.241 198.744 204.674 198.744C215.108 198.744 224.916 202.806 232.293 210.185C239.671 217.562 243.735 227.371 243.735 237.803C243.735 248.238 239.672 258.046 232.293 265.423C224.917 272.802 215.108 276.864 204.674 276.864ZM233.682 135.815C241.061 143.192 245.123 153.002 245.123 163.435C245.123 172.488 242.06 181.069 236.429 188.001C227.03 181.982 216.104 178.742 204.674 178.742C200.795 178.742 196.975 179.117 193.251 179.844C193.977 176.119 194.353 172.299 194.353 168.42C194.353 155.269 190.07 142.782 182.188 132.527C188.996 127.246 197.306 124.374 206.063 124.374C216.497 124.375 226.305 128.438 233.682 135.815V135.815ZM107.672 140.802C115.05 133.424 124.859 129.362 135.292 129.362C145.726 129.362 155.534 133.424 162.911 140.802C170.289 148.18 174.351 157.989 174.351 168.421C174.351 178.856 170.289 188.664 162.911 196.041C147.682 211.271 122.901 211.271 107.672 196.041C100.294 188.664 96.232 178.855 96.232 168.421C96.232 157.988 100.294 148.18 107.672 140.802ZM82.2326 235.624C89.6098 228.246 99.4191 224.183 109.852 224.183C120.286 224.183 130.094 228.245 137.471 235.624C144.85 243.002 148.912 252.811 148.912 263.243C148.912 273.678 144.85 283.486 137.471 290.863C122.242 306.093 97.46 306.093 82.2326 290.863C67.0031 275.634 67.0031 250.854 82.2326 235.624V235.624ZM56.8728 330.561C64.487 322.946 74.4903 319.139 84.4926 319.139C94.4949 319.139 104.498 322.946 112.113 330.561C127.341 345.79 127.341 370.571 112.113 385.8C96.882 401.031 72.1003 401.031 56.8728 385.8C41.6443 370.571 41.6443 345.79 56.8728 330.561V330.561ZM86.7087 480.586C71.4792 495.816 46.6975 495.816 31.469 480.586C16.2395 465.358 16.2395 440.577 31.469 425.347C39.0842 417.731 49.0845 413.925 59.0888 413.925C69.0902 413.925 79.0955 417.733 86.7087 425.347C101.938 440.578 101.938 465.358 86.7087 480.586ZM181.496 455.182C174.118 462.56 164.309 466.623 153.876 466.623C143.442 466.623 133.634 462.56 126.257 455.182C118.879 447.805 114.817 437.996 114.817 427.563C114.817 417.129 118.879 407.321 126.257 399.943C133.634 392.565 143.443 388.503 153.876 388.503C164.31 388.503 174.118 392.565 181.496 399.943C196.724 415.173 196.724 439.953 181.496 455.182V455.182ZM276.236 429.627C268.858 437.006 259.049 441.068 248.617 441.068C238.182 441.068 228.374 437.006 220.997 429.627C205.767 414.398 205.767 389.617 220.997 374.389C228.374 367.01 238.183 362.948 248.617 362.948C259.05 362.948 268.858 367.01 276.236 374.389C283.614 381.766 287.676 391.575 287.676 402.008C287.676 412.442 283.614 422.25 276.236 429.627ZM334.208 376.041C335.742 376.896 337.417 377.309 339.074 377.309C342.047 377.308 344.966 375.984 346.921 373.515C355.27 362.968 360.671 352.774 364.102 343.436C366.61 345.003 368.955 346.844 371.059 348.949C378.437 356.326 382.499 366.134 382.499 376.569C382.499 387.002 378.437 396.81 371.059 404.188C363.681 411.566 353.872 415.628 343.44 415.628C333.005 415.628 323.197 411.566 315.82 404.188C303.238 391.606 301.062 372.511 309.269 357.662C315.764 364.063 323.928 370.309 334.208 376.041V376.041ZM284.7 300.606C284.663 304.949 284.987 309.813 285.94 315.005C287.287 322.338 290.034 330.981 295.324 339.954C289.049 344.045 281.723 346.246 274.057 346.246C263.622 346.246 253.814 342.184 246.437 334.805C231.207 319.577 231.207 294.795 246.437 279.567C247.946 278.058 249.556 276.705 251.246 275.483C252.385 282.237 254.018 289.328 256.15 296.751C257.507 301.474 262.096 304.508 266.972 303.917C274.09 303.048 279.923 301.892 284.7 300.606V300.606ZM318.279 183.644C309.375 184.052 296.409 185.847 284.059 191.938C314.536 151.25 330.841 101.812 330.689 51.1506C330.693 50.8826 330.709 50.6176 330.709 50.3486C330.709 50.1586 330.691 49.9736 330.681 49.7866C330.593 39.8832 329.899 29.9369 328.535 20.0016H349.525C355.218 56.7438 352.439 94.5449 341.448 130.016C322.93 145.916 318.915 169.734 318.279 183.644V183.644Z" fill="black"/>
<path d="M470.234 267.48C468.374 269.339 467.303 271.919 467.303 274.549C467.303 277.18 468.373 279.76 470.234 281.619C472.093 283.479 474.674 284.549 477.303 284.549C479.934 284.549 482.513 283.48 484.373 281.619C486.233 279.76 487.303 277.18 487.303 274.549C487.303 271.919 486.234 269.339 484.373 267.48C482.513 265.62 479.934 264.549 477.303 264.549C474.674 264.549 472.093 265.619 470.234 267.48Z" fill="black"/>
</g>
<defs>
<clipPath id="clip0">
<rect width="512" height="512" fill="white"/>
</clipPath>
</defs>
</svg>
