<svg width="512" height="512" viewBox="0 0 512 512" fill="none" xmlns="http://www.w3.org/2000/svg">
<path d="M190.1 130.5C205.7 120.7 224.1 121.8 231.4 133.4C309.3 107.6 406.5 149.3 451.2 220.3C498 294.6 493.7 405 429.1 462.1C435.7 472.7 430.4 489.2 420 495.8C409.6 502.4 392.3 500 385.6 489.4C306.2 522.9 204.8 479 158 404.7C113.3 333.6 118 228.1 175 169.1C173 165.9 172 162.3 172.1 158.5C172.1 148.7 178.8 137.6 190.1 130.5V130.5Z" fill="#EDED3B"/>
<path d="M477 379.5C419.7 441.4 311.9 445.7 238.5 400.5C178.2 363.3 138.6 288.6 142.8 219.2C118.7 277.4 124.2 351 158.1 404.8C204.9 479.1 306.3 523.1 385.7 489.5C392.3 500 409.6 502.4 420.1 495.9C430.6 489.4 435.9 472.7 429.2 462.2C453.6 440.6 469.4 411.5 477 379.5V379.5Z" fill="#D3CF39"/>
<path d="M182.4 113.8L179 101.9C164.5 55.7 115.8 31.2 65.8 39.7C56.8 41.2 29.5 43.1 29.5 43.1C29.5 43.1 42.3 66.1 45.8 74.2C67.3 124.5 114 146 163.5 131.6L173.8 128.6C180.3 126.9 184.1 120.3 182.4 113.8Z" fill="#6B9337"/>
<path d="M182.4 113.8L179 101.8C176.9 95 173.9 88.5 170.2 82.4L161.7 87.1C120.5 110 75 103.2 42.9 68.3C44.1 70.6 45.1 72.7 45.7 74.2C67.2 124.5 113.9 145.9 163.4 131.6L173.7 128.6C180.2 126.9 184.1 120.3 182.4 113.8V113.8Z" fill="#59752C"/>
<path d="M242.2 23.9C204 32.7 176.7 65.1 180.9 102.6L181.7 109.4C181.8 110 181.9 110.7 182.1 111.3L182.3 111.8C183.1 114.4 185 116.6 187.5 117.6C189 118.2 190.6 118.4 192.2 118.2L200.3 117.3C239.3 112.8 266 84 266.4 42.2C266.5 35.5 268.8 15.5 268.8 15.5C268.8 15.5 249 22.3 242.2 23.9V23.9Z" fill="#5D8430"/>
<path d="M193.5 96L185.4 95.4C183.6 95.3 181.9 94.6 180.5 93.6C180.4 96.6 180.6 99.7 180.9 102.7L181.7 109.5C181.8 110.1 181.9 110.8 182.1 111.4L182.2 111.8C183 114.4 184.9 116.7 187.5 117.7C189 118.3 190.6 118.5 192.2 118.3L200.3 117.4C234.3 113.5 258.8 91.1 264.9 57.8C251.1 84.3 224.7 98.5 193.5 96V96Z" fill="#59752C"/>
<path d="M242.2 422.1C239 420.1 235.8 418 232.7 415.9C230 414 226.3 414.6 224.3 417.3C222.3 420 223 423.7 225.7 425.7C229 428.1 232.4 430.3 235.9 432.4C236.9 433 237.9 433.3 239 433.3C241 433.3 243 432.3 244.1 430.4C246 427.5 245.1 423.9 242.2 422.1V422.1Z" fill="#151515"/>
<path d="M208 393.6C168 348 167.3 288.6 168.9 265.1C169.1 261.8 166.6 258.9 163.3 258.7C160 258.5 157.1 261 156.9 264.3C155.2 289.2 155.9 352.5 198.9 401.5C200.6 403.5 202.4 405.4 204.2 407.3C205.4 408.5 206.9 409.1 208.5 409.1C210 409.1 211.5 408.5 212.7 407.4C215.1 405.1 215.1 401.3 212.8 398.9C211.3 397.2 209.6 395.4 208 393.6V393.6Z" fill="#151515"/>
<path d="M456.3 217.2C433.7 181.3 398.1 152.1 356 135C314.5 118.1 271.2 115.2 233.6 126.5C230.1 122.8 225.6 120.3 220.5 119C252.2 107.9 272 79.6 272.4 42.4C272.5 37.2 274.1 21.8 274.8 16.3C275 14.3 274.2 12.2 272.6 10.9C271 9.6 268.9 9.2 266.9 9.9C266.7 10 247.3 16.5 240.9 18C210.9 25 188.2 44.8 179 69.7C177.5 52.3 179 32.7 187 13.2C188.3 10.1 186.8 6.6 183.7 5.4C180.6 4.1 177.1 5.6 175.9 8.7C167.5 29.1 165.5 49.4 166.7 67.6C159.2 58.8 150 51.3 139.4 45.5C117.5 33.5 91 29.3 64.7 33.8C56.1 35.3 29.3 37.2 29 37.2C27 37.3 25.1 38.5 24.1 40.3C23.1 42.1 23.1 44.3 24.1 46.1C24.2 46.3 36.9 68.9 40.1 76.6C58 118.4 92.8 142.1 133.3 142.1C143.6 142.1 154.2 140.6 165 137.4L175.3 134.4C175.7 134.3 176.1 134.1 176.6 134C167.3 144.3 163.7 157.5 167.8 168.2C141.3 197.2 125.2 237.5 122.4 282.2C119.5 327.5 130.4 372.2 153 408.1C176.5 445.5 214.6 476.6 257.4 493.3C280.8 502.5 304.6 507.1 327.4 507.1C347.1 507.1 366.1 503.7 383.7 496.9C387.9 501.1 393.7 504.1 400.3 505.2C408.5 506.6 416.8 505.1 423.1 501.1C429.4 497.1 434.4 490.3 436.7 482.3C438.6 475.8 438.4 469.3 436.4 463.7C466.1 435.7 484.4 394.9 487.9 348.3C491.4 302.3 479.9 254.6 456.3 217.2V217.2ZM243.6 29.7C247.6 28.8 255.5 26.3 261.8 24.2C261.1 30.5 260.4 38.3 260.4 42.2C260 80 236.1 107.2 199.6 111.4L191.5 112.3C190.5 112.4 189.6 112.2 188.9 111.6C188.5 111.3 187.9 110.6 187.8 109.7L186.9 101.9C183 68.6 206.9 38.2 243.6 29.7ZM172.1 122.9L161.8 125.9C114.5 139.6 71.2 118.4 51.3 71.9C49.1 66.7 43.3 56 39.2 48.5C48.1 47.8 60.9 46.7 66.7 45.7C116.3 37.3 161.3 62.5 173.7 105.7L176.6 115.6C177.5 118.6 175.5 121.9 172.1 122.9ZM476 347.3C472.6 392.5 454.6 431.7 425.2 457.7C423 459.6 422.5 462.9 424.1 465.4C426.3 468.9 426.7 473.8 425.3 478.9C423.8 484 420.7 488.5 416.9 490.9C413.1 493.3 407.7 494.2 402.5 493.3C397.3 492.4 393 489.9 390.8 486.4C389.2 483.9 386.1 482.9 383.4 484.1C347.3 499.3 304.1 498.6 261.9 482.1C221.4 466.3 185.4 436.9 163.2 401.7C141.9 367.9 131.7 325.7 134.5 283C137.3 239.6 153.2 200.7 179.5 173.5C181.4 171.5 181.7 168.5 180.3 166.1C174.9 157.5 180.9 143.5 193.4 135.6C199.5 131.8 206.1 129.9 211.9 129.9C218.2 129.9 223.6 132.2 226.5 136.7C228 139 230.8 140.1 233.5 139.2C269.3 127.3 311.3 129.8 351.7 146.2C391.5 162.3 425.1 189.8 446.4 223.6C468.4 258.8 479.2 303.9 476 347.3V347.3Z" fill="#151515"/>
</svg>
