<svg width="512" height="512" viewBox="0 0 512 512" fill="none" xmlns="http://www.w3.org/2000/svg">
<g clip-path="url(#clip0)">
<path d="M179.945 112.489C178.345 98.887 167.488 38.833 99.653 23.851C96.426 23.139 93.352 25.551 93.297 28.855C92.955 49.385 98.315 114.01 179.083 115.224C179.364 114.305 179.654 113.395 179.945 112.489Z" fill="#3BBC56"/>
<path d="M113.334 28.855C113.34 28.482 113.39 28.122 113.469 27.775C109.146 26.257 104.553 24.933 99.653 23.851C96.427 23.139 93.352 25.551 93.297 28.855C92.955 49.385 98.315 114.01 179.083 115.224C179.259 114.649 179.442 114.082 179.623 113.513C117.47 103.032 113.022 47.588 113.334 28.855Z" fill="#30AA44"/>
<path d="M183.662 150.28C196.386 124.399 217.549 80.812 248.695 62.04C252.378 59.819 253.032 54.745 250.048 51.646L232.003 32.906C227.882 28.626 220.909 29.055 217.36 33.821C199.33 58.037 175.21 109.389 169.824 150.389C175.098 150.134 179.247 150.141 183.662 150.28Z" fill="#93603E"/>
<path d="M234.123 35.108L232.003 32.906C227.881 28.626 220.909 29.055 217.361 33.821C199.331 58.037 175.211 109.389 169.825 150.389C175.1 150.135 179.248 150.141 183.663 150.281C185.458 146.63 187.427 142.618 189.563 138.382C197.317 100.55 217.947 57.41 234.123 35.108Z" fill="#7F573C"/>
<path d="M147.903 485.436L147.902 485.437C100.825 476.656 58.379 447.81 32.739 404.854C32.724 404.829 32.597 404.617 32.582 404.592C29.901 400.065 27.445 395.449 25.231 390.794L25.037 390.379C24.357 388.934 23.725 387.545 23.111 386.145L22.792 385.416C22.199 384.047 21.605 382.626 21.029 381.193L20.868 380.796C18.921 375.909 17.2 370.93 15.729 365.935L15.515 365.19C15.12 363.833 14.724 362.392 14.344 360.943L14.119 360.069C-4.643 286.934 28.114 213.097 81.658 177.639L81.555 177.711C87.842 173.3 95.088 168.951 100.268 166.283V166.282C115.807 158.175 131.808 152.723 147.903 149.721L147.904 149.722C149.641 149.397 152.431 148.933 152.947 148.857L152.946 148.856C166.241 146.789 179.921 146.33 191.132 147.176V147.177C274.055 153.381 336.677 215.465 348.245 290.661C354.693 331.373 346.483 373.483 323.564 409.442C320.062 414.938 316.092 420.458 311.515 426.022C311.473 426.074 311.35 426.221 311.308 426.271C300.15 439.792 286.392 451.644 277.49 457.511L277.606 457.43C259.181 470.347 241.324 477.901 221.491 483.18L221.489 483.171C221.421 483.19 221.353 483.209 221.286 483.228L221.287 483.231C210.388 486.025 198.528 487.747 185.796 488.254C172.762 488.727 160.138 487.718 147.903 485.436ZM191.604 447.016C191.538 447.023 191.472 447.031 191.407 447.038C191.471 447.031 191.538 447.024 191.604 447.016ZM225.994 439.026L225.99 439.027C225.991 439.028 225.993 439.028 225.994 439.026ZM147.634 191.546V191.547V191.546ZM259.396 166.57C259.403 166.573 259.409 166.577 259.416 166.58C259.41 166.577 259.403 166.573 259.396 166.57ZM258.868 166.285C258.903 166.303 258.938 166.32 258.973 166.34C258.938 166.321 258.904 166.303 258.868 166.284V166.285Z" fill="#3BBC56"/>
<path d="M167.94 485.436L167.939 485.437C120.862 476.656 78.416 447.81 52.775 404.854C52.76 404.829 52.633 404.617 52.618 404.592C49.937 400.065 47.481 395.449 45.268 390.794L45.073 390.379C44.393 388.934 43.761 387.545 43.147 386.145L42.829 385.416C42.236 384.047 41.642 382.626 41.066 381.193L40.906 380.796C38.959 375.909 37.238 370.93 35.767 365.935L35.553 365.19C35.158 363.833 34.761 362.391 34.382 360.943L34.156 360.069C15.393 286.934 48.151 213.097 101.695 177.639L101.592 177.711C107.879 173.3 115.125 168.951 120.305 166.283V166.282C135.844 158.175 151.845 152.723 167.94 149.721L167.941 149.722C169.678 149.397 172.468 148.933 172.984 148.857L172.983 148.856C178.573 147.987 184.229 147.406 189.743 147.083C178.8 146.374 165.699 146.874 152.946 148.856L152.947 148.857C152.432 148.933 149.642 149.398 147.904 149.722L147.903 149.721C131.807 152.724 115.807 158.176 100.268 166.282V166.283C95.087 168.95 87.841 173.299 81.555 177.711L81.658 177.639C28.113 213.096 -4.644 286.935 14.118 360.069L14.344 360.943C14.723 362.391 15.12 363.831 15.515 365.19L15.729 365.935C17.202 370.93 18.922 375.908 20.868 380.796L21.028 381.193C21.604 382.627 22.198 384.047 22.791 385.416L23.109 386.145C23.722 387.545 24.354 388.933 25.035 390.379L25.23 390.794C27.442 395.45 29.899 400.065 32.58 404.592C32.595 404.617 32.722 404.829 32.737 404.854C58.378 447.81 100.824 476.656 147.901 485.437L147.902 485.436C160.136 487.718 172.76 488.727 185.793 488.255C187.049 488.205 188.291 488.134 189.529 488.061C182.202 487.632 175.004 486.753 167.94 485.436Z" fill="#30AA44"/>
<path d="M335.337 456.45C410.863 456.45 472.089 395.224 472.089 319.698C472.089 244.172 410.863 182.946 335.337 182.946C259.811 182.946 198.585 244.172 198.585 319.698C198.585 395.224 259.811 456.45 335.337 456.45Z" fill="#BAD362"/>
<path d="M227.167 319.694C227.167 248.995 280.818 190.83 349.626 183.684C344.928 183.196 340.161 182.943 335.334 182.943C259.808 182.943 198.582 244.169 198.582 319.695C198.582 395.221 259.808 456.447 335.334 456.447C340.161 456.447 344.929 456.194 349.626 455.706C280.818 448.558 227.167 390.393 227.167 319.694Z" fill="#9AB748"/>
<path d="M335.808 338.046C347.109 338.046 356.27 328.885 356.27 317.584C356.27 306.283 347.109 297.122 335.808 297.122C324.507 297.122 315.346 306.283 315.346 317.584C315.346 328.885 324.507 338.046 335.808 338.046Z" fill="#9AB748"/>
<path d="M335.809 317.579C335.809 310.01 339.93 303.417 346.04 299.877C343.027 298.132 339.541 297.117 335.809 297.117C324.508 297.117 315.347 306.278 315.347 317.579C315.347 328.88 324.508 338.041 335.809 338.041C339.541 338.041 343.027 337.026 346.04 335.281C339.929 331.741 335.809 325.148 335.809 317.579Z" fill="#8EA53A"/>
<path d="M304.196 485.436L304.195 485.437C216.632 469.104 157.624 388.448 165.809 301.611C165.891 300.714 166.145 298.32 166.351 296.634C166.597 294.617 166.856 292.73 167.179 290.687C167.346 289.685 167.962 285.642 169.201 280.113L169.317 279.607C179.307 235.831 206.941 198.174 237.949 177.64L237.846 177.712C244.133 173.301 251.379 168.952 256.559 166.284V166.283C271.938 158.259 287.848 152.77 304.194 149.722L304.195 149.723C305.932 149.398 308.722 148.934 309.238 148.858L309.237 148.857C322.7 146.764 336.538 146.355 347.423 147.177V147.178C430.083 153.362 492.91 215.091 504.536 290.662C515.566 360.308 481.966 425.751 433.78 457.512L433.896 457.431C415.84 470.089 398.028 477.791 377.781 483.181L377.779 483.172C377.711 483.191 377.643 483.21 377.576 483.229L377.577 483.232C366.978 485.949 355.011 487.74 342.086 488.255C329.053 488.727 316.429 487.718 304.196 485.436ZM344.4 447.284C346.114 447.217 351.448 446.723 356.166 445.984C359.36 445.483 362.509 444.849 364.208 444.458C368.997 443.398 372.64 442.343 376.979 440.923C379.871 439.963 382.931 438.814 385.689 437.667C386.691 437.244 387.731 436.808 389.168 436.16C390.282 435.653 391.414 435.131 392.597 434.555C407.716 427.126 420.591 417.346 431.022 406.115C485.245 347.865 478.31 247.88 396.023 202.328L396.022 202.329C387.024 197.568 375.663 193.333 367.281 191.418C358.849 189.338 352.029 188.452 344.399 187.875C319.464 186.291 295.547 191.821 275.596 202.384C179.847 252.031 181.836 396.06 289.477 439.044C289.478 439.044 289.48 439.045 289.481 439.045C297.964 442.196 301.136 442.85 304.444 443.744C304.444 443.744 307.868 444.681 315.308 445.945L315.307 445.946C324.635 447.337 333.497 447.976 344.4 447.284ZM347.896 447.016C347.83 447.023 347.764 447.031 347.699 447.038C347.764 447.031 347.83 447.024 347.896 447.016ZM382.286 439.026L382.282 439.027C382.283 439.028 382.284 439.028 382.286 439.026ZM303.926 191.546V191.547V191.546ZM415.689 166.57C415.696 166.573 415.702 166.577 415.709 166.58C415.702 166.577 415.696 166.573 415.689 166.57ZM415.161 166.285C415.196 166.303 415.231 166.32 415.266 166.34C415.231 166.321 415.197 166.303 415.161 166.284V166.285Z" fill="#3BBC56"/>
<path d="M324.618 485.436L324.617 485.437C237.054 469.104 178.046 388.448 186.231 301.611C186.313 300.714 186.567 298.32 186.774 296.634C187.02 294.617 187.278 292.73 187.602 290.687C187.769 289.685 188.385 285.642 189.624 280.113L189.74 279.607C199.73 235.831 227.364 198.174 258.372 177.64L258.269 177.712C264.556 173.301 271.802 168.952 276.982 166.284V166.283C292.361 158.259 308.271 152.77 324.617 149.722L324.618 149.723C326.356 149.398 329.146 148.934 329.661 148.858L329.66 148.857C335.212 147.994 340.825 147.421 346.271 147.1C335.569 146.39 322.234 146.838 309.238 148.857L309.239 148.858C308.724 148.934 305.934 149.399 304.196 149.723L304.195 149.722C287.849 152.771 271.94 158.26 256.56 166.283V166.284C251.379 168.951 244.133 173.3 237.847 177.712L237.95 177.64C206.942 198.174 179.308 235.831 169.318 279.607L169.202 280.113C167.964 285.642 167.348 289.686 167.18 290.687C166.857 292.73 166.599 294.617 166.352 296.634C166.146 298.32 165.892 300.715 165.81 301.611C157.625 388.448 216.633 469.104 304.196 485.437L304.197 485.436C316.431 487.718 329.056 488.727 342.088 488.255C343.411 488.203 344.718 488.128 346.02 488.049C338.756 487.616 331.621 486.742 324.618 485.436Z" fill="#30AA44"/>
<path d="M505.032 307.541C509.272 307.228 512.39 303.484 511.96 299.282C508.058 261.144 492.071 226.545 468.753 200.13V200.129C454.073 183.413 436.783 169.86 417.665 159.775V159.776C404.568 152.832 389.435 147.253 378.227 144.66L378.264 144.669L377.659 144.515C368.25 142.257 359.329 140.853 358.327 140.853V140.852C322.772 135.948 286.61 142.439 255.8 157.604C236.616 148.233 216.295 142.501 195.159 140.492C207.274 116.47 225.597 83.978 251.315 68.476C258.937 63.879 260.766 53.257 253.926 46.152L236.155 27.696C228.837 20.096 216.405 20.829 210.073 29.334C199.593 43.411 187.878 64.67 178.513 87.832C169.94 63.074 149.036 27.977 98.483 16.622C89.666 14.641 82.649 21.026 82.52 28.732C82.308 41.535 84.236 73.814 106.694 96.995C121.186 111.954 141.436 120.442 166.939 122.332C165.351 128.392 164.042 134.405 163.047 140.293C71.876 147.869 0 224.484 0 317.579C0 360.92 15.765 402.676 44.392 435.156C72.758 467.341 111.684 488.199 153.996 493.888C158.108 494.425 161.892 491.555 162.445 487.441C162.998 483.329 160.112 479.546 155.999 478.993C75.633 468.189 15.029 398.794 15.029 317.578C15.029 200.404 134.959 123.819 239.51 166.734C228.629 173.279 213.42 185.425 200.438 200.143C127.106 283.329 149.175 414.145 239.485 468.408C223.668 474.885 206.996 478.783 189.749 480.024C185.763 480.311 182.502 483.611 182.548 487.607C182.596 491.788 185.996 495.048 190.054 495.048C190.232 495.048 190.412 495.042 190.592 495.029C213.425 493.415 235.338 487.533 255.793 477.549C338.425 518.292 437.055 487.286 482.257 417.548L482.256 417.547C482.256 417.547 482.256 417.547 482.256 417.546L482.258 417.548C498.191 394.053 508.87 366.227 511.961 335.871C512.381 331.742 509.374 328.056 505.246 327.635C501.124 327.229 497.431 330.222 497.011 334.35C488.178 421.273 410.24 491.038 312.866 479.412V479.411C267.196 473.291 225.847 448.139 199.514 409.304C127.773 302.819 198.96 149.934 345.603 154.664V154.669C350.111 155.011 349.565 154.927 356.147 155.718V155.719C356.217 155.729 356.288 155.739 356.347 155.746V155.747C432.279 165.876 489.444 227.189 496.979 300.499C497.4 304.596 500.926 307.843 505.032 307.541ZM97.544 31.835C150.614 44.887 164.643 87.435 168.312 107.384C121.178 103.986 98.14 74.545 97.544 31.835ZM178.773 139.675C178.573 139.606 178.628 139.625 178.428 139.556C185.38 102.523 205.426 60.742 222.128 38.308C222.931 37.229 224.459 37.213 225.332 38.12L242.684 56.14C211.648 75.337 191.404 114.114 178.773 139.675Z" fill="black"/>
<path d="M387.318 190.557C353.543 176.494 315.353 177.174 285.656 189.052C285.662 189.049 285.668 189.047 285.675 189.044C261.586 197.842 241.231 215.615 236.888 220.862C168.232 290.399 191.909 407.112 281.772 444.554V444.555C308.433 455.029 334.852 457.454 359.915 452.75V452.748C485.314 433.961 520.018 245.198 387.318 190.557ZM456.826 310.004H361.475C360.859 307.819 359.985 305.742 358.886 303.808L426.289 236.405C444.502 256.953 455.119 282.563 456.826 310.004ZM342.064 195.343C368.435 196.858 394.531 207.123 415.655 225.786L348.243 293.198C346.312 292.11 344.242 291.245 342.064 290.637V195.343V195.343ZM315.533 196.583L315.457 196.598C319.302 195.995 323.246 195.566 327.037 195.345V290.637C324.859 291.245 322.788 292.11 320.858 293.198L253.494 225.834C271.644 209.753 291.922 200.71 315.533 196.583ZM242.866 236.459L310.214 303.808C309.115 305.743 308.241 307.819 307.625 310.004H212.377C214.067 282.894 224.495 257.206 242.866 236.459ZM239.977 395.324C237.532 392.349 235.217 389.249 233.164 386.216C222.789 370.87 216.352 353.964 213.654 336.941C213.02 332.772 212.644 329.514 212.37 325.03H307.591C308.2 327.23 309.071 329.322 310.169 331.271L242.805 398.635C241.293 396.923 240.82 396.326 239.977 395.324ZM327.037 439.812C320.774 439.454 314.935 438.474 315.314 438.537C315.05 438.496 312.934 438.143 312.068 437.981V437.982C307.762 437.116 299.616 435.637 287.503 430.663V430.662C283.645 429.037 280.324 427.445 277.924 426.172V426.173C271.961 423.029 266.635 419.633 262.191 416.345V416.346C259.071 414.054 256.26 411.773 253.429 409.268L320.781 341.916C322.734 343.025 324.83 343.905 327.038 344.522V439.813H327.037V439.812ZM321.711 315.891C322.444 310.126 327.099 305.472 332.863 304.739C341.321 303.664 348.466 310.81 347.39 319.267C346.657 325.032 342.002 329.687 336.236 330.419C327.78 331.494 320.636 324.347 321.711 315.891ZM391.502 426.056C380.427 431.726 369.809 435.607 357.138 437.982V437.981C352.201 438.902 346.71 439.555 342.064 439.818V344.52C344.272 343.904 346.369 343.023 348.322 341.914L415.722 409.315C408.104 416.051 400.117 421.504 391.502 426.056ZM358.931 331.272C360.029 329.323 360.9 327.233 361.509 325.031H456.832C455.105 353.215 444.046 378.683 426.348 398.69L358.931 331.272Z" fill="black"/>
<path d="M79.433 330.371C81.109 329.33 82.337 327.623 82.78 325.697C82.869 325.341 82.923 324.974 82.954 324.603C83.014 323.883 82.972 323.153 82.82 322.447C82.74 322.074 82.634 321.702 82.5 321.354C82.327 320.884 82.11 320.44 81.851 320.024C81.592 319.607 81.29 319.217 80.945 318.853C80.692 318.578 80.405 318.318 80.105 318.081C79.54 317.632 78.905 317.271 78.234 317.007C77.887 316.87 77.534 316.757 77.176 316.678C75.252 316.221 73.18 316.567 71.503 317.608C69.826 318.65 68.599 320.356 68.155 322.282C68.067 322.638 68.012 323.004 67.982 323.376C67.923 324.088 67.963 324.811 68.111 325.51C68.192 325.891 68.299 326.271 68.436 326.626C68.61 327.096 68.827 327.54 69.085 327.956C69.343 328.373 69.645 328.763 69.99 329.127C70.247 329.406 70.539 329.67 70.844 329.91C71.406 330.354 72.036 330.711 72.701 330.973C73.048 331.11 73.4 331.223 73.758 331.302C75.682 331.757 77.757 331.412 79.433 330.371Z" fill="black"/>
<path d="M106.755 358.217C106.496 357.8 106.194 357.41 105.849 357.045C105.596 356.771 105.309 356.51 105.009 356.273C104.444 355.824 103.809 355.463 103.138 355.199C102.791 355.062 102.438 354.949 102.08 354.87C100.156 354.413 98.084 354.759 96.407 355.8C94.73 356.842 93.503 358.548 93.059 360.474C92.971 360.83 92.916 361.196 92.886 361.568C92.827 362.28 92.867 363.003 93.015 363.702C93.096 364.083 93.203 364.463 93.34 364.818C93.514 365.288 93.731 365.732 93.989 366.148C94.247 366.565 94.549 366.955 94.894 367.319C95.151 367.598 95.443 367.862 95.748 368.102C96.31 368.546 96.94 368.902 97.605 369.165C97.952 369.302 98.304 369.415 98.662 369.494C100.586 369.951 102.659 369.606 104.335 368.564C106.011 367.523 107.239 365.816 107.682 363.89C107.771 363.534 107.825 363.167 107.856 362.796C107.916 362.076 107.874 361.346 107.722 360.64C107.642 360.267 107.536 359.895 107.402 359.547C107.23 359.077 107.014 358.634 106.755 358.217Z" fill="black"/>
<path d="M130.382 397.202C130.123 396.784 129.821 396.395 129.476 396.03C129.223 395.755 128.936 395.495 128.636 395.258C128.071 394.809 127.436 394.448 126.765 394.184C126.418 394.047 126.065 393.934 125.707 393.855C123.783 393.398 121.711 393.744 120.034 394.785C118.357 395.827 117.13 397.533 116.686 399.459C116.598 399.815 116.543 400.181 116.513 400.553C116.454 401.265 116.494 401.988 116.642 402.687C116.723 403.068 116.83 403.448 116.967 403.803C117.141 404.273 117.358 404.716 117.616 405.133C117.874 405.55 118.176 405.94 118.521 406.304C118.778 406.583 119.07 406.847 119.375 407.087C119.937 407.531 120.567 407.886 121.232 408.15C121.579 408.287 121.931 408.4 122.289 408.479C124.213 408.936 126.286 408.591 127.962 407.549C129.638 406.508 130.866 404.801 131.309 402.874C131.398 402.518 131.452 402.151 131.483 401.78C131.543 401.06 131.501 400.33 131.349 399.624C131.269 399.251 131.163 398.879 131.029 398.531C130.858 398.063 130.641 397.619 130.382 397.202Z" fill="black"/>
<path d="M66.6 357.079C66.361 356.65 66.077 356.246 65.75 355.867C65.51 355.581 65.235 355.308 64.948 355.057C64.404 354.582 63.787 354.192 63.129 353.897C62.789 353.745 62.442 353.614 62.087 353.519C60.188 352.973 58.1 353.221 56.376 354.183C54.653 355.146 53.346 356.793 52.814 358.696C52.709 359.047 52.638 359.411 52.59 359.78C52.498 360.489 52.504 361.212 52.62 361.918C52.683 362.302 52.772 362.686 52.893 363.048C53.045 363.526 53.241 363.979 53.48 364.407C53.719 364.836 54.002 365.24 54.329 365.619C54.572 365.91 54.852 366.187 55.146 366.442C55.686 366.912 56.299 367.297 56.952 367.59C57.292 367.742 57.639 367.874 57.993 367.968C59.892 368.514 61.98 368.267 63.704 367.304C65.427 366.342 66.733 364.694 67.266 362.791C67.371 362.44 67.442 362.076 67.49 361.706C67.583 360.99 67.575 360.258 67.456 359.546C67.393 359.169 67.305 358.794 67.188 358.44C67.034 357.96 66.839 357.506 66.6 357.079Z" fill="black"/>
<path d="M74.676 403.089C74.828 403.567 75.024 404.02 75.263 404.448C75.502 404.876 75.785 405.281 76.112 405.66C76.355 405.951 76.635 406.228 76.929 406.483C77.469 406.953 78.082 407.338 78.735 407.631C79.075 407.784 79.422 407.915 79.776 408.009C81.675 408.555 83.763 408.308 85.487 407.345C87.21 406.383 88.516 404.735 89.049 402.832C89.154 402.481 89.226 402.117 89.273 401.747C89.366 401.031 89.358 400.299 89.239 399.587C89.176 399.21 89.088 398.835 88.971 398.481C88.82 398.004 88.624 397.55 88.385 397.122C88.146 396.693 87.862 396.289 87.535 395.91C87.296 395.624 87.02 395.351 86.733 395.1C86.189 394.625 85.572 394.235 84.914 393.94C84.574 393.787 84.227 393.657 83.872 393.562C81.973 393.016 79.885 393.264 78.161 394.226C76.438 395.189 75.131 396.836 74.599 398.739C74.494 399.09 74.423 399.454 74.375 399.823C74.283 400.532 74.289 401.255 74.405 401.961C74.467 402.344 74.557 402.729 74.676 403.089Z" fill="black"/>
</g>
<defs>
<clipPath id="clip0">
<rect width="512" height="512" fill="white"/>
</clipPath>
</defs>
</svg>
