<svg width="512" height="512" viewBox="0 0 512 512" fill="none" xmlns="http://www.w3.org/2000/svg">
<g clip-path="url(#clip0)">
<path d="M355.427 163.764H339.454V192.716H355.427V163.764Z" fill="#965353"/>
<path d="M177.878 86.24L161.757 88.884L171.732 27.984H187.706L177.878 86.24Z" fill="#965353"/>
<g opacity="0.2">
<path opacity="0.2" d="M179.719 27.984H171.732L161.757 88.884L169.962 87.542L179.719 27.984Z" fill="white"/>
</g>
<path d="M347.444 243.629C365.733 243.629 411.339 282.924 411.339 331.484C411.339 379.966 365.734 419.339 347.444 419.339C329.153 419.339 283.549 379.966 283.549 331.484C283.549 282.924 329.153 243.629 347.444 243.629Z" fill="#965353"/>
<g opacity="0.2">
<path opacity="0.2" d="M299.522 331.485C299.522 288.993 334.45 253.589 355.43 245.408C352.436 244.246 349.729 243.63 347.444 243.63C329.153 243.63 283.549 282.925 283.549 331.485C283.549 379.967 329.153 419.34 347.444 419.34C349.729 419.34 352.436 418.724 355.43 417.562C334.449 409.365 299.522 373.914 299.522 331.485Z" fill="white"/>
</g>
<g opacity="0.2">
<path opacity="0.2" d="M395.364 331.485C395.364 288.993 360.438 253.589 339.458 245.408C342.452 244.246 345.159 243.63 347.444 243.63C365.733 243.63 411.339 282.925 411.339 331.485C411.339 379.967 365.734 419.34 347.444 419.34C345.159 419.34 342.452 418.724 339.458 417.562C360.438 409.365 395.364 373.914 395.364 331.485Z" fill="black"/>
</g>
<path d="M347.444 187.721C490.008 139.8 507.18 251.218 507.18 339.471C507.18 427.725 419.325 507.196 347.444 507.196C277.799 507.196 208.149 446.819 191.458 372.776C188.985 361.92 187.706 350.735 187.706 339.471C187.706 261.678 201.043 165.921 301.838 177.098C315.418 178.619 330.51 182.051 347.444 187.721ZM411.338 331.485C411.338 282.924 365.733 243.63 347.443 243.63C329.152 243.63 283.548 282.925 283.548 331.485C283.548 379.967 329.152 419.34 347.443 419.34C365.733 419.34 411.338 379.967 411.338 331.485Z" fill="#FFCE54"/>
<g opacity="0.5">
<path opacity="0.5" d="M207.432 372.776C204.959 361.92 203.68 350.735 203.68 339.471C203.68 268.128 214.951 181.723 294.577 176.513C200.435 170.687 187.706 263.596 187.706 339.471C187.706 350.735 188.985 361.919 191.458 372.776C208.149 446.819 277.799 507.196 347.444 507.196C350.243 507.196 353.083 507.032 355.923 506.799C288.844 502.68 223.522 444.158 207.432 372.776Z" fill="white"/>
</g>
<g opacity="0.2">
<path opacity="0.2" d="M487.946 372.776C490.419 361.92 491.698 350.735 491.698 339.471C491.698 268.128 480.428 181.723 400.802 176.513C494.945 170.687 507.673 263.596 507.673 339.471C507.673 350.735 506.394 361.919 503.921 372.776C487.23 446.819 417.579 507.196 347.935 507.196C345.136 507.196 342.296 507.032 339.458 506.799C406.533 502.68 471.856 444.158 487.946 372.776Z" fill="black"/>
</g>
<path d="M299.764 359.439C297.557 359.439 295.731 357.653 295.731 355.446C295.731 353.239 297.479 351.452 299.678 351.452H299.764C301.963 351.452 303.758 353.239 303.758 355.446C303.758 357.653 301.963 359.439 299.764 359.439Z" fill="#3A3847"/>
<path d="M323.725 383.399C321.518 383.399 319.692 381.614 319.692 379.406C319.692 377.199 321.44 375.413 323.639 375.413H323.725C325.924 375.413 327.717 377.199 327.717 379.406C327.717 381.614 325.924 383.399 323.725 383.399Z" fill="#3A3847"/>
<path d="M347.686 407.36C345.477 407.36 343.653 405.574 343.653 403.367C343.653 401.16 345.401 399.374 347.6 399.374H347.686C349.885 399.374 351.678 401.16 351.678 403.367C351.678 405.574 349.885 407.36 347.686 407.36Z" fill="#3A3847"/>
<path d="M299.764 311.518C297.557 311.518 295.731 309.732 295.731 307.524C295.731 305.317 297.479 303.531 299.678 303.531H299.764C301.963 303.531 303.758 305.317 303.758 307.524C303.758 309.732 301.963 311.518 299.764 311.518Z" fill="#3A3847"/>
<path d="M323.725 335.478C321.518 335.478 319.692 333.692 319.692 331.485C319.692 329.278 321.44 327.492 323.639 327.492H323.725C325.924 327.492 327.717 329.278 327.717 331.485C327.717 333.692 325.924 335.478 323.725 335.478Z" fill="#3A3847"/>
<path d="M347.686 359.439C345.477 359.439 343.653 357.653 343.653 355.446C343.653 353.239 345.401 351.452 347.6 351.452H347.686C349.885 351.452 351.678 353.239 351.678 355.446C351.678 357.653 349.885 359.439 347.686 359.439Z" fill="#3A3847"/>
<path d="M371.645 383.399C369.438 383.399 367.614 381.614 367.614 379.406C367.614 377.199 369.36 375.413 371.559 375.413H371.645C373.846 375.413 375.639 377.199 375.639 379.406C375.639 381.614 373.846 383.399 371.645 383.399Z" fill="#3A3847"/>
<path d="M323.725 287.557C321.518 287.557 319.692 285.771 319.692 283.564C319.692 281.356 321.44 279.571 323.639 279.571H323.725C325.924 279.571 327.717 281.356 327.717 283.564C327.717 285.771 325.924 287.557 323.725 287.557Z" fill="#3A3847"/>
<path d="M347.686 311.518C345.477 311.518 343.653 309.732 343.653 307.524C343.653 305.317 345.401 303.531 347.6 303.531H347.686C349.885 303.531 351.678 305.317 351.678 307.524C351.678 309.732 349.885 311.518 347.686 311.518Z" fill="#3A3847"/>
<path d="M371.645 335.478C369.438 335.478 367.614 333.692 367.614 331.485C367.614 329.278 369.36 327.492 371.559 327.492H371.645C373.846 327.492 375.639 329.278 375.639 331.485C375.639 333.692 373.846 335.478 371.645 335.478Z" fill="#3A3847"/>
<path d="M395.606 359.439C393.399 359.439 391.575 357.653 391.575 355.446C391.575 353.239 393.321 351.452 395.52 351.452H395.606C397.805 351.452 399.6 353.239 399.6 355.446C399.6 357.653 397.805 359.439 395.606 359.439Z" fill="#3A3847"/>
<path d="M347.686 263.596C345.477 263.596 343.653 261.811 343.653 259.603C343.653 257.396 345.401 255.61 347.6 255.61H347.686C349.885 255.61 351.678 257.396 351.678 259.603C351.678 261.811 349.885 263.596 347.686 263.596Z" fill="#3A3847"/>
<path d="M371.645 287.557C369.438 287.557 367.614 285.771 367.614 283.564C367.614 281.356 369.36 279.571 371.559 279.571H371.645C373.846 279.571 375.639 281.356 375.639 283.564C375.639 285.771 373.846 287.557 371.645 287.557Z" fill="#3A3847"/>
<path d="M395.606 311.518C393.399 311.518 391.575 309.732 391.575 307.524C391.575 305.317 393.321 303.531 395.52 303.531H395.606C397.805 303.531 399.6 305.317 399.6 307.524C399.6 309.732 397.805 311.518 395.606 311.518Z" fill="#3A3847"/>
<path d="M225.005 8.017C241.86 1.629 300.404 2.58799 304.312 12.728C308.15 22.954 265.017 62.568 248.17 68.956C231.393 75.352 212.549 66.96 206.153 50.112C199.764 33.257 208.149 14.49 225.005 8.017Z" fill="#A0D468"/>
<g opacity="0.3">
<path opacity="0.3" d="M304.311 12.728C301.862 6.36399 277.885 3.61899 256.203 4.03999C275.42 4.35199 294.172 7.14399 296.325 12.728C300.163 22.954 257.03 62.568 240.183 68.956C237.765 69.877 235.316 70.407 232.851 70.734C237.89 71.319 243.108 70.882 248.169 68.956C265.016 62.568 308.149 22.953 304.311 12.728Z" fill="black"/>
</g>
<g opacity="0.5">
<path opacity="0.5" d="M214.139 50.112C207.751 33.258 216.136 14.491 232.991 8.01699C239.269 5.63799 251.328 4.28099 264.19 4.03899C248.536 3.77299 232.57 5.15399 225.004 8.01699C208.149 14.491 199.765 33.257 206.152 50.112C211.628 64.534 226.228 72.676 240.837 70.734C229.177 69.377 218.609 61.881 214.139 50.112Z" fill="white"/>
</g>
<path d="M304.553 155.056L315.948 179.298L301.839 177.098C201.044 165.921 187.707 261.678 187.707 339.471C187.707 350.735 188.986 361.919 191.459 372.776L171.733 377.573C125.091 355.844 75.891 300.497 75.891 235.643C75.891 151.859 131.323 83.892 199.687 83.892C243.856 83.892 282.666 112.329 304.553 155.056Z" fill="#FC6E51"/>
<g opacity="0.3">
<path opacity="0.3" d="M91.864 235.643C91.864 154.729 143.607 88.759 208.726 84.322C205.739 84.056 202.728 83.892 199.686 83.892C131.322 83.892 75.89 151.859 75.89 235.643C75.89 300.497 125.09 355.843 171.732 377.573L182.543 374.945C137.507 351.662 91.864 298.11 91.864 235.643Z" fill="white"/>
<path opacity="0.3" d="M294.576 176.513C296.955 176.661 299.349 176.826 301.838 177.098L315.947 179.298L314.801 176.857C307.61 176.201 300.879 176.1 294.576 176.513Z" fill="white"/>
</g>
<path d="M191.458 372.776C194.578 386.675 199.608 400.09 206.074 412.632L187.706 411.354C187.706 411.354 4.008 403.367 4.008 235.643C4.008 95.716 132.297 71.101 185.015 84.946L146.016 98.907C104.561 123.351 75.89 175.422 75.89 235.643C75.89 300.497 125.09 355.843 171.732 377.573L191.458 372.776Z" fill="#FC6E51"/>
<g opacity="0.2">
<path opacity="0.2" d="M163.745 377.573L169.15 376.256C123.296 353.722 75.89 299.304 75.89 235.644C75.89 175.422 104.561 123.352 146.016 98.908L185.015 84.947C184.313 84.767 183.549 84.619 182.823 84.447C118.616 90.048 67.903 155.534 67.903 235.644C67.903 300.496 117.103 355.843 163.745 377.573Z" fill="black"/>
</g>
<g opacity="0.3">
<path opacity="0.3" d="M203.68 411.354C203.68 411.354 19.982 403.367 19.982 235.643C19.982 122.704 103.532 84.907 163.496 81.802C103.766 78.541 4.008 112.237 4.008 235.643C4.008 403.367 187.706 411.354 187.706 411.354L206.074 412.632C205.879 412.258 205.716 411.861 205.52 411.486L203.68 411.354Z" fill="white"/>
</g>
<g opacity="0.2">
<path opacity="0.2" d="M347.44 163.764H339.454V186.894H347.44V163.764Z" fill="white"/>
</g>
<path d="M171.732 381.567C171.163 381.567 170.593 381.442 170.047 381.192C121.268 358.471 71.896 301.183 71.896 235.643C71.896 176.311 100.193 121.291 143.989 95.467C161.304 85.14 180.054 79.899 199.686 79.899C244.058 79.899 284.586 107.315 308.109 153.239C308.826 154.596 309.568 156.079 310.316 157.654L312.359 162.138C313.257 164.159 312.343 166.514 310.332 167.411C308.32 168.3 305.965 167.411 305.059 165.383L303.063 160.999C302.409 159.619 301.713 158.238 301.02 156.928C278.87 113.679 241.001 87.886 199.687 87.886C181.514 87.886 164.144 92.752 148.061 102.338C106.637 126.759 79.884 179.079 79.884 235.643C79.884 297.837 126.939 352.302 173.417 373.954C175.422 374.883 176.287 377.262 175.352 379.259C174.673 380.708 173.238 381.567 171.732 381.567Z" fill="#3A3847"/>
<path d="M187.706 415.347C187.651 415.347 187.589 415.347 187.534 415.347C185.655 415.261 0.0140076 405.231 0.0140076 235.643C0.0140076 90.709 130.214 78.862 145.065 77.988C146.765 77.902 147.709 77.902 147.771 77.902C149.971 77.91 151.757 79.696 151.757 81.896C151.757 84.103 149.979 85.889 147.771 85.889C147.725 85.889 146.914 85.897 145.494 85.967C122.571 87.317 8.00201 100.88 8.00201 235.643C8.00201 397.672 186.084 407.289 187.878 407.368C190.085 407.462 191.793 409.326 191.699 411.525C191.606 413.67 189.835 415.347 187.706 415.347Z" fill="#3A3847"/>
<path d="M163.753 79.899C163.535 79.899 163.308 79.883 163.09 79.844C160.914 79.486 159.44 77.426 159.806 75.25L167.793 27.329C168.152 25.152 170.242 23.671 172.387 24.045C174.563 24.411 176.037 26.463 175.67 28.639L167.684 76.561C167.356 78.518 165.665 79.899 163.753 79.899Z" fill="#3A3847"/>
<path d="M179.727 79.899C179.509 79.899 179.282 79.883 179.064 79.844C176.888 79.486 175.414 77.426 175.78 75.25L183.767 27.329C184.133 25.152 186.216 23.671 188.361 24.045C190.537 24.411 192.011 26.463 191.645 28.639L183.658 76.561C183.33 78.518 181.637 79.899 179.727 79.899Z" fill="#3A3847"/>
<path d="M187.706 31.978H171.732C169.525 31.978 167.739 30.192 167.739 27.984C167.739 25.777 169.525 23.991 171.732 23.991H187.706C189.913 23.991 191.699 25.777 191.699 27.984C191.699 30.192 189.913 31.978 187.706 31.978Z" fill="#3A3847"/>
<path d="M236.579 75.094C221.494 75.094 207.766 65.625 202.416 51.524C195.279 32.696 204.771 11.511 223.577 4.289C230.676 1.599 244.465 0 260.485 0C276.622 0 304.249 1.466 308.04 11.294C313.561 26.02 264.425 67.062 249.589 72.692C245.408 74.282 241.024 75.094 236.579 75.094ZM260.485 7.986C245.829 7.986 232.461 9.468 226.416 11.754C211.729 17.393 204.304 33.967 209.889 48.693C214.069 59.706 224.794 67.108 236.579 67.108C240.05 67.108 243.474 66.476 246.749 65.228C264.252 58.59 301.822 21.097 300.551 14.062C299.272 12.057 286.114 7.986 260.485 7.986Z" fill="#3A3847"/>
<path d="M347.444 511.189C345.237 511.189 343.45 509.403 343.45 507.196C343.45 504.989 345.237 503.203 347.444 503.203C416.096 503.203 503.188 426.119 503.188 339.472C503.188 291.154 498.532 223.57 458.237 194.61C433.139 176.569 396.294 175.524 348.716 191.513C346.64 192.207 344.362 191.084 343.661 188.993C342.96 186.903 344.083 184.641 346.173 183.939C396.318 167.091 435.597 168.488 462.903 188.12C506.167 219.224 511.174 289.398 511.174 339.472C511.174 430.338 419.614 511.189 347.444 511.189Z" fill="#3A3847"/>
<path d="M347.444 511.189C290.585 511.189 232.344 472.316 202.526 414.465C195.709 401.236 190.671 387.502 187.558 373.65C185.008 362.442 183.713 350.937 183.713 339.471C183.713 292.79 188.026 226.867 225.309 193.501C244.371 176.435 270.29 169.595 302.276 173.128L304.827 173.44C318.444 175.211 332.741 178.643 348.7 183.931C350.798 184.625 351.929 186.887 351.235 188.977C350.54 191.068 348.278 192.206 346.188 191.512C330.932 186.45 316.721 183.041 303.959 181.38L301.473 181.076C271.764 177.768 247.927 183.962 230.636 199.452C195.732 230.689 191.699 294.327 191.699 339.471C191.699 350.336 192.931 361.248 195.349 371.895C198.313 385.092 203.118 398.18 209.622 410.807C238.106 466.068 293.492 503.203 347.443 503.203C349.65 503.203 351.435 504.989 351.435 507.196C351.435 509.403 349.651 511.189 347.444 511.189Z" fill="#3A3847"/>
<path d="M347.444 423.333C327.756 423.333 279.555 383.586 279.555 331.484C279.555 279.39 327.756 239.635 347.444 239.635C367.13 239.635 415.333 279.39 415.333 331.484C415.332 383.586 367.129 423.333 347.444 423.333ZM347.444 247.622C331.034 247.622 287.542 285.716 287.542 331.484C287.542 377.26 331.034 415.346 347.444 415.346C363.854 415.346 407.344 377.26 407.344 331.484C407.344 285.716 363.854 247.622 347.444 247.622Z" fill="#3A3847"/>
<path d="M347.444 215.675C345.237 215.675 343.45 213.889 343.45 211.682V187.721C343.45 185.514 345.237 183.728 347.444 183.728C349.651 183.728 351.436 185.514 351.436 187.721V211.682C351.436 213.889 349.651 215.675 347.444 215.675Z" fill="#3A3847"/>
<path d="M339.457 189.188C337.248 189.188 335.463 187.402 335.463 185.195V163.761C335.463 161.553 337.248 159.767 339.457 159.767C341.664 159.767 343.449 161.553 343.449 163.761V185.195C343.449 187.402 341.664 189.188 339.457 189.188Z" fill="#3A3847"/>
<path d="M355.43 167.754H339.457C337.248 167.754 335.463 165.968 335.463 163.761C335.463 161.553 337.248 159.767 339.457 159.767H355.43C357.637 159.767 359.424 161.553 359.424 163.761C359.424 165.968 357.637 167.754 355.43 167.754Z" fill="#3A3847"/>
<path d="M355.43 189.164C353.223 189.164 351.436 187.378 351.436 185.171V163.761C351.436 161.553 353.223 159.767 355.43 159.767C357.637 159.767 359.424 161.553 359.424 163.761V185.171C359.424 187.378 357.637 189.164 355.43 189.164Z" fill="#3A3847"/>
<path d="M222.766 47.795C221.713 47.795 220.668 47.382 219.88 46.563C218.359 44.972 218.413 42.445 220.005 40.917C234.13 27.376 264.441 23.469 265.728 23.305C267.849 23.025 269.908 24.584 270.181 26.777C270.454 28.961 268.902 30.957 266.71 31.23C266.429 31.269 237.742 34.982 225.527 46.681C224.755 47.429 223.757 47.795 222.766 47.795Z" fill="#3A3847"/>
</g>
<defs>
<clipPath id="clip0">
<rect width="511.189" height="511.189" fill="white"/>
</clipPath>
</defs>
</svg>
