<svg width="512" height="512" viewBox="0 0 512 512" fill="none" xmlns="http://www.w3.org/2000/svg">
<path d="M284.884 198H227.235C165.834 198 116.059 247.775 116.059 309.176V390.825C116.06 452.225 165.835 502 227.236 502H284.885C346.286 502 396.061 452.225 396.061 390.824V309.175C396.06 247.775 346.285 198 284.884 198Z" fill="#FFC66C"/>
<path d="M255.932 201.602C286.165 145.232 349.431 106.475 422.683 106.475C422.683 106.475 371.693 147.502 345.287 208.5L255.932 201.602Z" fill="#62CD4D"/>
<path d="M166.714 208.5C140.308 147.502 89.318 106.475 89.318 106.475C162.569 106.475 225.836 145.232 256.069 201.602L166.714 208.5Z" fill="#62CD4D"/>
<path d="M215.731 99.961C215.731 50.231 244.823 10 256.076 10C265.598 10 296.233 50.231 296.233 99.961L256.159 148.56L215.731 99.961Z" fill="#A0E557"/>
<path d="M180.582 127.419C162.163 78.332 129.345 45.652 129.345 45.652C199.449 45.652 256.176 109.989 256.176 189.496L180.582 127.419Z" fill="#A0E557"/>
<path d="M255.985 189.497C255.985 109.989 312.712 45.653 382.816 45.653C382.816 45.653 349.998 78.333 331.579 127.42L255.985 189.497Z" fill="#A0E557"/>
<path d="M432.114 103.152C430.705 99.152 426.925 96.475 422.682 96.475C397.815 96.475 373.599 100.423 351.144 107.992C368.346 74.504 389.619 52.992 389.871 52.739C392.74 49.883 393.603 45.578 392.059 41.836C390.513 38.094 386.865 35.653 382.816 35.653C353.083 35.653 324.848 46.196 301.459 65.705C297.444 51.242 291.532 37.261 284.286 25.277C277.315 13.745 266.762 0 256.082 0C244.571 0 233.888 13.829 226.952 25.43C219.948 37.146 214.24 50.965 210.349 65.414C187.028 46.093 158.93 35.652 129.346 35.652C125.301 35.652 121.658 38.092 120.111 41.829C118.564 45.566 119.423 49.871 122.283 52.731C122.542 52.99 143.843 74.531 161.051 108.056C138.542 100.445 114.257 96.474 89.319 96.474C85.077 96.474 81.297 99.15 79.887 103.151C78.478 107.152 79.745 111.607 83.05 114.266C83.164 114.358 94.682 123.675 109.421 139.906C113.134 143.995 119.459 144.299 123.547 140.586C127.636 136.874 127.941 130.549 124.228 126.461C121.535 123.496 118.943 120.746 116.492 118.222C136.951 120.885 156.298 126.551 173.858 134.811C175.262 136.086 177.001 136.933 178.862 137.261C202.909 149.498 223.311 166.755 238.179 188H227.237C208.155 188 190.092 192.44 174.019 200.331C170.889 193.483 167.346 186.596 163.443 179.8C160.694 175.011 154.584 173.357 149.791 176.108C145.002 178.858 143.35 184.971 146.1 189.76C150.086 196.701 153.642 203.729 156.732 210.683C126.073 232.693 106.062 268.64 106.062 309.177V390.825C106.06 457.641 160.419 512 227.236 512H284.884C351.7 512 406.06 457.641 406.06 390.824V309.176C406.06 268.594 386.004 232.61 355.287 210.607C380.574 153.738 428.471 114.654 428.951 114.266C432.255 111.607 433.523 107.152 432.114 103.152ZM358.786 58.5C348.033 72.629 334.279 93.615 323.989 119.353C322.092 120.318 320.212 121.309 318.353 122.333C299.053 132.96 282.181 146.554 268.386 162.46C277.73 110.473 313.466 69.395 358.786 58.5ZM347.496 229.756L324.842 252.41L280.432 208H284.884C308.505 208 330.259 216.138 347.496 229.756ZM256.425 461.463L200.249 405.287L256.425 349.111L312.601 405.287L256.425 461.463ZM186.106 391.145L131.832 336.871L188.008 280.695L242.282 334.969L186.106 391.145ZM202.15 266.552L256.424 212.278L310.698 266.552L256.424 320.827L202.15 266.552ZM255.741 20.804C262.226 26.403 278.332 49.205 284.8 82.09C272.331 96.47 262.653 113.132 256.081 131.239C249.463 113.003 239.694 96.231 227.097 81.782C233.223 49.582 248.667 26.206 255.741 20.804ZM193.649 122.333C191.857 121.346 190.043 120.392 188.214 119.46C177.919 93.674 164.143 72.648 153.375 58.5C198.766 69.413 234.545 110.603 243.822 162.707C229.988 146.695 213.047 133.013 193.649 122.333ZM232.417 208L188.008 252.409L165.033 229.434C182.204 216.011 203.801 208 227.236 208H232.417ZM150.557 243.243L173.866 266.552L126.06 314.357V309.175C126.06 284.011 135.297 260.964 150.557 243.243ZM126.06 359.384L171.964 405.288L138.273 438.979C130.487 424.652 126.061 408.245 126.061 390.824L126.06 359.384ZM149.743 455.794L186.107 419.43L242.283 475.606L225.974 491.915C225.952 491.937 225.933 491.962 225.911 491.984C195.371 491.589 168.052 477.598 149.743 455.794ZM284.884 492H254.173L326.743 419.43L362.712 455.399C344.138 477.746 316.146 492 284.884 492ZM374.1 438.501L340.886 405.287L386.06 360.113V390.824C386.06 408.053 381.727 424.287 374.1 438.501ZM386.06 309.176V331.828L326.743 391.145L270.567 334.969L324.842 280.694L337.354 293.206C339.307 295.158 341.866 296.135 344.425 296.135C346.984 296.135 349.543 295.158 351.496 293.206C355.401 289.301 355.401 282.969 351.496 279.063L338.984 266.551L361.898 243.638C376.956 261.307 386.06 284.196 386.06 309.176ZM338.004 200.282C321.955 192.421 303.927 188 284.884 188H273.821C288.672 166.782 309.042 149.542 333.051 137.308C335.075 137.004 336.965 136.078 338.456 134.665C355.915 126.493 375.132 120.882 395.444 118.231C378.316 135.846 354.38 164.436 338.004 200.282Z" fill="black"/>
<path d="M136.635 167.222C138.718 167.222 140.819 166.574 142.615 165.23C147.038 161.923 147.943 155.656 144.636 151.233L144.519 151.076C141.211 146.652 134.946 145.747 130.522 149.055C126.099 152.362 125.194 158.629 128.501 163.052L128.618 163.209C130.583 165.836 133.589 167.222 136.635 167.222Z" fill="black"/>
<path d="M359.94 301.649C358.08 303.509 357.01 306.089 357.01 308.719C357.01 311.349 358.079 313.929 359.94 315.789C361.8 317.648 364.379 318.719 367.01 318.719C369.64 318.719 372.22 317.649 374.079 315.789C375.939 313.929 377.01 311.349 377.01 308.719C377.01 306.089 375.94 303.509 374.079 301.649C372.22 299.79 369.64 298.719 367.01 298.719C364.379 298.72 361.8 299.79 359.94 301.649Z" fill="black"/>
<path d="M263.129 261.66C261.27 259.8 258.69 258.729 256.06 258.729C253.43 258.729 250.85 259.799 248.99 261.66C247.13 263.519 246.06 266.099 246.06 268.74C246.06 271.37 247.129 273.939 248.99 275.809C250.85 277.669 253.43 278.74 256.06 278.74C258.69 278.74 261.26 277.67 263.129 275.809C264.989 273.939 266.06 271.37 266.06 268.74C266.06 266.1 264.99 263.53 263.129 261.66Z" fill="black"/>
<path d="M263.129 399.91C261.27 398.05 258.69 396.979 256.06 396.979C253.43 396.979 250.85 398.049 248.99 399.91C247.13 401.769 246.06 404.349 246.06 406.979C246.06 409.62 247.129 412.189 248.99 414.049C250.851 415.909 253.43 416.979 256.06 416.979C258.69 416.979 261.27 415.919 263.129 414.049C264.989 412.189 266.06 409.609 266.06 406.979C266.06 404.349 264.99 401.77 263.129 399.91Z" fill="black"/>
<path d="M185.81 328.359C183.18 328.359 180.6 329.429 178.74 331.29C176.88 333.149 175.81 335.729 175.81 338.359C175.81 340.99 176.879 343.569 178.74 345.429C180.601 347.289 183.18 348.359 185.81 348.359C188.44 348.359 191.02 347.29 192.879 345.429C194.739 343.569 195.81 340.99 195.81 338.359C195.81 335.729 194.74 333.149 192.879 331.29C191.02 329.43 188.44 328.359 185.81 328.359Z" fill="black"/>
<path d="M327.04 328.359C324.41 328.359 321.83 329.429 319.971 331.29C318.111 333.149 317.04 335.729 317.04 338.359C317.04 340.99 318.11 343.569 319.971 345.429C321.83 347.289 324.41 348.359 327.04 348.359C329.67 348.359 332.25 347.29 334.11 345.429C335.97 343.568 337.04 340.99 337.04 338.359C337.04 335.729 335.971 333.149 334.11 331.29C332.25 329.43 329.669 328.359 327.04 328.359Z" fill="black"/>
<path d="M327.03 451.939C324.39 451.939 321.82 453.009 319.95 454.87C318.09 456.729 317.03 459.309 317.03 461.939C317.03 464.569 318.09 467.149 319.95 469.009C321.82 470.869 324.39 471.939 327.03 471.939C329.66 471.939 332.23 470.87 334.1 469.009C335.959 467.139 337.03 464.569 337.03 461.939C337.03 459.309 335.96 456.729 334.1 454.87C332.24 453.01 329.66 451.939 327.03 451.939Z" fill="black"/>
<path d="M192.87 454.87C191.011 453.01 188.431 451.939 185.801 451.939C183.16 451.939 180.59 453 178.721 454.87C176.861 456.729 175.801 459.3 175.801 461.939C175.801 464.569 176.861 467.149 178.721 469.009C180.59 470.869 183.16 471.939 185.801 471.939C188.431 471.939 191.011 470.87 192.87 469.009C194.73 467.149 195.79 464.569 195.79 461.939C195.79 459.3 194.73 456.729 192.87 454.87Z" fill="black"/>
</svg>
