<svg width="512" height="512" viewBox="0 0 512 512" fill="none" xmlns="http://www.w3.org/2000/svg">
<path d="M321.409 96.63C321.409 96.63 327.11 82.684 321.409 61.048C360.661 70.142 369.889 96.63 369.889 96.63L378.228 132.503L319.629 126.503L321.409 96.63Z" fill="#FAE196"/>
<path d="M198.006 305.182C198.006 258.71 220.692 217.33 256.011 190.639C244.453 181.902 231.543 174.736 217.628 169.485C208.573 166.068 202.343 157.651 201.922 147.982C201.128 129.708 204.034 101.604 226.843 88.857C214.072 82.136 195.651 91.087 184.254 98.227C177.648 87.652 161.547 69.034 127.069 61.048C130.821 75.288 130.656 86.878 129.641 94.714C121.929 90.918 109.429 85.505 90.928 79.519C111.439 103.182 113.59 125.547 110.12 142.594C106.875 158.537 96.973 172.451 82.932 180.668C39.198 206.265 10 252.451 10 305.182C10 385.69 78.052 450.955 161.998 450.955C197.487 450.955 230.134 439.288 256.001 419.739C220.682 393.045 198.006 351.654 198.006 305.182Z" fill="#FF5A5A"/>
<path d="M327.696 100.27C327.696 100.27 314.208 90.932 278.933 79.519C299.444 103.182 301.595 125.547 298.125 142.594C294.88 158.537 284.978 172.451 270.937 180.668C227.204 206.264 198.005 252.45 198.005 305.181C198.005 385.689 266.057 450.954 350.003 450.954C433.949 450.954 502 385.689 502 305.182C502 243.506 462.06 190.779 405.632 169.485C396.577 166.068 390.347 157.651 389.926 147.982C389.132 129.708 392.038 101.604 414.847 88.857C395.134 78.482 361.933 105.458 361.933 105.458" fill="#FAE196"/>
<path d="M330.475 192.06C322.965 183.747 309.217 185.611 304.58 195.809C301.499 202.585 296.368 208.509 289.456 212.555C255.363 232.509 235.008 267.006 235.008 304.833C235.008 364.616 286.438 413.254 349.654 413.254C412.87 413.254 464.3 364.616 464.3 304.833C464.3 260.181 435.958 220.633 392.097 204.082V239.734C392.097 256.12 387.14 272.122 377.878 285.639C368.616 299.156 363.659 315.159 363.659 331.544V360.341L348.544 335.751C336.218 315.699 334.343 290.927 343.509 269.248C354.537 243.172 349.453 213.069 330.475 192.06Z" fill="#FF8C8C"/>
<path d="M408.017 395.446L401.19 387.891C394.622 380.622 390.985 371.174 390.985 361.377C390.985 355.468 393.881 349.934 398.736 346.566C402.915 343.667 408.124 342.668 413.079 343.815L430.215 347.784L454.222 349.275L408.017 395.446Z" fill="#FF5A5A"/>
<path d="M378.228 285.987L390.157 297.085C398.298 304.659 411.075 304.06 418.471 295.757C423.215 290.432 424.733 282.969 422.448 276.213L416.723 259.289L393.702 250L378.228 285.987Z" fill="#FF5A5A"/>
<path d="M289.804 212.904L301.168 234.258C307.279 245.741 321.403 250.298 333.073 244.551L349.454 236.484L331.885 193.681L310.328 186.376L289.804 212.904Z" fill="#FF5A5A"/>
<path d="M244.348 265.237L262.628 272.238C271.624 275.683 281.698 274.864 290.019 270.01C297.517 265.636 302.901 258.387 304.92 249.945L306.962 241.408L282.872 216.704L244.348 265.237Z" fill="#FF5A5A"/>
<path d="M393.701 242.634L402.91 253.061C406.408 257.022 411.438 259.29 416.722 259.29C425.171 259.29 432.538 253.544 434.595 245.35L437.329 234.461L392.099 204.082L393.701 242.634Z" fill="#FF5A5A"/>
<path d="M364.009 349.277H385.184C390.655 349.277 395.92 347.19 399.905 343.441C405.604 338.08 407.938 330.045 405.998 322.465L400.861 302.397L378.228 285.987L359.297 316.184L364.009 349.277Z" fill="#FF5A5A"/>
<path d="M321.103 373.113L335.836 379.716C340.475 381.795 345.832 381.508 350.222 378.945C357.224 374.857 359.981 366.123 356.593 358.756L352.681 350.248L343.183 343.963L326.995 358L319.263 364L321.103 373.113Z" fill="#FF5A5A"/>
<path d="M276.339 387.696L278.312 368.739C279.016 361.971 283.335 356.117 289.594 353.447C294.151 351.503 299.292 351.442 303.893 353.279L306.823 354.449C312.088 356.551 316.119 360.925 317.784 366.344C320.957 376.667 318.964 387.885 312.43 396.483L306.092 404.824L276.339 387.696Z" fill="#FF5A5A"/>
<path d="M267.606 328.886C283.889 328.886 297.089 316.677 297.089 301.616C297.089 286.555 283.889 274.346 267.606 274.346C251.323 274.346 238.123 286.555 238.123 301.616C238.123 316.677 251.323 328.886 267.606 328.886Z" fill="#FF5A5A"/>
<path d="M316.495 356.154C331.235 356.154 343.185 345.1 343.185 331.465C343.185 317.83 331.235 306.776 316.495 306.776C301.755 306.776 289.805 317.83 289.805 331.465C289.805 345.1 301.755 356.154 316.495 356.154Z" fill="#FF5A5A"/>
<path d="M318.646 306.778C331.037 305.369 339.795 292.912 338.208 278.956C336.621 264.999 325.289 254.827 312.898 256.236C300.506 257.645 291.748 270.102 293.335 284.059C294.923 298.016 306.254 308.188 318.646 306.778Z" fill="#FF5A5A"/>
<path d="M434.543 348.115C450.062 348.115 462.643 335.534 462.643 320.015C462.643 304.496 450.062 291.915 434.543 291.915C419.024 291.915 406.443 304.496 406.443 320.015C406.443 335.534 419.024 348.115 434.543 348.115Z" fill="#FF5A5A"/>
<path d="M483.079 216.329C464.652 190.856 439.093 171.424 409.163 160.13C403.79 158.102 400.162 153.163 399.917 147.548C399.164 130.227 401.989 107.498 419.726 97.587C422.928 95.798 424.893 92.399 424.847 88.732C424.801 85.065 422.751 81.717 419.505 80.008C405.485 72.632 388.189 78.206 375.078 85.032C368.676 74.906 353.953 58.323 323.665 51.307C320.252 50.519 316.672 51.569 314.232 54.085C311.792 56.6 310.845 60.208 311.738 63.597C313.676 70.952 314.098 77.173 313.918 81.973C306.036 78.504 295.538 74.383 282.01 70.006C277.74 68.628 273.071 70.258 270.593 74C268.115 77.743 268.435 82.679 271.375 86.07C286.447 103.459 292.15 121.805 288.325 140.601C285.637 153.806 277.458 165.266 265.885 172.039C262.507 174.016 259.219 176.124 256.007 178.33C245.189 170.905 233.491 164.784 221.158 160.129C215.785 158.103 212.157 153.164 211.912 147.548C211.159 130.227 213.984 107.498 231.721 97.587C234.923 95.798 236.888 92.399 236.842 88.733C236.796 85.065 234.746 81.717 231.501 80.009C217.74 72.765 200.879 77.842 187.085 85.069C177.521 73.356 159.888 58.386 129.327 51.307C125.913 50.514 122.334 51.571 119.894 54.085C117.454 56.6 116.507 60.208 117.4 63.597C118.946 69.466 119.74 74.802 120.069 79.483C113.162 76.644 104.523 73.409 94.006 70.006C89.738 68.629 85.067 70.259 82.589 74.001C80.111 77.744 80.431 82.68 83.371 86.071C98.443 103.46 104.146 121.806 100.321 140.602C97.633 153.807 89.454 165.267 77.881 172.04C54.581 185.677 35.08 204.894 21.486 227.617C7.429 251.107 0 277.929 0 305.182C0 391.076 72.672 460.954 161.997 460.954C196.119 460.954 228.512 450.963 256.057 432.015C282.572 450.227 315.008 460.954 350.003 460.954C379.377 460.954 408.149 453.314 433.212 438.862C437.996 436.103 439.638 429.988 436.879 425.204C434.119 420.42 428.005 418.776 423.22 421.536C401.191 434.239 375.873 440.954 350.002 440.954C271.704 440.954 208.004 380.047 208.004 305.182C208.004 257.535 233.419 214.213 275.987 189.299C292.462 179.656 304.102 163.36 307.922 144.589C310.315 132.831 310.688 116.85 303.145 99.102C316.209 104.655 321.88 108.412 322.043 108.521C326.579 111.629 332.781 110.489 335.916 105.963C339.06 101.422 337.927 95.192 333.387 92.049C333.339 92.016 333.193 91.916 332.964 91.767C333.686 87.649 334.205 82.208 333.838 75.644C347.878 81.903 354.996 90.541 358.213 95.687C356.972 96.619 356.085 97.326 355.628 97.697C351.341 101.179 350.69 107.477 354.172 111.763C357.655 116.049 363.953 116.701 368.239 113.218C372.851 109.471 381.304 103.888 389.801 100.211C382.524 112.769 379.099 129.149 379.936 148.416C380.529 162.04 389.229 173.982 402.102 178.841C456.713 199.449 492.001 249.04 492.001 305.182C492.001 328.451 485.743 351.403 473.904 371.559C471.107 376.321 472.7 382.449 477.462 385.247C479.053 386.181 480.796 386.626 482.518 386.626C485.948 386.626 489.287 384.859 491.15 381.688C504.79 358.463 512 332.007 512 305.181C512 273.208 501.999 242.483 483.079 216.329ZM209.49 227.615C195.434 251.107 188.005 277.929 188.005 305.182C188.005 350.039 207.834 390.522 239.496 418.971C216.465 433.385 189.899 440.954 161.997 440.954C83.7 440.954 20 380.047 20 305.182C20 257.535 45.415 214.213 87.983 189.299C104.459 179.656 116.099 163.36 119.92 144.589C122.313 132.829 122.687 116.846 115.14 99.094C119.276 100.85 122.619 102.404 125.226 103.687C128.121 105.114 131.526 105.053 134.37 103.528C137.214 102.003 139.147 99.199 139.561 95.999C140.221 90.895 140.615 83.868 139.791 75.395C160.627 83.574 171.079 96.009 175.774 103.527C177.18 105.778 179.424 107.379 182.011 107.974C184.596 108.568 187.315 108.113 189.565 106.703C193.875 104.003 198 101.812 201.828 100.162C194.531 112.726 191.096 129.125 191.934 148.417C192.527 162.041 201.227 173.983 214.1 178.841C222.961 182.185 231.445 186.392 239.439 191.377C227.678 201.943 217.542 214.158 209.49 227.615Z" fill="black"/>
<path d="M451.627 400.007L451.396 400.234C447.445 404.092 447.371 410.423 451.229 414.375C453.188 416.381 455.785 417.388 458.384 417.388C460.904 417.388 463.426 416.442 465.37 414.541L465.644 414.273C469.583 410.402 469.639 404.071 465.768 400.131C461.897 396.192 455.566 396.136 451.627 400.007Z" fill="black"/>
<path d="M358.832 233.014C357.157 215.6 350.021 198.782 337.894 185.358C332.033 178.871 323.365 175.8 314.704 177.143C306.2 178.463 299.011 183.894 295.475 191.671C293.135 196.817 289.307 201.056 284.403 203.925C247.211 225.694 225.007 263.415 225.007 304.833C225.007 370.131 280.923 423.254 349.653 423.254C356.097 423.254 362.428 422.787 368.611 421.887C368.63 421.884 368.648 421.881 368.667 421.878C428.405 413.154 474.3 363.99 474.3 304.833C474.3 276.596 463.967 250.254 446.031 229.556C445.316 228.287 444.327 227.178 443.12 226.318C430.433 212.714 414.334 201.784 395.628 194.725C392.555 193.567 389.11 193.99 386.41 195.856C383.709 197.724 382.097 200.798 382.097 204.082V239.733C382.097 254.164 377.785 268.083 369.629 279.986C360.473 293.347 355.1 308.691 353.911 324.721C346.211 308.603 345.69 289.767 352.72 273.141C357.388 262.102 359.495 250.375 359.185 238.776C359.627 236.911 359.536 234.91 358.832 233.014ZM373.661 331.544C373.661 321.088 375.936 310.906 380.285 301.56L383.345 304.407C386.079 306.951 389.196 308.919 392.553 310.267L396.31 324.945C397.347 328.997 396.099 333.293 393.054 336.158C390.914 338.17 388.12 339.278 385.184 339.278H373.661V331.544ZM409.206 268.276L412.975 279.418C414.105 282.76 413.35 286.473 411.003 289.106C409.23 291.096 406.787 292.261 404.124 292.386C401.469 292.508 398.92 291.579 396.968 289.764L390.675 283.909C394.331 277.32 397.146 270.351 399.06 263.125C402.068 265.51 405.519 267.264 409.206 268.276ZM440.694 256.129C446.314 265.441 450.322 275.652 452.472 286.415C447.124 283.549 441.018 281.918 434.538 281.918C434.178 281.918 433.823 281.935 433.465 281.945C433.405 278.943 432.907 275.929 431.919 273.008L429.611 266.184C434.116 263.894 437.956 260.434 440.694 256.129ZM428.972 337.233C421.708 334.879 416.438 328.056 416.438 320.018C416.438 310.038 424.558 301.918 434.538 301.918C444.518 301.918 452.638 310.037 452.638 320.018C452.638 329.999 444.518 338.118 434.538 338.118C433.604 338.118 432.693 338.025 431.796 337.888L428.972 337.233ZM327.826 365.168C327.769 364.949 327.707 364.731 327.646 364.513C333.894 362.623 339.42 359.194 343.719 354.694L347.509 362.934C348.753 365.638 347.752 368.809 345.182 370.309C343.582 371.244 341.618 371.347 339.927 370.591L327.826 365.168ZM286.83 383.493L288.258 369.774C288.586 366.621 290.602 363.888 293.518 362.644C295.657 361.731 298.025 361.703 300.187 362.567L300.688 362.767C301.558 363.161 302.449 363.517 303.355 363.847C305.7 364.866 307.471 366.827 308.226 369.282C310.447 376.508 309.042 384.414 304.468 390.433L302.693 392.769C297.1 390.117 291.793 387.009 286.83 383.493ZM316.494 346.157C314.422 346.157 312.445 345.808 310.613 345.198C310.584 345.186 310.557 345.173 310.528 345.161L308.459 344.335C303.305 341.832 299.804 337.005 299.804 331.468C299.804 323.88 306.375 317.619 314.771 316.858C315.299 316.886 315.83 316.901 316.362 316.901C316.937 316.901 317.514 316.884 318.093 316.85C326.547 317.561 333.183 323.843 333.183 331.467C333.183 339.568 325.696 346.157 316.494 346.157ZM325.489 291.815C323.497 294.649 320.728 296.411 317.679 296.809C317.285 296.797 316.891 296.781 316.494 296.781C316.01 296.781 315.53 296.798 315.051 296.816C309.157 296.072 304.117 290.36 303.272 282.925C302.781 278.609 303.77 274.442 306.056 271.191C308.084 268.306 310.916 266.523 314.029 266.169C314.422 266.125 314.812 266.103 315.2 266.103C321.631 266.103 327.367 272.109 328.274 280.082C328.764 284.397 327.775 288.564 325.489 291.815ZM267.607 284.341C278.35 284.341 287.09 292.089 287.09 301.613C287.09 311.137 278.35 318.885 267.607 318.885C256.864 318.885 248.124 311.137 248.124 301.613C248.124 292.089 256.864 284.341 267.607 284.341ZM365.615 376.308C366.636 374.14 367.345 371.838 367.727 369.471C371.293 367.884 373.661 364.332 373.661 360.341V359.277H381.074C381.022 359.974 380.986 360.673 380.986 361.378C380.986 373.506 385.41 385.143 393.44 394.213C388.512 396.357 383.381 398.154 378.078 399.564C376.976 390.565 372.513 382.209 365.615 376.308ZM337.5 255.584C337.017 255.106 336.525 254.641 336.017 254.194C336.51 253.979 337.002 253.761 337.489 253.521L338.008 253.266C337.855 254.041 337.685 254.813 337.5 255.584ZM313.683 199.948C314.708 197.694 316.685 197.075 317.772 196.906C318.004 196.87 318.324 196.836 318.702 196.836C319.873 196.836 321.607 197.162 323.054 198.764C331.29 207.881 336.487 219.062 338.398 230.782L328.655 235.58C323.564 238.086 317.746 237.275 313.61 233.937C313.533 233.868 313.448 233.807 313.369 233.74C312.029 232.609 310.874 231.209 309.996 229.559L302.441 215.362C307.175 211.07 310.996 205.859 313.683 199.948ZM285.877 226.809L292.34 238.955C293.39 240.928 294.612 242.743 295.96 244.418L295.194 247.619C293.817 253.376 290.093 258.39 284.979 261.373C279.246 264.719 272.402 265.274 266.203 262.899L256.807 259.301C263.762 246.762 273.609 235.663 285.877 226.809ZM250.034 334.976C255.33 337.472 261.296 338.885 267.607 338.885C272.032 338.885 276.285 338.184 280.26 336.91C280.769 339.949 281.702 342.855 282.991 345.579C275.102 349.966 269.689 357.846 268.482 366.873C260.374 357.509 254.061 346.721 250.034 334.976ZM322.271 399.829C324.823 395.879 326.692 391.574 327.849 387.094L331.747 388.841C335.098 390.343 338.689 391.087 342.273 391.087C344.966 391.087 347.653 390.658 350.232 389.823C354.983 392.543 357.996 397.535 358.315 402.916C355.458 403.137 352.572 403.255 349.655 403.255C340.183 403.255 331.003 402.058 322.271 399.829ZM411.383 384.255L408.61 381.187C403.693 375.746 400.985 368.709 400.985 361.376C400.985 358.746 402.275 356.281 404.436 354.781C406.293 353.493 408.62 353.044 410.823 353.556L423.765 356.554C425.44 357.049 427.16 357.436 428.922 357.698C428.951 357.702 428.981 357.706 429.01 357.709C430.816 357.973 432.661 358.115 434.538 358.115C435.604 358.115 436.656 358.06 437.7 357.973C430.712 368.181 421.771 377.095 411.383 384.255ZM426.226 237.615L424.895 242.915C423.953 246.668 420.592 249.29 416.722 249.29C414.307 249.29 412.004 248.252 410.405 246.44L402.098 237.035V219.617C411.161 224.531 419.262 230.614 426.226 237.615Z" fill="black"/>
<path d="M114.486 389.912C80.877 373.218 59.999 340.752 59.999 305.181C59.999 283.071 68.13 261.571 82.895 244.642C86.525 240.479 86.094 234.163 81.931 230.533C77.769 226.903 71.452 227.335 67.822 231.496C49.88 252.069 39.999 278.237 39.999 305.181C39.999 348.398 65.132 387.729 105.59 407.823C107.019 408.533 108.536 408.869 110.03 408.869C113.708 408.869 117.247 406.833 118.994 403.315C121.451 398.37 119.432 392.369 114.486 389.912Z" fill="black"/>
<path d="M103.105 225.215C104.787 225.215 106.492 224.79 108.057 223.896C108.074 223.886 108.104 223.869 108.128 223.855C112.899 221.107 114.533 215.025 111.798 210.241C109.058 205.446 102.93 203.794 98.134 206.531C93.339 209.271 91.673 215.38 94.413 220.175C96.259 223.404 99.633 225.215 103.105 225.215Z" fill="black"/>
</svg>
