<svg width="512" height="512" viewBox="0 0 512 512" fill="none" xmlns="http://www.w3.org/2000/svg">
<path d="M349.904 70.799C288.91 78.862 142.13 96.341 153.58 182.958C175.554 349.169 530.596 416.425 500.123 185.936C490.438 112.671 423.169 61.112 349.904 70.799Z" fill="#FFD07D"/>
<path d="M215.583 187.602C268.97 218.182 398.175 289.99 354.749 365.804C271.419 511.284 -82.623 438.957 32.932 237.214C69.664 173.088 151.456 150.87 215.583 187.602Z" fill="#FFD07D"/>
<path d="M510.034 184.626C505 146.545 485.433 112.7 454.938 89.327C424.443 65.952 386.676 55.857 348.595 60.888L344.773 61.392C283.785 69.415 158.164 85.952 144.214 160.033C96.104 161.735 49.895 187.49 24.258 232.246C-12.281 296.039 -0.841002 342.257 15.19 369.796C30.206 395.592 56.051 416.999 89.928 431.701C121.11 445.234 157.029 452.376 193.874 452.375C194.226 452.375 194.582 452.375 194.934 452.373C271.362 452.09 334.35 421.583 363.427 370.768C368.376 362.119 371.515 353.295 372.863 344.318C419.115 343.528 457.714 328.164 482.007 300.732C507.051 272.451 516.481 233.387 510.034 184.626ZM467.039 287.477C446.583 310.576 413.295 323.513 372.926 324.312C370.961 310.365 364.853 296.112 354.604 281.635C339.846 260.788 317.013 240.039 284.804 218.203C280.233 215.105 274.017 216.298 270.919 220.868C267.821 225.438 269.015 231.654 273.584 234.753C342.733 281.632 367.122 324.053 346.073 360.838C320.586 405.379 264.058 432.123 194.86 432.379C194.532 432.381 194.215 432.381 193.887 432.381C122.592 432.378 57.801 403.252 32.469 359.737C13.279 326.771 16.439 286.122 41.607 242.183C75.546 182.931 151.362 162.336 210.616 196.276C215.406 199.018 221.515 197.361 224.259 192.57C227.003 187.779 225.344 181.67 220.553 178.926C202.776 168.745 183.715 162.799 164.541 160.752C170.565 137.479 194.001 118.574 234.361 104.503C273.145 90.981 317.82 85.103 347.382 81.213L351.216 80.708C384.004 76.366 416.519 85.068 442.777 105.193C469.034 125.319 485.881 154.457 490.216 187.244C495.867 230.005 488.069 263.729 467.039 287.477Z" fill="black"/>
<path d="M247.113 194.309L241.913 202.844L247.11 194.307C247.097 194.299 247.086 194.29 247.073 194.283C242.362 191.442 236.236 192.942 233.373 197.647C230.502 202.364 231.998 208.514 236.714 211.384C236.852 211.468 236.991 211.55 237.129 211.628C238.684 212.506 240.372 212.924 242.038 212.924C245.525 212.924 248.912 211.097 250.75 207.845C253.44 203.087 251.807 197.065 247.113 194.309Z" fill="black"/>
<path d="M247.115 194.307H247.111V194.309H247.115V194.307Z" fill="black"/>
<path d="M454.335 146.572C443.77 130.464 428.95 117.615 411.475 109.418C393.516 100.993 373.585 97.92 353.834 100.53C348.361 101.255 344.51 106.278 345.234 111.751C345.958 117.225 350.987 121.074 356.455 120.352C388.184 116.156 420.048 130.751 437.614 157.536C444.542 168.101 448.9 179.86 450.571 192.487C451.236 197.516 455.529 201.175 460.469 201.174C460.906 201.174 461.348 201.146 461.792 201.087C467.266 200.362 471.116 195.339 470.392 189.866C468.325 174.236 462.923 159.669 454.335 146.572Z" fill="black"/>
<path d="M404.621 216.203L404.15 216.266C398.677 216.994 394.83 222.019 395.556 227.492C396.224 232.518 400.517 236.174 405.453 236.174C405.891 236.174 406.335 236.146 406.782 236.086L407.253 236.023C412.726 235.295 416.573 230.27 415.847 224.797C415.12 219.324 410.096 215.473 404.621 216.203Z" fill="black"/>
<path d="M310.715 165.588L310.244 165.651C304.771 166.378 300.924 171.404 301.65 176.876C302.318 181.902 306.611 185.558 311.547 185.558C311.986 185.558 312.429 185.53 312.876 185.47L313.347 185.407C318.82 184.68 322.667 179.654 321.941 174.182C321.214 168.709 316.19 164.86 310.715 165.588Z" fill="black"/>
<path d="M204.383 227.268C207.127 222.477 205.469 216.368 200.677 213.624C183.391 203.723 163.782 199.022 143.968 200.003C124.691 200.968 106.107 207.239 90.223 218.142C77.31 227.008 66.791 238.441 58.956 252.119C56.212 256.91 57.87 263.019 62.662 265.763C64.229 266.66 65.936 267.087 67.621 267.087C71.088 267.087 74.458 265.281 76.305 262.058C82.635 251.007 91.125 241.776 101.54 234.626C127.949 216.498 162.963 215.065 190.74 230.975C195.532 233.716 201.64 232.059 204.383 227.268Z" fill="black"/>
<path d="M110.251 301.656L109.839 301.42C105.051 298.674 98.941 300.328 96.194 305.119C93.447 309.908 95.103 316.018 99.893 318.764L100.305 319C101.873 319.899 103.582 320.327 105.268 320.327C108.733 320.327 112.102 318.523 113.949 315.302C116.696 310.512 115.04 304.402 110.251 301.656Z" fill="black"/>
<path d="M170.201 369.488L169.789 369.252C165 366.505 158.891 368.161 156.143 372.951C153.397 377.74 155.052 383.85 159.842 386.596L160.254 386.832C161.821 387.731 163.531 388.159 165.217 388.159C168.682 388.159 172.051 386.355 173.898 383.134C176.647 378.343 174.99 372.234 170.201 369.488Z" fill="black"/>
<path d="M216.333 290.409L215.921 290.173C211.131 287.426 205.022 289.082 202.276 293.872C199.53 298.661 201.185 304.771 205.975 307.517L206.387 307.753C207.955 308.652 209.664 309.08 211.35 309.08C214.815 309.08 218.184 307.276 220.031 304.055C222.779 299.265 221.123 293.155 216.333 290.409Z" fill="black"/>
<path d="M265.385 357.651C262.639 362.44 264.294 368.55 269.084 371.296L269.496 371.532C271.063 372.431 272.773 372.859 274.459 372.859C277.924 372.859 281.293 371.055 283.14 367.834C285.886 363.045 284.231 356.935 279.441 354.189L279.029 353.953C274.242 351.206 268.131 352.861 265.385 357.651Z" fill="black"/>
</svg>
