<svg width="512" height="512" viewBox="0 0 512 512" fill="none" xmlns="http://www.w3.org/2000/svg">
<g clip-path="url(#clip0)">
<path d="M261.831 425.759C222.278 466.037 159.586 472.283 112.866 440.604C102.611 433.668 90.914 429.18 78.654 427.465C60.123 423.702 40.927 429.214 27.207 442.225C41.191 426.637 46.335 405.026 40.858 384.806C38.87 374.389 34.775 364.492 28.828 355.713C-2.816 308.498 3.258 245.517 43.332 205.213C43.656 204.829 44.032 204.488 44.441 204.189C66.009 182.723 95.145 170.591 125.578 170.403C156.429 170.292 186.017 182.62 207.654 204.615L259.783 257.341C305.992 303.644 306.905 378.34 261.831 425.759Z" fill="#AD1457"/>
<path d="M222.756 451.355C222.381 451.747 221.98 452.114 221.562 452.464C208.133 457.856 193.8 460.663 179.33 460.74C155.646 460.953 132.456 453.923 112.868 440.605C102.613 433.669 90.916 429.181 78.656 427.466C60.125 423.703 40.929 429.215 27.209 442.226C41.193 426.638 46.337 405.027 40.86 384.807C38.872 374.39 34.777 364.493 28.83 355.714C-2.814 308.499 3.26 245.518 43.334 205.214C43.658 204.83 44.034 204.489 44.443 204.19C87.281 187.05 136.228 197.305 168.58 230.212L220.794 282.938C266.984 329.265 267.855 403.961 222.756 451.355Z" fill="#E91E63"/>
<path d="M179.38 469.271C153.93 469.527 129.017 461.968 108.003 447.609C98.831 441.432 88.371 437.431 77.417 435.903C61.574 432.482 45.056 437.097 33.274 448.223V448.232C29.947 451.568 24.546 451.576 21.202 448.258C17.883 444.948 17.849 439.573 21.142 436.228L21.176 436.185C33.052 422.568 37.301 403.901 32.498 386.479C30.715 377.205 27.08 368.383 21.799 360.551C-12.312 310 -5.819 242.369 37.267 199.215C81.803 153.485 153.854 149.219 203.474 189.386C207.049 192.261 210.453 195.333 213.678 198.592L265.244 250.747L265.85 251.353C315.027 301.11 315.931 380.882 267.898 431.749L267.889 431.758C244.606 455.603 212.722 469.118 179.38 469.271ZM67.068 418.072C71.351 418.081 75.625 418.396 79.866 419.011C93.423 420.922 106.366 425.896 117.713 433.575C161.029 462.907 219.113 457.097 255.766 419.771C290.712 383.4 296.753 328.054 270.475 285.003C265.8 277.128 260.169 269.851 253.727 263.332L201.606 210.614C198.825 207.799 195.881 205.145 192.801 202.662C149.997 167.989 87.809 171.692 49.416 211.202C12.047 248.537 6.382 307.091 35.868 350.901C42.48 360.627 47.028 371.599 49.229 383.151C51.951 395.386 51.882 408.064 49.033 420.273C54.927 418.78 60.985 418.038 67.068 418.072Z" fill="black"/>
<path d="M258.939 326.791C256.661 326.8 254.477 325.887 252.873 324.257L204.361 275.199C201.051 271.846 201.076 266.445 204.429 263.135C207.782 259.825 213.183 259.85 216.493 263.203L265.005 312.261C268.315 315.614 268.29 321.015 264.937 324.325C263.341 325.904 261.183 326.782 258.939 326.791Z" fill="black"/>
<path d="M246.628 363.759C244.35 363.768 242.166 362.855 240.562 361.225L192.042 312.167C188.732 308.814 188.757 303.413 192.11 300.103C195.463 296.793 200.864 296.818 204.174 300.171L252.694 349.229C256.004 352.582 255.979 357.983 252.626 361.293C251.03 362.88 248.88 363.759 246.628 363.759Z" fill="black"/>
<path d="M112.96 302.714C110.682 302.723 108.498 301.81 106.894 300.18L58.382 251.122C55.072 247.769 55.097 242.368 58.45 239.058C61.803 235.748 67.204 235.773 70.514 239.126L119.026 288.184C122.336 291.537 122.311 296.938 118.958 300.248C117.354 301.827 115.204 302.714 112.96 302.714Z" fill="black"/>
<path d="M100.649 339.691C98.371 339.7 96.187 338.787 94.583 337.157L46.071 288.099C42.761 284.746 42.786 279.345 46.139 276.035C49.492 272.725 54.893 272.75 58.203 276.103L106.715 325.161C110.025 328.514 110 333.915 106.647 337.225C105.052 338.804 102.893 339.691 100.649 339.691Z" fill="black"/>
<path d="M317.8 244.459L320.871 245.995L319.847 246.251L303.551 249.066C306.248 243.896 312.587 241.849 317.8 244.459Z" fill="#558B30"/>
<path d="M384.348 173.219C395.985 185.181 395.917 204.266 384.177 216.134C379.587 220.801 373.589 223.83 367.113 224.751C368.623 215.281 365.552 205.657 358.837 198.814L355.595 195.572C351.372 191.263 351.44 184.353 355.749 180.129C356.867 179.028 358.215 178.184 359.691 177.655L380.85 169.976C380.935 169.976 380.935 169.976 381.021 169.891L381.106 169.976L384.348 173.219Z" fill="#558B30"/>
<path d="M434.429 95.324C430.308 72.194 408.219 56.777 385.081 60.89C381.344 61.555 377.71 62.716 374.28 64.354L345.272 78.175C343.83 78.849 342.26 79.199 340.665 79.199C335.537 79.182 331.135 75.539 330.171 70.497C328.243 60.327 319.899 52.597 309.609 51.471C290.455 49.517 272.47 60.95 266.097 79.114C265.5 80.991 264.988 82.868 264.561 84.83L261.916 97.798C260.952 102.849 256.567 106.526 251.422 106.586C250.526 106.595 249.639 106.484 248.777 106.245C246.072 105.571 243.291 105.221 240.501 105.221H240.416C224.47 105.4 210.674 116.355 206.886 131.84C206.545 133.188 206.289 134.553 206.118 135.935L198.525 195.401L198.098 195.998C201.442 198.686 204.633 201.561 207.654 204.615L259.186 256.744L303.551 249.065C306.247 243.895 312.586 241.847 317.799 244.458L320.87 245.994C325.562 244.655 328.796 240.38 328.805 235.5C328.805 234.34 328.626 233.196 328.293 232.087C326.382 226.405 329.445 220.253 335.118 218.342C337.814 217.438 340.749 217.625 343.308 218.862L349.451 221.933C353.606 224.023 358.196 225.098 362.846 225.09C364.279 225.107 365.704 224.988 367.112 224.749C368.622 215.279 365.551 205.655 358.836 198.812L355.594 195.57C351.371 191.261 351.439 184.351 355.748 180.127C356.866 179.026 358.214 178.182 359.69 177.653L380.849 169.974C380.934 169.974 380.934 169.974 381.02 169.889C376.839 165.555 376.959 158.661 381.293 154.481C382.411 153.406 383.742 152.578 385.201 152.058L406.36 144.379C406.531 144.294 406.616 144.294 406.787 144.208C412.734 142.024 418.117 138.56 422.571 134.055C430.591 125.805 435.087 114.765 435.113 103.255C435.137 100.597 434.907 97.935 434.429 95.324Z" fill="#558B30"/>
<path d="M409.602 128.854C409.619 134.101 408.663 139.305 406.786 144.211C406.615 144.296 406.53 144.296 406.359 144.382L385.2 152.061C379.535 154.083 376.574 160.32 378.596 165.985C379.116 167.444 379.944 168.775 381.019 169.893C380.934 169.978 380.934 169.978 380.848 169.978L359.689 177.657C354.015 179.705 351.072 185.958 353.12 191.632C353.649 193.108 354.494 194.456 355.594 195.574L358.836 198.816C365.55 205.658 368.622 215.282 367.112 224.753C365.704 224.992 364.279 225.111 362.846 225.094C358.196 225.103 353.606 224.028 349.451 221.937L343.308 218.866C337.916 216.255 331.423 218.508 328.813 223.9C327.576 226.46 327.388 229.394 328.293 232.09C328.634 233.199 328.805 234.342 328.805 235.503C328.796 240.383 325.563 244.658 320.87 245.997L317.799 244.461C312.586 241.85 306.247 243.898 303.551 249.068L259.186 256.747L207.654 204.618C204.634 201.564 201.443 198.688 198.098 196.001L198.525 195.404L206.118 135.938C206.289 134.556 206.545 133.191 206.886 131.843C210.674 116.358 224.47 105.403 240.416 105.224H240.501C243.291 105.224 246.072 105.574 248.777 106.248C249.639 106.487 250.526 106.598 251.422 106.589C256.567 106.529 260.952 102.852 261.916 97.801L264.561 84.833C264.988 82.871 265.5 80.994 266.097 79.117C271.873 77.103 278.024 76.404 284.099 77.069C294.388 78.195 302.732 85.925 304.661 96.095C305.625 101.137 310.027 104.78 315.155 104.797C316.75 104.797 318.32 104.447 319.762 103.773L348.77 89.952C369.997 79.867 395.371 88.894 405.455 110.121C407.085 113.551 408.253 117.185 408.919 120.922C409.397 123.53 409.627 126.192 409.602 128.854Z" fill="#8BC34A"/>
<path d="M259.186 265.277C256.908 265.277 254.724 264.364 253.12 262.743L201.588 210.622C198.807 207.807 195.863 205.153 192.783 202.67C189.754 200.256 188.73 196.109 190.283 192.56L197.654 134.843C199.215 122.463 205.99 111.347 216.262 104.265C226.355 97.337 238.931 95.042 250.824 97.96C252.018 98.25 253.221 97.516 253.512 96.313C253.529 96.253 253.538 96.202 253.546 96.142L256.208 83.131C261.156 57.681 284.755 40.242 310.538 42.989C324.573 44.482 335.971 55.01 338.556 68.883C338.752 70.06 339.87 70.845 341.047 70.649C341.252 70.615 341.448 70.547 341.636 70.461L370.618 56.657C396.179 44.585 426.68 55.522 438.744 81.075C442.02 88.011 443.692 95.588 443.641 103.249C443.65 116.977 438.283 130.167 428.685 139.995C423.208 145.566 416.544 149.815 409.181 152.426L388.099 160.079C387.323 160.318 386.742 160.958 386.572 161.751C386.367 162.544 386.598 163.389 387.169 163.978L390.368 167.177C405.503 182.449 405.392 207.097 390.121 222.232C378.356 233.886 360.507 236.83 345.628 229.561L339.494 226.498C338.718 226.071 337.754 226.199 337.122 226.814C336.329 227.445 336.038 228.52 336.397 229.467C337.011 231.421 337.327 233.451 337.327 235.499C337.353 244.918 330.612 252.998 321.338 254.653L260.626 265.156C260.159 265.234 259.673 265.277 259.186 265.277ZM207.467 192.723C209.498 194.515 211.554 196.46 213.687 198.593L262.122 247.582L318.406 237.847C319.498 237.591 320.274 236.618 320.283 235.501C320.283 235.202 320.232 234.895 320.138 234.614C317.749 227.149 320.061 218.984 326.008 213.882C331.844 208.754 340.213 207.705 347.133 211.237L353.267 214.3C364.154 219.53 377.216 214.94 382.446 204.053C386.447 195.726 384.775 185.778 378.283 179.208L375.084 176.009C367.533 168.373 367.593 156.062 375.229 148.503C377.251 146.498 379.691 144.971 382.37 144.015L403.461 136.362C408.392 134.613 412.863 131.772 416.532 128.035C422.991 121.406 426.599 112.507 426.591 103.259C426.617 101.143 426.437 99.019 426.053 96.937C424.193 86.4 417.504 77.348 407.983 72.476C398.581 67.647 387.464 67.502 377.943 72.075L348.952 85.879C339.354 90.435 327.879 86.348 323.323 76.75C322.623 75.274 322.111 73.713 321.804 72.109C320.61 65.608 315.277 60.668 308.708 59.96C291.679 58.109 276.091 69.686 272.943 86.519L270.29 99.496C268.524 108.531 260.641 115.066 251.435 115.118C249.703 115.135 247.971 114.896 246.307 114.41C239.268 112.738 231.846 114.171 225.925 118.343C219.663 122.66 215.533 129.451 214.595 137.011L207.467 192.723Z" fill="black"/>
<path d="M464.802 169.806L432.808 166.905C430.351 166.666 428.064 165.583 426.324 163.834C423.372 160.882 422.382 156.505 423.764 152.572C425.871 146.489 425.436 139.817 422.57 134.058C418.005 138.674 412.468 142.197 406.36 144.381L385.201 152.06C384.143 152.41 383.153 152.964 382.3 153.681C377.505 157.341 376.584 164.192 380.244 168.987C380.44 169.243 380.636 169.482 380.85 169.721L381.106 169.977L384.348 173.219C385.628 174.49 386.771 175.889 387.761 177.4C395.951 189.515 394.45 205.725 384.178 216.134C375.083 225.391 361.065 227.737 349.454 221.936L346.468 220.486L343.311 218.865C337.919 216.254 331.426 218.507 328.816 223.899C327.579 226.459 327.391 229.393 328.296 232.089C328.56 232.976 328.731 233.898 328.808 234.819V235.502C328.799 240.775 325.037 245.296 319.85 246.252L284.358 252.395L259.189 256.746L259.786 257.343C260.597 258.154 261.373 259.007 262.09 259.903C268.096 266.191 273.36 273.153 277.788 280.635L314.304 294.712L326.931 299.575C330.898 301.06 335.377 300.019 338.278 296.93C339.805 295.488 340.846 293.611 341.264 291.555C342.424 285.736 348.081 281.965 353.9 283.126C356.741 283.689 359.224 285.378 360.802 287.801L364.556 293.603C365.691 295.378 367.005 297.041 368.481 298.551C369.94 300.07 371.578 301.418 373.344 302.561C380.425 307.117 389.094 308.482 397.233 306.315C413.332 301.878 422.956 285.404 418.904 269.202L418.392 267.325L417.709 264.765C416.19 258.946 419.671 252.991 425.49 251.473C427.017 251.072 428.613 251.012 430.165 251.285L447.911 254.698L452.177 255.551C466.237 258.281 480.724 253.759 490.741 243.521C495.229 238.922 498.684 233.428 500.894 227.396C509.042 205.051 497.532 180.335 475.188 172.187C471.832 170.967 468.351 170.165 464.802 169.806Z" fill="#2E7D32"/>
<path d="M458.233 238.402C456.023 244.434 452.568 249.928 448.08 254.527L447.909 254.698L430.163 251.285C424.242 250.227 418.585 254.169 417.519 260.09C417.237 261.643 417.306 263.238 417.707 264.765L418.39 267.325L418.902 269.202C422.955 285.404 413.331 301.879 397.231 306.315C389.092 308.482 380.423 307.117 373.342 302.561C371.576 301.418 369.938 300.07 368.479 298.551C367.003 297.041 365.689 295.377 364.554 293.603L360.8 287.801C357.566 282.827 350.912 281.419 345.938 284.653C343.515 286.231 341.826 288.723 341.263 291.555C340.845 293.611 339.804 295.488 338.277 296.93C335.376 300.019 330.897 301.059 326.93 299.575L314.303 294.712L277.787 280.635C273.359 273.153 268.095 266.191 262.089 259.903C261.372 259.007 260.596 258.154 259.785 257.343L259.188 256.746L284.357 252.395L319.849 246.252C325.036 245.296 328.799 240.775 328.807 235.502V234.819C328.73 233.898 328.56 232.976 328.295 232.089C326.384 226.407 329.447 220.255 335.12 218.344C337.816 217.44 340.751 217.627 343.31 218.864L346.467 220.485L349.453 221.935C361.065 227.737 375.082 225.39 384.177 216.133C394.449 205.724 395.951 189.514 387.76 177.399C388.536 177.663 389.338 177.834 390.149 177.911L422.143 180.812C445.802 183.226 463.027 204.36 460.613 228.018C460.255 231.568 459.453 235.049 458.233 238.402Z" fill="#4CAF50"/>
<path d="M380.849 169.721C376.788 165.259 377.112 158.357 381.566 154.287C381.805 154.074 382.044 153.869 382.3 153.681C382.624 157.025 382.215 160.404 381.106 163.578C380.389 165.549 380.295 167.69 380.849 169.721Z" fill="#4CAF50"/>
<path d="M389.56 315.853C379.365 315.853 369.587 311.783 362.403 304.548C360.552 302.645 358.896 300.572 357.455 298.345L353.633 292.432C353.249 291.656 352.379 291.246 351.534 291.451C350.527 291.622 349.742 292.415 349.58 293.422C348.795 297.142 346.884 300.529 344.111 303.131C338.873 308.515 330.929 310.255 323.925 307.568L274.705 288.585C272.913 287.902 271.403 286.631 270.431 284.976C265.756 277.11 260.142 269.841 253.7 263.331C251.379 261.002 250.484 257.606 251.354 254.432C252.173 251.369 254.63 249.014 257.727 248.332L318.388 237.846C319.48 237.59 320.256 236.617 320.265 235.5C320.265 235.201 320.214 234.894 320.12 234.613C317.731 227.148 320.043 218.983 325.99 213.881C331.826 208.753 340.195 207.704 347.115 211.236L353.249 214.299C364.136 219.529 377.198 214.939 382.428 204.052C386.429 195.725 384.757 185.777 378.265 179.207L375.066 176.008C367.515 168.372 367.575 156.061 375.211 148.502C377.233 146.497 379.673 144.97 382.352 144.014L403.443 136.361C408.374 134.612 412.845 131.771 416.514 128.034C419.841 124.698 425.242 124.69 428.578 128.017C429.218 128.657 429.755 129.391 430.165 130.201C434.073 138.016 434.678 147.077 431.829 155.336C431.505 156.189 431.71 157.153 432.349 157.802C432.69 158.16 433.142 158.374 433.629 158.408L465.563 161.309C481.261 162.768 495.399 171.419 503.819 184.746C512.487 198.303 514.364 215.111 508.921 230.246L508.878 230.365C506.25 237.515 502.146 244.033 496.823 249.485C484.819 261.796 467.405 267.223 450.53 263.921L428.527 259.655C427.793 259.527 427.042 259.792 426.548 260.346C425.959 260.969 425.737 261.848 425.976 262.667L427.136 266.976C432.4 287.734 420.08 308.893 399.425 314.549C396.215 315.418 392.896 315.853 389.56 315.853ZM352.012 274.346C358.505 274.346 364.545 277.69 367.983 283.193L371.72 288.969C372.531 290.249 373.478 291.443 374.527 292.535C379.868 297.919 387.683 300.034 395.012 298.072C406.641 294.881 413.577 282.979 410.625 271.282L409.465 266.973C407.767 260.48 409.525 253.57 414.115 248.664C418.62 243.861 425.257 241.676 431.725 242.879L453.797 247.162C465.05 249.355 476.654 245.737 484.648 237.521C488.274 233.801 491.072 229.356 492.864 224.476C496.524 214.306 495.253 203.019 489.443 193.907C483.838 185.034 474.436 179.258 463.993 178.285L432.033 175.384C427.588 174.974 423.433 173.021 420.293 169.855C415.037 164.574 413.263 156.75 415.729 149.72L415.78 149.558C413.656 150.667 411.454 151.623 409.193 152.416L388.111 160.069C387.335 160.308 386.754 160.948 386.584 161.741C386.379 162.534 386.61 163.379 387.181 163.968L390.38 167.167C405.515 182.439 405.404 207.087 390.133 222.222C378.368 233.876 360.519 236.82 345.64 229.551L339.506 226.488C338.73 226.061 337.766 226.189 337.134 226.804C336.341 227.435 336.05 228.51 336.409 229.457C337.023 231.411 337.339 233.441 337.339 235.489C337.365 244.908 330.624 252.988 321.35 254.643L275.714 262.535C278.529 266.118 281.14 269.847 283.555 273.712L329.985 291.62C330.719 291.867 331.529 291.654 332.05 291.082C332.442 290.783 332.741 290.365 332.895 289.888C334.542 282.099 340.736 276.075 348.568 274.65C349.708 274.448 350.86 274.346 352.012 274.346Z" fill="black"/>
<path d="M234.939 228.394C230.229 228.394 226.407 224.58 226.407 219.862C226.407 218.42 226.774 216.995 227.473 215.733C228.787 213.361 260.534 157.162 341.705 125.33C346.099 123.624 351.039 125.791 352.745 130.185C354.451 134.562 352.301 139.485 347.933 141.208C272.435 170.813 242.711 223.446 242.421 223.975C240.92 226.713 238.053 228.402 234.939 228.394Z" fill="black"/>
</g>
<defs>
<clipPath id="clip0">
<rect width="511.983" height="511.983" fill="white"/>
</clipPath>
</defs>
</svg>
