<svg width="512" height="512" viewBox="0 0 512 512" fill="none" xmlns="http://www.w3.org/2000/svg">
<g clip-path="url(#clip0)">
<path d="M304.641 134.604C328.182 113.382 364.359 94.114 417.229 96.591C416.751 148.691 398.698 185.562 380.395 209.637C380.395 209.637 327.022 200.432 283.011 227.223C303.188 169.921 304.641 134.604 304.641 134.604Z" fill="#46C373"/>
<path d="M280.968 233.481C280.968 233.481 358.032 182.197 405.291 229.457C447.734 271.9 478.584 275.991 502 259.527C481.521 302.028 446.731 326.362 420.002 330.448C420.002 330.448 407.003 288.89 354.668 303.619C321.667 274.347 296.647 276.501 296.647 276.501C296.647 276.501 294.935 251.282 280.968 233.481Z" fill="#A5DC69"/>
<path d="M279.87 232.384C279.87 232.384 331.154 155.32 283.894 108.061C241.451 65.618 237.36 34.768 253.824 11.352C210.996 31.988 186.617 67.157 182.812 93.965C182.812 93.965 223.695 110.152 214.681 163.916C233.667 171.014 241.764 186.378 240.715 216.362C266.333 218.347 279.87 232.384 279.87 232.384Z" fill="#A5DC69"/>
<path d="M240.65 323.75C268.237 323.75 290.601 301.386 290.601 273.799C290.601 246.212 268.237 223.848 240.65 223.848C213.063 223.848 190.699 246.212 190.699 273.799C190.699 301.386 213.063 323.75 240.65 323.75Z" fill="#FF5A5A"/>
<path d="M192.78 259.501C178.659 260.664 164.138 255.855 153.335 245.052C150.627 242.344 148.309 239.396 146.353 236.286C136.394 237.918 126.833 242.561 119.152 250.242C99.645 269.749 99.645 301.376 119.152 320.883C138.659 340.39 170.286 340.39 189.793 320.883C194.759 315.917 198.455 310.164 200.891 304.027C191.036 291.096 188.324 274.464 192.78 259.501Z" fill="#FF5A5A"/>
<path d="M274.219 365.339C272.547 364.046 270.931 362.648 269.397 361.114C258.593 350.31 253.785 335.79 254.948 321.669C238.302 326.625 219.591 322.714 206.21 309.96C200.238 312.397 194.641 316.035 189.793 320.883C170.286 340.39 170.286 372.017 189.793 391.524C209.3 411.031 240.927 411.031 260.434 391.524C267.854 384.105 272.443 374.931 274.219 365.339Z" fill="#FF5A5A"/>
<path d="M338.874 385.311C338.778 385.217 338.679 385.13 338.584 385.035C334.082 380.533 330.632 375.38 328.208 369.884C328.227 369.874 328.245 369.862 328.263 369.852C311.184 378.987 289.918 377.489 274.217 365.353C272.439 374.94 267.851 384.108 260.436 391.524C254.705 397.255 247.925 401.288 240.717 403.652C242.636 412.833 247.147 421.58 254.274 428.708C273.781 448.215 305.408 448.215 324.915 428.708C336.73 416.891 341.375 400.632 338.874 385.311Z" fill="#FF5A5A"/>
<path d="M153.335 174.41C168.34 159.405 190.511 155.956 208.825 164.034C218.897 145.144 215.978 121.147 200.055 105.224C180.548 85.717 148.921 85.717 129.414 105.224C109.907 124.731 109.907 156.358 129.414 175.865C133.916 180.367 139.069 183.817 144.565 186.241C146.831 181.99 149.751 177.994 153.335 174.41Z" fill="#FF5A5A"/>
<path d="M205.328 238.48C214.031 229.777 225.148 224.968 236.524 224.031C241.589 207.02 237.408 187.843 223.976 174.411C204.469 154.904 172.842 154.904 153.335 174.411C133.828 193.918 133.828 225.545 153.335 245.052C164.139 255.856 178.659 260.664 192.78 259.501C195.071 251.807 199.252 244.555 205.328 238.48Z" fill="#FF5A5A"/>
<path d="M340.038 361.114C355.043 346.109 358.492 323.938 350.414 305.624C369.304 295.552 393.301 298.471 409.224 314.394C428.731 333.901 428.731 365.528 409.224 385.035C389.717 404.542 358.09 404.542 338.583 385.035C334.081 380.533 330.631 375.38 328.207 369.884C332.459 367.617 336.454 364.698 340.038 361.114Z" fill="#FF5A5A"/>
<path d="M275.969 309.121C284.672 300.418 289.481 289.301 290.418 277.925C307.429 272.86 326.606 277.041 340.038 290.473C359.545 309.98 359.545 341.607 340.038 361.114C320.531 380.621 288.904 380.621 269.397 361.114C258.593 350.31 253.785 335.79 254.948 321.669C262.642 319.378 269.894 315.196 275.969 309.121Z" fill="#FF5A5A"/>
<path d="M145.852 184.025C146.276 183.32 146.722 182.625 147.183 181.938C146.721 182.626 146.275 183.32 145.852 184.025Z" fill="#FF5A5A"/>
<path d="M146.353 236.286C136.574 220.738 136.209 200.993 145.219 185.115C145.005 185.492 144.768 185.86 144.565 186.242C139.069 183.818 133.917 180.368 129.414 175.866C128.138 174.59 126.951 173.26 125.842 171.888C110.382 169.209 93.908 173.824 81.969 185.763C62.462 205.27 62.462 236.897 81.969 256.404C89.096 263.531 97.844 268.042 107.025 269.961C109.389 262.753 113.422 255.972 119.153 250.242C126.833 242.56 136.394 237.915 146.353 236.286Z" fill="#FF5A5A"/>
<path d="M177.945 339.736C176.906 338.47 175.799 337.242 174.617 336.06C173.435 334.878 172.206 333.771 170.941 332.732C154.891 338.322 136.56 335.481 122.829 324.212C115.943 326.61 109.477 330.559 103.976 336.06C84.469 355.567 84.469 387.194 103.976 406.701C123.483 426.208 155.11 426.208 174.617 406.701C180.119 401.199 184.067 394.734 186.465 387.848C175.196 374.117 172.355 355.786 177.945 339.736Z" fill="#FF5A5A"/>
<path d="M256.029 430.377C255.434 429.836 254.847 429.282 254.273 428.707C247.146 421.58 242.635 412.832 240.716 403.651C240.797 403.624 240.876 403.591 240.957 403.564C223.572 409.366 203.635 405.364 189.794 391.523C188.423 390.152 187.168 388.71 185.99 387.227C186.153 387.431 186.299 387.644 186.465 387.847C184.067 394.733 180.118 401.199 174.617 406.7C169.859 411.458 164.377 415.046 158.529 417.483C153.094 434.687 157.184 454.249 170.823 467.889C190.33 487.396 221.957 487.396 241.464 467.889C251.777 457.577 256.624 443.88 256.029 430.377Z" fill="#FF5A5A"/>
<path d="M123.448 324.686C121.965 323.509 120.523 322.254 119.152 320.882C105.311 307.041 101.309 287.104 107.111 269.719C107.084 269.8 107.051 269.879 107.024 269.96C97.843 268.041 89.096 263.53 81.968 256.403C81.394 255.829 80.839 255.242 80.298 254.647C66.795 254.052 53.098 258.899 42.785 269.211C23.278 288.718 23.278 320.345 42.785 339.852C56.425 353.492 75.987 357.581 93.191 352.146C95.628 346.298 99.216 340.816 103.974 336.058C109.476 330.556 115.941 326.608 122.827 324.21C123.031 324.377 123.244 324.524 123.448 324.686Z" fill="#FF5A5A"/>
<path d="M95.271 415.404C77.459 433.216 49.547 434.754 29.979 420.038C25.836 436.517 30.202 454.695 43.09 467.584C55.979 480.473 74.157 484.839 90.636 480.695C75.922 461.128 77.46 433.216 95.271 415.404Z" fill="#FF5A5A"/>
<path d="M170.823 467.889C157.183 454.249 153.094 434.687 158.529 417.483C140.849 424.85 119.805 421.607 105.093 407.762C101.59 409.845 98.285 412.39 95.272 415.404C75.765 434.911 75.765 466.538 95.272 486.045C114.779 505.552 146.406 505.552 165.913 486.045C170.067 481.891 173.327 477.185 175.712 472.166C174.016 470.86 172.378 469.444 170.823 467.889Z" fill="#FF5A5A"/>
<path d="M93.192 352.147C75.988 357.582 56.426 353.492 42.786 339.853C41.232 338.299 39.816 336.66 38.509 334.964C33.49 337.349 28.784 340.609 24.63 344.763C5.12301 364.27 5.12301 395.897 24.63 415.404C44.137 434.911 75.764 434.911 95.271 415.404C98.285 412.39 100.83 409.086 102.913 405.583C89.068 390.871 85.825 369.827 93.192 352.147Z" fill="#FF5A5A"/>
<path d="M508.469 251.901C504.998 248.956 499.974 248.728 496.249 251.347C488.272 256.955 463.998 274.023 412.363 222.386C406.673 216.697 400.38 212.064 393.55 208.483C415.228 176.857 426.847 138.407 427.23 96.682C427.279 91.306 423.069 86.853 417.698 86.601C374.767 84.591 336.167 96.418 305.416 120.866C301.765 113.624 296.95 106.973 290.967 100.989C287.062 97.084 280.73 97.084 276.824 100.989C272.919 104.894 272.919 111.226 276.824 115.132C312.675 150.982 281.898 209.396 273.506 223.644C268.426 220.301 262.891 217.779 257.065 216.13C274.093 195.308 276.117 163.806 259.984 138.441C257.019 133.781 250.838 132.406 246.179 135.371C241.519 138.335 240.144 144.516 243.108 149.176C252.498 163.939 253.334 181.517 246.782 195.254C244.185 184.839 238.833 175.125 231.048 167.34C228.125 164.417 224.949 161.84 221.576 159.614C228.715 138.282 223.292 114.319 207.127 98.153C203.196 94.222 198.845 90.969 194.224 88.36C198.981 71.589 212.586 50.938 235.019 34.308C234.63 39.338 234.92 44.5 235.894 49.782C236.895 55.213 242.107 58.804 247.541 57.804C252.972 56.803 256.564 51.589 255.563 46.157C253.609 35.553 255.716 26.049 262.006 17.103C264.625 13.378 264.397 8.35499 261.452 4.88299C258.507 1.41099 253.588 0.364995 249.485 2.34299C208.037 22.314 183.527 54.702 175.384 81.582C156.71 78.238 136.747 83.752 122.344 98.154C105.167 115.332 100.63 140.421 108.699 161.796C96.054 163.63 84.14 169.453 74.9 178.692C63.576 190.015 57.34 205.07 57.34 221.084C57.34 230.037 59.293 238.689 62.991 246.559C52.767 249.226 43.306 254.554 35.718 262.142C24.394 273.465 18.158 288.52 18.158 304.534C18.158 314.119 20.408 323.353 24.63 331.656C22.133 333.479 19.767 335.488 17.562 337.694C6.236 349.015 0 364.07 0 380.084C0 396.098 6.236 411.152 17.559 422.476C18.051 422.968 18.558 423.434 19.062 423.905C16.497 442.377 22.713 461.35 36.02 474.657C47.358 485.994 62.805 492.189 78.554 492.188C81.291 492.188 84.036 491.994 86.771 491.614C87.242 492.118 87.709 492.626 88.2 493.118C99.888 504.806 115.24 510.649 130.592 510.649C145.944 510.649 161.297 504.804 172.984 493.117C175.195 490.906 177.209 488.534 179.035 486.03C187.528 490.329 196.834 492.492 206.144 492.492C221.496 492.492 236.849 486.648 248.536 474.962C256.124 467.374 261.451 457.912 264.118 447.688C271.988 451.386 280.64 453.339 289.593 453.339C305.607 453.339 320.661 447.103 331.985 435.779C340.706 427.059 346.391 415.92 348.542 404.038C356.555 407.769 365.228 409.637 373.904 409.637C389.254 409.637 404.61 403.792 416.296 392.107C431.042 377.36 436.475 356.781 432.615 337.727C445.016 333.869 457.841 326.787 469.665 317.144C486.558 303.366 500.854 284.944 511.009 263.87C512.985 259.766 511.941 254.847 508.469 251.901ZM406.917 106.377C404.942 142.509 393.875 174.424 374.004 201.436C358.685 198.117 341.458 198.969 322.759 204.104C322.54 204.164 322.326 204.228 322.108 204.289L346.602 179.795C350.507 175.89 350.507 169.558 346.602 165.652C342.697 161.746 336.365 161.747 332.459 165.652L309.861 188.25C314.247 171.195 315.035 155.393 312.293 141.188C338.133 118.301 369.918 106.609 406.917 106.377ZM344.668 325.794C344.668 336.465 340.512 346.497 332.966 354.043C318.673 368.336 296.158 369.503 280.509 357.564C280.505 357.56 280.5 357.557 280.496 357.554C279.097 356.485 277.746 355.322 276.468 354.044C269.613 347.189 265.556 338.161 264.885 328.619C271.474 325.715 277.649 321.584 283.039 316.194C291.374 307.859 296.941 297.498 299.305 286.225C311.577 284.548 324.049 288.628 332.967 297.546C340.513 305.09 344.668 315.122 344.668 325.794ZM237.866 394.074C237.704 394.122 237.545 394.176 237.387 394.232C233.472 395.491 229.345 396.154 225.114 396.154C214.443 396.154 204.41 391.998 196.864 384.452C189.319 376.906 185.163 366.874 185.163 356.203C185.163 345.532 189.319 335.5 196.865 327.954C199.257 325.561 201.901 323.51 204.761 321.816C215.359 329.748 228.001 333.724 240.649 333.724C242.195 333.724 243.741 333.648 245.284 333.53C246.968 346.542 252.878 358.737 262.327 368.186C262.549 368.408 262.781 368.613 263.005 368.831C261.061 374.691 257.795 380.023 253.364 384.454C248.932 388.885 243.639 392.136 237.866 394.074ZM167.545 399.629C163.867 403.307 159.595 406.173 154.949 408.152C154.775 408.219 154.605 408.294 154.435 408.371C149.694 410.312 144.574 411.332 139.296 411.332C129.006 411.332 119.317 407.457 111.871 400.415C111.313 399.898 110.775 399.363 110.259 398.803C103.218 391.358 99.345 381.669 99.345 371.38C99.345 366.093 100.368 360.965 102.315 356.216C102.385 356.06 102.454 355.905 102.516 355.745C104.495 351.092 107.364 346.813 111.047 343.13C114.141 340.036 117.637 337.529 121.472 335.621C131.441 342.198 142.955 345.486 154.473 345.484C158.451 345.484 162.427 345.083 166.341 344.298C165.564 348.176 165.163 352.158 165.163 356.203C165.163 368.118 168.621 379.499 175.052 389.21C173.144 393.042 170.638 396.537 167.545 399.629C170.638 396.537 163.867 403.307 167.545 399.629ZM146.264 252.123C155.647 261.505 167.902 267.442 180.921 269.147C179.97 281.471 182.799 294.028 189.416 304.922C187.621 308.164 185.388 311.145 182.722 313.811C167.145 329.386 141.8 329.388 126.222 313.811C118.677 306.265 114.521 296.233 114.521 285.562C114.521 281.346 115.18 277.233 116.43 273.33C116.499 273.136 116.567 272.94 116.625 272.74C118.566 266.995 121.809 261.726 126.223 257.313C130.737 252.799 136.164 249.49 142.145 247.564C143.433 249.14 144.804 250.664 146.264 252.123ZM280.599 273.801C280.599 284.472 276.443 294.504 268.898 302.05C253.616 317.336 228.933 317.613 213.295 302.901C213.264 302.87 213.231 302.841 213.199 302.81C212.932 302.557 212.661 302.311 212.399 302.05C196.822 286.474 196.822 261.128 212.399 245.551C219.944 238.006 229.977 233.85 240.649 233.85C251.32 233.85 261.353 238.006 268.898 245.552C276.443 253.097 280.599 263.13 280.599 273.801ZM228.219 215.145C216.948 217.51 206.589 223.076 198.256 231.41C192.866 236.8 188.735 242.974 185.831 249.563C176.301 248.881 167.211 244.788 160.405 237.981C158.3 235.876 156.468 233.57 154.907 231.118C154.838 231.004 154.767 230.893 154.694 230.783C150.797 224.523 148.703 217.29 148.703 209.733C148.703 199.062 152.859 189.029 160.405 181.483C167.95 173.938 177.983 169.782 188.654 169.782C199.325 169.782 209.358 173.938 216.904 181.484C225.74 190.317 229.87 202.881 228.219 215.145ZM136.484 112.295C152.061 96.718 177.407 96.718 192.983 112.295C203.325 122.637 207.068 137.766 203.144 151.536C198.46 150.379 193.604 149.78 188.655 149.78C172.642 149.78 157.587 156.016 146.264 167.339C144.494 169.109 142.864 170.98 141.347 172.922C139.626 171.678 137.996 170.305 136.485 168.794C120.908 153.218 120.908 127.872 136.484 112.295ZM89.04 192.833C97.414 184.459 109.089 180.293 120.811 181.324C121.314 181.866 121.816 182.408 122.343 182.936C125.237 185.83 128.412 188.402 131.813 190.638C129.779 196.713 128.705 203.138 128.705 209.732C128.705 216.719 129.893 223.522 132.172 229.914C124.697 232.898 117.885 237.368 112.081 243.171C107.734 247.518 104.145 252.418 101.363 257.708C96.794 255.725 92.614 252.906 89.04 249.333C88.583 248.876 88.139 248.408 87.707 247.933C87.685 247.908 87.662 247.884 87.64 247.86C80.983 240.506 77.339 231.075 77.339 221.084C77.338 210.411 81.494 200.379 89.04 192.833ZM49.858 276.283C56.869 269.272 66.277 265.155 76.127 264.659C81.68 269.907 88.128 274.008 95.158 276.794C94.739 279.672 94.523 282.601 94.523 285.562C94.523 298.616 98.669 311.031 106.335 321.309C102.972 323.528 99.814 326.079 96.906 328.988C92.528 333.366 88.92 338.307 86.129 343.641C73.03 346.334 59.445 342.366 49.859 332.781C48.667 331.588 47.569 330.327 46.549 329.018C46.49 328.938 46.427 328.862 46.365 328.783C41.047 321.851 38.157 313.415 38.157 304.532C38.156 293.861 42.312 283.829 49.858 276.283ZM31.702 351.834C33.211 350.325 34.832 348.952 36.545 347.712C47.888 358.635 62.757 364.496 78.028 364.496C78.603 364.496 79.179 364.48 79.755 364.463C79.495 366.744 79.347 369.05 79.347 371.38C79.347 383.959 83.21 395.937 90.348 405.988C89.66 406.793 88.952 407.582 88.202 408.333C74.004 422.533 51.694 423.783 36.059 412.097C36.029 412.074 35.999 412.05 35.968 412.027C34.483 410.91 33.054 409.684 31.703 408.333C24.156 400.787 20 390.755 20 380.084C20 369.413 24.156 359.381 31.702 351.834ZM50.163 460.514C43.441 453.792 39.48 445.187 38.63 436.095C45.483 438.692 52.715 440.007 59.952 440.007C63.945 440.007 67.937 439.602 71.866 438.812C69.642 449.861 70.553 461.413 74.583 472.047C65.489 471.197 56.884 467.236 50.163 460.514ZM102.343 478.974C100.992 477.623 99.766 476.194 98.65 474.709C98.627 474.678 98.603 474.648 98.579 474.618C86.895 458.983 88.145 436.674 102.343 422.475C103.094 421.724 103.883 421.016 104.688 420.329C114.74 427.468 126.718 431.331 139.296 431.331C141.624 431.331 143.929 431.184 146.208 430.923C145.75 446.794 151.623 462.369 162.958 474.138C161.719 475.848 160.349 477.466 158.841 478.974C143.266 494.553 117.92 494.554 102.343 478.974ZM181.776 464.215C181.754 464.199 181.733 464.181 181.711 464.165C180.388 463.14 179.108 462.032 177.894 460.818C168.309 451.233 164.34 437.649 167.034 424.548C172.368 421.757 177.308 418.149 181.687 413.771C184.596 410.862 187.147 407.704 189.366 404.341C199.644 412.007 212.059 416.153 225.113 416.153C225.114 416.153 225.113 416.153 225.113 416.153C228.074 416.153 231.002 415.937 233.881 415.518C236.668 422.549 240.769 428.998 246.018 434.551C245.526 444.396 241.403 453.807 234.393 460.817C220.051 475.16 197.431 476.285 181.776 464.215ZM317.843 421.636C310.297 429.182 300.265 433.338 289.593 433.338C278.921 433.338 268.889 429.182 261.343 421.636C257.77 418.063 254.951 413.882 252.968 409.313C258.258 406.531 263.158 402.941 267.505 398.594C272.807 393.292 277.009 387.131 279.975 380.391C287.816 383.933 296.265 385.715 304.717 385.715C311.168 385.715 317.615 384.67 323.794 382.606C325.459 385.143 327.311 387.553 329.351 389.818C330.395 401.552 326.213 413.267 317.843 421.636ZM402.154 377.964C386.661 393.456 361.51 393.533 345.914 378.21C345.912 378.208 345.911 378.206 345.909 378.204C345.821 378.117 345.727 378.028 345.628 377.935C344.124 376.428 342.757 374.809 341.522 373.099C343.458 371.591 345.331 369.964 347.109 368.185C358.433 356.862 364.669 341.807 364.669 325.793C364.669 320.841 364.069 315.982 362.911 311.295C376.683 307.335 391.725 311.034 402.154 321.463C417.73 337.042 417.73 362.388 402.154 377.964ZM425.41 319.033C422.922 314.855 419.887 310.914 416.295 307.322C399.995 291.023 376.182 285.681 354.834 292.873C352.609 289.5 350.032 286.324 347.108 283.401C336.256 272.55 321.9 266.463 307.044 265.887C314.706 261.539 323.26 259.308 331.919 259.509C343.721 259.792 354.305 264.592 361.72 273.023C363.697 275.27 366.458 276.419 369.233 276.419C371.579 276.419 373.934 275.599 375.834 273.928C379.981 270.281 380.386 263.962 376.738 259.815C365.593 247.144 349.846 239.935 332.399 239.516C319.424 239.203 306.672 242.697 295.462 249.485C293.946 246.07 292.106 242.796 289.956 239.701C304.623 231.105 362.575 200.884 398.22 236.529C427.931 266.24 455.008 280.231 479.094 278.37C462.666 300.697 442.413 314.182 425.41 319.033Z" fill="black"/>
<path d="M252.785 68.726C248.139 71.712 246.794 77.899 249.781 82.545L249.993 82.873C251.909 85.822 255.115 87.426 258.388 87.426C260.255 87.426 262.145 86.904 263.827 85.81C268.458 82.801 269.773 76.607 266.764 71.977L266.604 71.73C263.617 67.084 257.43 65.739 252.785 68.726Z" fill="black"/>
<path d="M364.69 157.563C367.32 157.563 369.9 156.493 371.76 154.633C373.62 152.773 374.69 150.193 374.69 147.563C374.69 144.933 373.62 142.353 371.76 140.493C369.9 138.633 367.32 137.563 364.69 137.563C362.06 137.563 359.48 138.633 357.62 140.493C355.76 142.353 354.69 144.933 354.69 147.563C354.69 150.193 355.76 152.773 357.62 154.633C359.48 156.494 362.06 157.563 364.69 157.563Z" fill="black"/>
</g>
<defs>
<clipPath id="clip0">
<rect width="512" height="512" fill="white"/>
</clipPath>
</defs>
</svg>
