<svg width="128" height="128" viewBox="0 0 128 128" fill="none" xmlns="http://www.w3.org/2000/svg">
<path d="M67.7 121.5L60.4 119.8L79.4 42.9L85.3 44.3L67.7 121.5Z" fill="#BE551C"/>
<path d="M102.3 38.7C105.8 42 101.4 51.9 96.4 50.7C94.4 59 81.9 59.5 80.4 65.6L79 65.3L75.6 64.5L74.2 64.2C75.6 58.1 64.7 52 66.6 43.7C61.6 42.5 62.1 31.7 66.7 30.3C66.1 26.4 69.5 19.6 74.8 20.7C75.3 15.3 81 6.4 90.6 8.7C100.2 11 101.4 21.4 99.4 26.5C104.6 27.9 104.6 35.5 102.3 38.7V38.7Z" fill="#AAC348"/>
<path d="M60.3 121.5L67.6 119.8L48.6 42.9L42.7 44.3L60.3 121.5Z" fill="#BE551C"/>
<path d="M61.4 43.6C63.4 51.9 52.4 58 53.8 64.1L52.4 64.4L49 65.3L47.6 65.6C46.2 59.5 33.6 59 31.6 50.7C26.6 51.9 22.2 42 25.7 38.7C23.4 35.5 23.4 27.9 28.6 26.5C26.6 21.4 27.7 11 37.4 8.7C47.1 6.4 52.7 15.2 53.3 20.7C58.6 19.6 62 26.4 61.4 30.3C65.9 31.6 66.4 42.4 61.4 43.6V43.6Z" fill="#AAC348"/>
<path d="M67.8 121.5H60.2L61 42.4H67L67.8 121.5Z" fill="#DF6421"/>
<path d="M79.3 46C79.3 54.5 67.2 57.9 67.2 64.2H60.8C60.8 57.9 48.7 54.5 48.7 46C43.5 46 41.5 35.3 45.7 33C44.2 29.4 46 22 51.3 21.8C50.6 16.4 54.1 6.5 64 6.5C73.9 6.5 77.4 16.4 76.7 21.8C82.1 21.9 83.8 29.3 82.3 33C86.4 35.3 84.5 46 79.3 46Z" fill="#C7E554"/>
<path d="M77.7 85.6L77.1 88.4C76.9 89.3 76 89.9 75 89.7C74.1 89.5 73.5 88.6 73.7 87.6L74.3 84.8C74.5 83.9 75.5 83.3 76.4 83.5C77.3 83.8 77.9 84.7 77.7 85.6ZM104.5 38.6C106.1 41.2 105.4 45 103.9 47.8C102.3 50.7 100.1 52.4 97.7 52.6C96 56.8 91.9 59 88.2 61C85.3 62.5 82.6 64 82.1 66.1L79 79.7C78.8 80.5 78.1 81.2 76.9 81C75.9 80.9 75.4 79.9 75.6 78.9L78.3 66.9L75.4 66.2L69.2 91.4L69.3 106.4L72.4 92.7C72.6 91.8 73.6 91.2 74.5 91.4C75.4 91.6 76 92.6 75.8 93.5L69.4 121.6C69.3 122.3 68.8 123.1 67.7 123.1H60.2C59.3 123.1 58.6 122.4 58.5 121.6L45.9 66C45.4 63.9 42.7 62.5 39.8 60.9C36.1 58.9 32 56.7 30.4 52.5C28.1 52.3 25.8 50.6 24.2 47.7C22.7 44.9 22 41.1 23.6 38.5C22.3 35.7 22.1 32.5 23.1 29.6C23.7 27.9 24.9 26.4 26.5 25.5C25.6 21.6 26.1 17.5 27.9 14C29.8 10.4 33.1 7.9 37 7C40.5 6.1 44.3 6.6 47.4 8.5C48.2 9 48.5 10.1 48 10.9C47.5 11.7 46.4 12 45.6 11.5C43.3 10.1 40.5 9.7 37.8 10.4C34.9 11 32.3 12.9 31 15.6C29.4 18.8 29.1 22.5 30.3 25.9C30.7 26.8 30.2 27.9 29.3 28.2C27.8 28.6 26.8 29.6 26.4 30.9C25.6 33.2 25.9 35.7 27.1 37.7C27.6 38.4 27.5 39.4 26.9 40C25.8 41 26 43.8 27.3 46.1C28.1 47.7 29.7 49.4 31.2 49C32.1 48.8 33.1 49.4 33.3 50.3C34.2 54 37.9 56 41.4 57.9C44.2 59.4 47.1 61 48.5 63.5L46 52.5C43.7 50.1 36.6 46.3 34.2 45.1C33.3 44.7 33 43.6 33.4 42.7C33.8 41.9 34.8 41.5 35.7 41.9C38.8 43.4 41.8 45.1 44.7 47L44.4 45.6C43.3 44.4 42.6 42.9 42.2 41.3C41.8 39.7 41.7 38.1 41.9 36.4C40 35 37.9 33.9 35.7 33C34.8 32.7 34.2 31.8 34.5 30.9C34.8 30 35.7 29.4 36.6 29.7C38.2 30.2 39.7 30.9 41.1 31.8L39 22.9C38.8 22 39.4 21 40.3 20.8C41.2 20.6 42.2 21.2 42.4 22.1L43.7 27.7C44 26.3 44.5 24.9 45.3 23.6C46.3 22 47.8 20.9 49.5 20.3C49.5 16.3 51 12.4 53.5 9.4C58.7 3.6 67.6 3.2 73.4 8.4C73.8 8.7 74.1 9.1 74.4 9.4C75.2 10.3 75.8 11.3 76.4 12.3C79.8 7.7 85.6 5.6 91 7C94.9 7.8 98.2 10.3 100.1 13.9C100.5 14.8 100.2 15.8 99.4 16.3C98.6 16.7 97.5 16.4 97.1 15.6C95.7 13 93.2 11.1 90.3 10.5C84.4 9 80.1 12.5 78 16.4C78.3 17.7 78.5 19 78.5 20.3C80.3 20.8 81.8 22 82.7 23.6C83.5 24.8 84 26.2 84.3 27.7L85.6 22.1C85.8 21.2 86.8 20.6 87.7 20.8C88.6 21 89.2 22 89 22.9L87 31.7C88.4 30.8 89.9 30.1 91.4 29.6C92.3 29.3 93.3 29.9 93.6 30.8C93.9 31.7 93.3 32.7 92.4 33C90.2 33.8 88.1 35 86.2 36.5C86.4 38.1 86.3 39.8 85.9 41.4C85.5 43 84.8 44.4 83.7 45.7L83.4 47.1C86.3 45.2 89.3 43.5 92.4 42C93.3 41.6 94.3 42 94.7 42.9C95.1 43.7 94.7 44.7 93.9 45.2C91.5 46.3 84.5 50.1 82.1 52.6L79.5 63.5C80.9 61 83.8 59.5 86.6 57.9C90.2 56 93.8 54 94.7 50.3C94.9 49.4 95.9 48.8 96.8 49C98.3 49.4 99.9 47.7 100.7 46.1C102 43.7 102.2 41 101.1 40C100.5 39.4 100.4 38.4 100.9 37.7C102.1 35.6 102.4 33.1 101.6 30.9C101.2 29.6 100.2 28.6 98.9 28.3C98 28 97.4 27 97.8 25.9C98.2 24.7 98.5 23.4 98.5 22.1C98.5 21.1 99.3 20.4 100.3 20.4C101.3 20.4 102 21.2 102 22.2C102 23.3 101.8 24.4 101.6 25.5C103.2 26.4 104.4 27.9 105 29.6C105.9 32.6 105.7 35.8 104.5 38.6V38.6ZM76 62.6L78.2 53.4C77 54.9 75.6 56.2 74.1 57.5C75.2 59 75.9 60.8 76 62.6V62.6ZM45.5 40.5C46.2 43.4 47.7 44.2 48.7 44.2C49.7 44.2 50.4 45 50.4 45.9C50.4 49.7 53.5 52.5 56.5 55.2C59.9 58.2 61.4 59.8 62.2 62.2V51.1C60.5 48.2 54.5 42.9 52.4 41.2C51.6 40.6 51.5 39.5 52.1 38.7C52.7 37.9 53.8 37.8 54.6 38.4C56 39.4 59.8 43 62.2 45.5V35.1C60.7 33 58.8 31.2 56.7 29.7C55.8 29.3 55.5 28.2 56 27.3C56.4 26.4 57.5 26.1 58.4 26.6C59.8 27.5 61.1 28.5 62.3 29.7V20.5C62.3 19.5 63.1 18.7 64.1 18.7C65.1 18.7 65.9 19.5 65.9 20.5V29.7C67.1 28.5 68.4 27.5 69.8 26.6C70.6 26.1 71.7 26.4 72.2 27.3C72.7 28.1 72.4 29.2 71.5 29.7C69.3 31.1 67.5 32.9 66 35.1V45.5C68.4 43 70.9 40.7 73.6 38.5C74.3 37.9 75.4 38 76.1 38.7C76.7 39.4 76.6 40.5 75.9 41.2C75.9 41.2 75.9 41.2 75.8 41.2C73.7 42.9 67.7 48.2 66 51.1V62.3C66.7 59.9 68.6 57.9 71.7 55.3C74.7 52.7 77.8 49.8 77.8 46C77.8 45 78.6 44.3 79.5 44.2C80.1 44.1 81.6 44.2 82.7 40.5C83.8 36.8 82.3 34.8 81.7 34.5C80.9 34.1 80.7 33.1 80.9 32.3C81.7 30 81.3 27.5 80 25.5C79.3 24.4 78.1 23.6 76.8 23.6C76.3 23.6 75.8 23.4 75.5 23C75.2 22.6 75 22.1 75.1 21.6C75.3 19.9 75.1 18.3 74.6 16.7C74.6 16.7 74.6 16.7 74.6 16.6C74.1 14.8 73.2 13.1 72 11.7C68.1 7.3 60.5 6.9 56.3 11.7C54 14.4 52.9 18 53.2 21.6C53.3 22.1 53.1 22.6 52.8 23C52.5 23.4 52 23.6 51.5 23.6C50.2 23.6 49 24.4 48.3 25.5C47 27.5 46.7 30 47.4 32.3C47.7 33.1 47.4 34.1 46.6 34.5C46.1 34.8 44.5 36.5 45.5 40.5V40.5ZM56.5 59.9C55.7 61 55.4 62.4 55.6 63.7L59 77.4V64.2C59 62.7 57.9 61.3 56.5 59.9ZM53.8 57.5C52.3 56.3 51 54.9 49.7 53.4L51.9 62.6C52.1 60.8 52.8 59 53.8 57.5ZM49.7 66.9L58.7 106.4L58.8 91.4L52.6 66.2L49.7 66.9ZM62 119.8H66L65.7 91.3V91.2L65.5 66H62.5L62.3 91.2V91.3L62 119.8ZM69.1 77.4L72.5 63.7C72.7 62.3 72.3 61 71.6 59.9C70.1 61.3 69 62.7 69 64.2L69.1 77.4ZM64 14.3C65.3 14.2 66.5 14.7 67.3 15.7C67.9 16.4 69 16.5 69.8 15.9C70.5 15.3 70.6 14.2 70 13.4C68.5 11.7 66.3 10.7 64 10.8C63 10.8 62.2 11.6 62.2 12.6C62.2 13.6 63 14.3 64 14.3V14.3Z" fill="#190D28"/>
</svg>
