<svg width="512" height="512" viewBox="0 0 512 512" fill="none" xmlns="http://www.w3.org/2000/svg">
<path d="M46.014 82.566C46.539 102.489 59.026 122.505 79.878 133.313C100.73 144.121 124.284 142.785 140.866 131.729C140.341 111.806 127.854 91.79 107.002 80.982C86.15 70.174 62.596 71.509 46.014 82.566Z" fill="#6CB89C"/>
<path d="M166.107 64.992L154.868 58.729C150.226 56.142 144.717 58.371 142.87 63.561C140.05 71.487 128.344 96.399 125.647 110.665C119.064 145.492 122.375 174.386 135.486 196.543L160.477 179.231C149.982 161.492 151.67 136.752 154.934 119.122C157.138 107.215 168.216 84.157 170.588 77.386C172.227 72.712 170.278 67.317 166.107 64.992Z" fill="#3E9073"/>
<path d="M242.483 114.479C243.008 134.402 255.495 154.418 276.347 165.226C297.199 176.034 320.753 174.698 337.335 163.642C336.81 143.719 324.323 123.703 303.471 112.895C282.619 102.087 259.065 103.423 242.483 114.479Z" fill="#6CB89C"/>
<path d="M440.303 135.157C435.669 154.541 419.313 171.542 396.677 177.804C374.041 184.066 351.272 177.888 337.335 163.642C341.969 144.258 358.325 127.257 380.961 120.995C403.598 114.733 426.366 120.91 440.303 135.157Z" fill="#6CB89C"/>
<path d="M362.576 96.906L351.337 90.643C346.695 88.056 341.186 90.285 339.339 95.475C336.519 103.401 324.813 128.313 322.116 142.579C315.533 177.406 318.844 206.3 331.955 228.457L356.946 211.145C346.451 193.406 348.139 168.666 351.403 151.036C353.607 139.129 364.685 116.071 367.057 109.3C368.696 104.626 366.747 99.231 362.576 96.906Z" fill="#3E9073"/>
<path d="M143.176 394.664C82.26 394.664 7.5 377.926 7.5 280.453C7.5 190.018 58.347 164.842 126.871 170.328C137.724 171.197 148.627 171.197 159.479 170.328C228.003 164.842 278.85 190.018 278.85 280.453C278.852 377.926 204.092 394.664 143.176 394.664Z" fill="#CD7D0A"/>
<path d="M37.5 280.453C37.5 204.576 73.298 174.644 125.295 170.212C57.571 165.24 7.5 190.714 7.5 280.453C7.5 377.927 82.26 394.664 143.176 394.664C148.101 394.664 153.117 394.552 158.176 394.3C100.66 391.428 37.5 370.046 37.5 280.453Z" fill="#B46D09"/>
<path d="M337.449 454.35C262.447 454.35 170.398 435.031 170.398 322.527C170.398 218.147 233.004 189.089 317.374 195.42C330.736 196.423 344.161 196.423 357.523 195.42C441.894 189.089 504.5 218.147 504.5 322.527C504.5 435.031 412.452 454.35 337.449 454.35Z" fill="#E88D0C"/>
<path d="M210.398 322.527C210.398 235.582 253.841 200.904 317.113 195.402C232.875 189.151 170.398 218.255 170.398 322.527C170.398 435.031 262.446 454.35 337.449 454.35C344.009 454.35 350.701 454.198 357.449 453.852C287.048 450.253 210.398 425.191 210.398 322.527Z" fill="#C0760A"/>
<path d="M48.532 380.479C71.981 395.071 102.939 402.164 143.176 402.164C157.308 402.164 170.507 401.251 182.497 399.449C192.145 414.78 205.324 427.367 222.019 437.106C250.562 453.756 288.32 461.85 337.45 461.85C386.58 461.85 424.338 453.756 452.881 437.106C492.109 414.222 512 375.672 512 322.527C512 277.018 500.197 242.454 476.92 219.794C473.952 216.904 469.204 216.969 466.315 219.937C463.426 222.905 463.489 227.653 466.458 230.542C486.724 250.271 497 281.22 497 322.527C497 406.183 444.811 446.85 337.449 446.85C263.635 446.85 215.9 427.627 193.276 388.426C183.47 371.435 179.174 351.66 178.152 332.231C177.706 323.755 177.829 315.242 178.433 306.777C180.766 272.825 193.347 236.95 223.944 218.676C223.985 218.652 224.025 218.627 224.066 218.603C246.526 205.237 277.62 199.959 316.813 202.9C330.531 203.929 344.366 203.943 358.084 202.9C393.131 200.27 421.826 204.194 443.372 214.564C447.104 216.361 451.586 214.791 453.382 211.059C455.178 207.327 453.609 202.845 449.876 201.049C432.612 192.74 411.528 188.15 386.989 187.284C390.913 186.846 394.822 186.1 398.675 185.034C423.388 178.197 442.133 159.754 447.596 136.902C448.195 134.395 447.465 131.756 445.663 129.914C433.94 117.931 416.84 111.058 398.747 111.058C392.119 111.058 385.462 111.97 378.96 113.768C376.77 114.374 374.633 115.085 372.537 115.871C373.208 114.248 373.754 112.87 374.135 111.782C376.979 103.665 373.578 94.454 366.226 90.357L354.988 84.094C352.605 82.766 349.938 82.064 347.274 82.064C340.517 82.064 334.628 86.342 332.273 92.963C331.55 94.993 330.065 98.541 328.345 102.649C326.524 106.998 324.451 111.949 322.462 117.022C317.795 112.818 312.563 109.162 306.921 106.238C296.465 100.818 284.904 97.954 273.491 97.954C260.576 97.954 248.415 101.511 238.321 108.241C236.176 109.671 234.916 112.102 234.984 114.679C235.603 138.167 250.13 160.088 272.894 171.887C283.343 177.303 294.898 180.166 306.311 180.166C308.018 180.166 309.717 180.08 311.41 179.953C311.489 182.528 311.632 185.064 311.846 187.554C291.7 186.443 273.513 187.483 257.349 190.658C238.939 171.72 211.807 162.117 176.607 162.117C171.894 162.117 166.961 162.299 161.919 162.639C158.494 148.481 160.133 132.234 162.308 120.49C163.704 112.951 169.602 99.147 173.505 90.012C175.388 85.605 176.875 82.124 177.666 79.868C180.509 71.751 177.108 62.54 169.756 58.443L158.517 52.179C156.134 50.851 153.467 50.15 150.804 50.15C144.047 50.15 138.158 54.428 135.802 61.049C135.079 63.079 133.594 66.628 131.874 70.737C130.053 75.086 127.981 80.036 125.991 85.108C121.324 80.905 116.092 77.248 110.451 74.324C99.994 68.904 88.434 66.039 77.02 66.039C64.106 66.039 51.944 69.597 41.85 76.327C39.705 77.757 38.446 80.188 38.514 82.765C39.134 106.253 53.66 128.174 76.425 139.973C86.873 145.389 98.428 148.251 109.842 148.252C111.553 148.252 113.257 148.165 114.953 148.038C115.104 152.917 115.495 157.651 116.132 162.229C113.966 162.162 111.822 162.117 109.732 162.117C75.825 162.117 49.347 171.029 31.036 188.606C10.442 208.371 0 239.274 0 280.453C0 326.786 16.329 360.44 48.532 380.479ZM357.165 187.929C356.997 186.684 356.862 185.433 356.755 184.179C361.152 185.649 365.737 186.675 370.432 187.235C366.103 187.363 361.681 187.593 357.165 187.929ZM382.961 128.223C388.16 126.785 393.472 126.056 398.748 126.056C411.264 126.056 423.077 130.186 431.811 137.505C426.445 152.964 412.3 165.7 394.677 170.576C389.481 172.014 384.174 172.743 378.899 172.743C371.081 172.743 363.506 171.144 356.736 168.093C356.8 167.204 357.189 163.129 357.326 161.981C368.955 157.208 385.705 152.258 405.075 152.389C409.234 152.421 412.597 149.081 412.625 144.939C412.653 140.797 409.317 137.417 405.176 137.389C388.151 137.274 372.967 140.632 360.935 144.649C360.991 144.63 361.027 144.371 361.046 144.314C361.695 142.406 362.389 140.513 363.106 138.629C363.218 138.336 363.327 138.044 363.441 137.749C369.213 133.414 375.771 130.213 382.961 128.223ZM342.182 108.44C344.061 103.951 345.545 100.406 346.405 97.99C346.603 97.434 347.04 96.835 347.686 97.195L358.924 103.458C359.806 103.95 360.445 105.492 359.979 106.821C359.354 108.604 357.883 112.047 356.18 116.034C346.378 138.98 339.06 163.414 342.113 188.621C339.642 188.665 337.176 188.672 334.71 188.646C334.619 188.645 334.527 188.644 334.436 188.643C331.958 188.614 329.48 188.552 326.998 188.452C326.306 181.89 326.162 174.941 326.552 167.65C327.171 156.091 328.721 144.426 332.42 133.417C335.229 125.054 339.221 115.515 342.182 108.44ZM306.312 165.164C297.292 165.164 288.124 162.883 279.798 158.568C263.564 150.153 252.358 134.766 250.305 118.529C257.16 114.869 265.091 112.952 273.492 112.952C282.513 112.952 291.686 115.235 300.019 119.554C306.451 122.887 312.228 127.375 316.913 132.653C316.842 132.887 316.782 133.103 316.714 133.333C316.21 135.026 315.745 136.728 315.339 138.448C315.331 138.483 315.321 138.52 315.313 138.555C305.183 132.926 291.9 127.097 276.389 123.928C272.332 123.098 268.368 125.716 267.539 129.774C266.71 133.833 269.327 137.795 273.386 138.624C289.651 141.948 303.232 148.605 312.689 154.377C312.279 157.697 311.955 161.024 311.728 164.361C311.716 164.537 311.696 164.718 311.685 164.894C309.909 165.074 308.115 165.164 306.312 165.164ZM145.712 76.528C147.592 72.038 149.076 68.492 149.936 66.076C150.136 65.514 150.564 64.917 151.217 65.281L162.456 71.544C163.338 72.036 163.977 73.578 163.511 74.907C162.886 76.69 161.416 80.132 159.713 84.116C155.301 94.442 149.258 108.585 147.561 117.757C145.243 130.273 143.505 147.445 146.724 163.441C144.193 163.487 141.661 163.485 139.13 163.434C138.519 163.422 131.516 163.598 131.436 163.128C130.192 155.743 129.693 147.834 129.931 139.448C130.156 131.496 131.031 123.57 132.359 115.73C132.364 115.701 132.368 115.673 132.373 115.644C134.681 102.027 140.412 89.191 145.712 76.528ZM109.842 133.25C100.822 133.25 91.654 130.969 83.329 126.654C67.094 118.239 55.889 102.851 53.836 86.615C60.69 82.955 68.622 81.037 77.023 81.037C86.044 81.037 95.218 83.32 103.551 87.639C109.983 90.973 115.76 95.46 120.445 100.737C120.375 100.967 120.317 101.18 120.249 101.406C119.74 103.114 119.277 104.807 118.868 106.542C118.861 106.574 118.852 106.607 118.845 106.639C108.72 101.013 95.434 95.182 79.921 92.012C75.862 91.182 71.9 93.8 71.071 97.858C70.242 101.916 72.859 105.879 76.917 106.708C93.185 110.033 106.767 116.692 116.215 122.458C116 124.203 115.812 125.951 115.645 127.701C115.603 128.142 115.239 132.978 115.218 132.978C113.442 133.16 111.647 133.25 109.842 133.25ZM41.424 199.425C56.847 184.621 79.83 177.115 109.734 177.115C121.251 177.115 132.713 178.522 144.235 178.466C155.047 178.413 165.796 177.116 176.609 177.116C203.826 177.116 224.683 183.009 239.939 195.076C194.578 209.898 169.093 245.267 163.908 300.477C162.422 316.3 162.416 332.326 164.597 348.086C164.603 348.129 164.61 348.173 164.616 348.217C166.503 361.769 169.957 374.151 174.965 385.341C165.146 386.552 154.496 387.164 143.176 387.164C56.927 387.164 15 352.259 15 280.453C15 243.516 23.891 216.255 41.424 199.425Z" fill="black"/>
</svg>
