<svg width="512" height="512" viewBox="0 0 512 512" fill="none" xmlns="http://www.w3.org/2000/svg">
<g clip-path="url(#clip0)">
<path d="M142.547 394.618C151.395 401.929 161.747 407.201 172.867 410.05L196.261 416.066C207.565 418.957 216.864 426.961 221.409 437.705L246.307 497.192C248.538 502.547 254.695 505.071 260.043 502.84C262.591 501.771 264.622 499.749 265.691 497.192L290.589 437.705C295.134 426.961 304.433 418.956 315.737 416.066L339.131 410.05C373.812 401.177 398.067 369.904 398.033 334.103V312.038C329.631 365.886 245.087 395.111 158.037 395.011C152.841 395.011 147.694 394.819 142.547 394.618Z" fill="#6B2F59"/>
<path d="M363.862 315.581L356.677 300.492C373.88 292.304 385.218 282.236 388.61 272.127L397.257 275.035C391.233 224.655 348.514 186.731 297.775 186.723H214.225C158.857 186.723 113.966 231.614 113.966 286.982V334.104C113.966 357.531 124.451 379.739 142.548 394.619C147.695 394.82 152.841 395.012 158.038 395.012C245.088 395.112 329.632 365.887 398.034 312.039V289.48C388.968 300.859 377.23 309.824 363.862 315.581Z" fill="#80386A"/>
<path d="M300.197 21.879C311.652 18.596 323.591 25.221 326.874 36.676C328.077 40.862 327.977 45.315 326.598 49.451L322.838 60.814C328.862 64.724 332.488 71.425 332.446 78.61C332.596 89.797 324.116 99.213 312.979 100.249L289.418 102.588L255.998 186.138L222.578 102.588H199.435C187.529 102.58 177.871 92.921 177.879 81.016C177.879 75.285 180.168 69.787 184.229 65.743L189.158 60.814L185.064 52.626C179.75 41.948 184.095 28.981 194.772 23.668C199.376 21.379 204.639 20.802 209.627 22.047L230.932 27.394L238.37 17.2C245.371 7.583 258.848 5.47 268.465 12.471C270.136 13.691 271.623 15.136 272.876 16.782L281.064 27.393L300.197 21.879Z" fill="#307E45"/>
<path d="M213.798 333.778C185.959 330.896 159.031 322.19 134.777 308.22L143.775 294.142C165.974 306.791 190.571 314.645 215.987 317.21L213.798 333.778Z" fill="#AD5793"/>
<path d="M255.999 336.526C253.317 336.526 250.727 336.526 248.053 336.434C242.205 336.267 236.356 336.008 230.633 335.599L231.903 318.939C237.376 319.348 242.932 319.591 248.563 319.774C251.069 319.858 253.534 319.774 255.999 319.858V336.526Z" fill="#AD5793"/>
<path d="M356.676 300.491L363.861 315.58C377.229 309.832 388.959 300.867 398.033 289.496V286.99C398.008 282.996 397.749 279.003 397.256 275.042L388.609 272.134C385.217 282.219 373.879 292.304 356.676 300.491Z" fill="#AD5793"/>
<path d="M255.999 395.011C247.736 395.011 239.214 394.694 230.658 394.067L222.228 393.34L223.757 376.697L232.003 377.449C240.116 378.042 248.462 378.076 256.232 378.335C258.906 378.335 261.496 378.335 264.086 378.251C277.897 377.917 291.666 376.613 305.293 374.358L308.1 390.826C293.704 393.232 279.158 394.628 264.571 395.003C261.764 395.011 258.924 395.011 255.999 395.011Z" fill="#AD5793"/>
<path d="M330.116 386.113L325.755 369.988C329.607 368.944 333.375 367.908 336.976 366.696C345.164 364.139 353.118 360.873 360.746 356.946L368.483 371.751C360.036 376.121 351.23 379.755 342.157 382.612C338.371 383.849 334.285 384.985 330.116 386.113Z" fill="#AD5793"/>
<path d="M105.61 334.129C105.593 373.732 132.413 408.321 170.779 418.163L194.173 424.154C202.937 426.41 210.148 432.626 213.673 440.964L238.613 500.426C242.64 510.034 253.694 514.554 263.294 510.527C267.856 508.614 271.482 504.988 273.395 500.426L298.326 440.964C301.843 432.642 309.029 426.435 317.776 424.162L341.17 418.172C379.553 408.347 406.397 373.757 406.389 334.129V286.982C406.322 227.027 357.73 178.434 297.775 178.368H268.107L295.269 110.4L313.825 108.545C330.284 106.882 342.282 92.186 340.619 75.727C339.951 69.118 337.102 62.919 332.531 58.098L334.536 52.124C339.758 36.433 331.278 19.49 315.587 14.268C309.872 12.363 303.715 12.229 297.916 13.884L284.206 17.802L279.477 11.661C273.829 4.07499 264.831 -0.278006 255.381 0.0139943C245.948 0.0889943 237.125 4.65099 231.603 12.296L227.501 17.919L211.627 13.959C195.594 9.94899 179.343 19.699 175.333 35.732C173.595 42.667 174.406 49.986 177.597 56.377L178.992 59.168L178.307 59.853C166.618 71.542 166.618 90.491 178.307 102.179C183.922 107.794 191.525 110.943 199.462 110.943H216.924L243.894 178.367H214.226C154.271 178.434 105.678 227.026 105.612 286.981C105.61 286.982 105.61 334.129 105.61 334.129ZM230.341 99.488C229.071 96.313 225.996 94.233 222.579 94.233H199.461C192.159 94.225 186.252 88.301 186.252 81.007C186.252 77.506 187.647 74.156 190.12 71.675L195.066 66.729C197.631 64.197 198.274 60.304 196.679 57.079L192.585 48.899C189.318 42.349 191.983 34.395 198.542 31.128C200.33 30.242 202.293 29.766 204.282 29.741C205.41 29.749 206.529 29.891 207.624 30.159L228.954 35.498C232.254 36.325 235.73 35.064 237.735 32.315L245.137 22.147C247.585 18.772 251.478 16.758 255.648 16.716C259.8 16.699 263.727 18.596 266.292 21.863L274.488 32.491C276.577 35.206 280.111 36.368 283.403 35.432L302.553 29.96C309.58 27.988 316.865 32.082 318.845 39.109C319.555 41.649 319.497 44.339 318.661 46.837L314.885 58.175C313.699 61.751 315.044 65.678 318.177 67.766C324.251 71.81 325.897 80.014 321.853 86.097C319.656 89.389 316.105 91.528 312.161 91.92L288.558 94.276C285.458 94.585 282.785 96.599 281.632 99.489L255.999 163.647L230.341 99.488ZM122.32 286.982C122.378 236.251 163.493 195.136 214.225 195.077H297.775C342.875 195.161 381.266 227.929 388.418 272.461C384.876 282.487 373.655 292.413 356.669 300.5L363.871 315.539C373.254 311.253 381.951 305.597 389.679 298.762V334.129C389.687 366.112 368.023 394.034 337.043 401.971L313.649 407.97C299.838 411.546 288.484 421.355 282.936 434.497L258.005 493.959C257.094 496.131 254.955 496.131 254.045 493.959L229.114 434.497C223.55 421.346 212.178 411.538 198.351 407.97L174.957 401.971C143.977 394.034 122.312 366.112 122.321 334.129L122.32 286.982Z" fill="black"/>
<path d="M216.012 317.226C190.588 314.611 165.974 306.757 143.733 294.166L134.776 308.261C159.056 322.164 185.967 330.861 213.797 333.794L216.012 317.226Z" fill="black"/>
<path d="M255.999 336.526V319.816C253.493 319.816 251.003 319.783 248.538 319.724C242.915 319.599 237.384 319.315 231.945 318.888L230.658 335.548C236.373 335.991 242.205 336.267 248.153 336.383C250.761 336.476 253.376 336.526 255.999 336.526Z" fill="black"/>
<path d="M255.999 395.011C258.881 395.011 261.73 394.978 264.563 394.902C279.159 394.551 293.705 393.173 308.109 390.783L305.293 374.299C291.666 376.563 277.905 377.867 264.095 378.192C253.359 378.459 242.614 378.184 231.903 377.357C229.171 377.148 226.481 376.906 223.815 376.622L222.077 393.257C224.918 393.558 227.783 393.817 230.658 394.042C238.997 394.685 247.527 395.011 255.999 395.011Z" fill="black"/>
<path d="M342.164 382.612C351.229 379.746 360.035 376.112 368.482 371.751L360.745 356.946C353.134 360.864 345.205 364.123 337.042 366.696C333.424 367.874 329.673 368.952 325.796 369.963L329.973 386.138C334.193 385.044 338.254 383.866 342.164 382.612Z" fill="black"/>
</g>
<defs>
<clipPath id="clip0">
<rect width="511.999" height="511.999" fill="white"/>
</clipPath>
</defs>
</svg>
