<svg height="512" viewBox="0 0 128 128" width="512" xmlns="http://www.w3.org/2000/svg"><g><g><g fill="#c7e554"><path d="m97.56 23.218c-1.567 7.782-9.046 12.841-9.046 12.841s-4.938-7.559-3.371-15.342 9.047-12.842 9.047-12.842 4.938 7.56 3.37 15.343z"/><path d="m103.5 29.812c-1.567 7.783-9.046 12.841-9.046 12.841s-4.938-7.559-3.371-15.342 9.047-12.842 9.047-12.842 4.938 7.56 3.37 15.343z"/><path d="m77.114 24.5c-1.568 7.782 3.37 15.342 3.37 15.342s7.479-5.061 9.047-12.842-3.371-15.344-3.371-15.344-7.479 5.059-9.046 12.844z"/></g><path d="m103.13 33.936a21.1 21.1 0 0 0 -7.806.249c.043-.178.1-.35.134-.531 1.568-7.783-3.37-15.343-3.37-15.343s-7.479 5.059-9.047 12.842c-.036.181-.052.361-.082.542a21.089 21.089 0 0 0 -7.1-3.252c-2.629 6.876.2 14.066 5.92 18.269l-5.01 24.876c-2.72-6.243-6.7-6-6.7-6a13.393 13.393 0 0 0 4.952 14.669l-7.949 39.47 8.828 1.773 4.952-24.584a13.392 13.392 0 0 0 10.239-11.609s-3.574-1.76-8.5 2.944l8.009-39.763c6.9-1.659 12.293-7.194 12.53-14.552z" fill="#aac348"/><g><g fill="#c7e554"><path d="m30.44 23.218c1.567 7.782 9.046 12.841 9.046 12.841s4.938-7.559 3.371-15.342-9.047-12.842-9.047-12.842-4.938 7.56-3.37 15.343z"/><path d="m24.5 29.812c1.567 7.783 9.046 12.841 9.046 12.841s4.938-7.559 3.371-15.342-9.047-12.842-9.047-12.842-4.938 7.56-3.37 15.343z"/><path d="m50.886 24.5c1.568 7.782-3.37 15.342-3.37 15.342s-7.479-5.061-9.047-12.842 3.371-15.344 3.371-15.344 7.479 5.059 9.046 12.844z"/></g><path d="m32.541 33.654c1.568 7.783 9.047 12.846 9.047 12.846s4.938-7.56 3.371-15.343-9.047-12.842-9.047-12.842-4.938 7.556-3.371 15.339z" fill="#aac348"/><path d="m45.407 88.251-8.007-39.763c-6.9-1.659-12.292-7.194-12.53-14.552 6.469-1.211 14.173 2.144 14.646 2.365l.021.006.018-.014c.35-.387 6.155-6.462 12.588-7.85 2.629 6.876-.2 14.066-5.92 18.269l5.01 24.876c2.72-6.243 6.7-6 6.7-6a13.393 13.393 0 0 1 -4.952 14.669l7.949 39.47-8.83 1.773-4.948-24.584a13.392 13.392 0 0 1 -10.243-11.609s3.574-1.76 8.498 2.944z" fill="#aac348"/></g><path d="m70.333 20.875c0 7.939-6.333 14.375-6.333 14.375s-6.333-6.436-6.333-14.375 6.333-14.375 6.333-14.375 6.333 6.436 6.333 14.375z" fill="#aac348"/><path d="m77.458 26.167c0 7.939-6.333 14.375-6.333 14.375s-6.333-6.436-6.333-14.375 6.333-14.375 6.333-14.375 6.333 6.436 6.333 14.375z" fill="#aac348"/><path d="m50.542 26.167c0 7.939 6.333 14.375 6.333 14.375s6.333-6.436 6.333-14.375-6.333-14.375-6.333-14.375-6.333 6.436-6.333 14.375z" fill="#aac348"/><path d="m70.333 31.521c0 7.939-6.333 14.379-6.333 14.379s-6.333-6.436-6.333-14.375 6.333-14.379 6.333-14.379 6.333 6.436 6.333 14.375z" fill="#c7e554"/><path d="m68.5 87.583v-40.561c6.44-2.99 10.63-9.48 9.41-16.74-6.58.09-13.47 4.9-13.89 5.21l-.02.008-.02-.011c-.42-.31-7.31-5.12-13.89-5.21-1.22 7.26 2.97 13.75 9.41 16.74v25.381c-3.9-5.584-7.75-4.564-7.75-4.564a13.394 13.394 0 0 0 7.75 13.4v40.264h9v-25.078a13.393 13.393 0 0 0 7.75-13.4s-3.85-1.022-7.75 4.561z" fill="#c7e554"/></g><g fill="#190d28"><path d="m101.6 13.513a1.75 1.75 0 0 0 -2.447-.492c-.034.024-.245.169-.571.416a27.606 27.606 0 0 0 -2.922-6.515 1.75 1.75 0 0 0 -1.119-.757 1.733 1.733 0 0 0 -1.325.265 27.583 27.583 0 0 0 -5.219 4.878c-.214-.368-.354-.586-.368-.607a1.749 1.749 0 0 0 -2.443-.491 27.592 27.592 0 0 0 -7.622 8.332 27.939 27.939 0 0 0 -5.192-7.979 1.747 1.747 0 0 0 -1.247-.523 1.752 1.752 0 0 0 -1.248.524c-.029.031-.207.215-.478.522a27.52 27.52 0 0 0 -4.146-5.814 1.8 1.8 0 0 0 -2.494 0 27.52 27.52 0 0 0 -4.146 5.814c-.271-.307-.449-.491-.478-.522a1.75 1.75 0 0 0 -2.5 2.45 24.986 24.986 0 0 1 4.293 6.512 23.43 23.43 0 0 0 -3.881 10.062 23.082 23.082 0 0 0 -3.5-.841 14.333 14.333 0 0 1 -.246-2.577 16.93 16.93 0 0 1 2.021-7.657 1.75 1.75 0 0 0 -3.12-1.588c-.275.542-.519 1.082-.747 1.622a27.591 27.591 0 0 0 -7.625-8.337 1.749 1.749 0 0 0 -2.443.491c-.013.021-.153.238-.368.608a27.57 27.57 0 0 0 -5.23-4.879 1.751 1.751 0 0 0 -2.444.492 27.606 27.606 0 0 0 -2.922 6.515c-.326-.247-.537-.392-.571-.416a1.75 1.75 0 0 0 -2.447.492c-.218.333-5.313 8.257-3.62 16.647a17.714 17.714 0 0 0 .766 2.636 1.745 1.745 0 0 0 -.43 1.2c.241 7.4 5.326 13.659 12.777 15.9l6.924 34.369c-3.84-1.871-6.54-.6-6.685-.525a1.748 1.748 0 0 0 -.963 1.784 15.16 15.16 0 0 0 10.477 12.816l4.733 23.506a1.752 1.752 0 0 0 1.716 1.4 1.834 1.834 0 0 0 .345-.034l5.425-1.092a1.746 1.746 0 0 0 1.63 1.126h9a1.746 1.746 0 0 0 1.63-1.126l5.425 1.092a1.834 1.834 0 0 0 .345.034 1.752 1.752 0 0 0 1.716-1.4l4.733-23.506a15.16 15.16 0 0 0 10.477-12.816 1.748 1.748 0 0 0 -.963-1.784c-.145-.071-2.844-1.345-6.685.525l1.684-8.357a1.75 1.75 0 0 0 -3.431-.691l-2.557 12.683a1.751 1.751 0 0 0 2.926 1.617c2.286-2.18 4.12-2.715 5.254-2.782a11.563 11.563 0 0 1 -8.535 8.465 1.752 1.752 0 0 0 -1.385 1.373l-4.6 22.864-4.28-.861v-5.776l3.646-18.14a15 15 0 0 0 4.1-11.772 1.752 1.752 0 0 0 -1.3-1.56l-.107-.024.143-.706a1.758 1.758 0 0 0 -.736-1.798 11.572 11.572 0 0 1 -4.6-11.1c1.025.509 2.516 1.72 3.769 4.594a1.75 1.75 0 0 0 3.32-.353l5.011-24.885a1.748 1.748 0 0 0 -.681-1.757 15.639 15.639 0 0 1 -4.627-5.337 16.517 16.517 0 0 0 1.641-8.119c.707.381 1.42.8 2.143 1.288a33.821 33.821 0 0 1 5.124 4.279 1.8 1.8 0 0 0 1.951.548c.059-.021.119-.044.177-.071a33.042 33.042 0 0 1 6.443-2 21.77 21.77 0 0 1 5.56-.423c-.85 5.45-5.114 9.9-11.042 11.324a1.75 1.75 0 0 0 -1.306 1.356l-2.433 12.081a1.751 1.751 0 0 0 3.432.692l2.218-11.017c7.451-2.24 12.536-8.5 12.777-15.9a1.745 1.745 0 0 0 -.43-1.2 17.853 17.853 0 0 0 .767-2.64c1.694-8.39-3.402-16.314-3.614-16.647zm-7.937-2.988a25.078 25.078 0 0 1 1.985 5.493c-.561.566-1.151 1.2-1.738 1.914-.2-.352-.336-.558-.349-.578a1.752 1.752 0 0 0 -2.447-.494c-.019.014-.225.154-.555.4-.244-.8-.536-1.615-.863-2.43a25.143 25.143 0 0 1 3.962-4.305zm-8.029 3.78c.146.294.3.626.461.983.013.031.029.06.044.09s.019.041.029.061a25.072 25.072 0 0 1 1.456 4.411 23.317 23.317 0 0 0 -5.808 9.091 23.816 23.816 0 0 0 -2.673-1.295c.043-.5.072-.989.072-1.476a17.236 17.236 0 0 0 -.161-2.221c1.227-4.478 4.591-7.931 6.575-9.644zm-14.508.188c1.715 2.213 4.589 6.669 4.589 11.677a14.333 14.333 0 0 1 -.246 2.577 23.082 23.082 0 0 0 -3.5.841 23.43 23.43 0 0 0 -3.88-10.062 25.08 25.08 0 0 1 3.032-5.033zm-10.153-.293a24.968 24.968 0 0 1 3.027-5 24.951 24.951 0 0 1 3.027 5c-.438.665-.888 1.407-1.321 2.217-.249-.279-.42-.457-.459-.5a1.8 1.8 0 0 0 -2.494 0c-.039.04-.21.218-.459.5-.433-.808-.883-1.55-1.321-2.217zm2.352 6.563.039-.054c.223-.314.438-.6.636-.859.2.256.413.545.636.859.013.018.027.036.04.055a19.923 19.923 0 0 1 3.883 10.145 37.473 37.473 0 0 0 -4.559 2.491 37.473 37.473 0 0 0 -4.559-2.485 19.92 19.92 0 0 1 3.884-10.15zm-14.385 3.152a17.206 17.206 0 0 0 -.15 2.255c0 .487.029.98.072 1.476a23.979 23.979 0 0 0 -2.673 1.294 23.246 23.246 0 0 0 -5.807-9.092 24.452 24.452 0 0 1 1.51-4.514l.009-.02c.162-.367.321-.7.47-1.006 1.982 1.708 5.329 5.148 6.569 9.607zm-14.767 8.81a19.707 19.707 0 0 1 1.8-10.764c.164-.368.325-.706.475-1.009.234.2.487.426.751.673l.016.014c.023.024.048.046.073.068s.045.045.07.065a19.715 19.715 0 0 1 5.742 9.159c-.818.594-1.637 1.221-2.448 1.913-.6.52-1.126 1-1.533 1.4-.5-.2-1.154-.434-1.921-.68-.955-.321-1.984-.594-3.025-.839zm.169-22.2a25.084 25.084 0 0 1 3.97 4.313c-.328.81-.621 1.619-.866 2.426-.33-.249-.536-.39-.555-.4a1.752 1.752 0 0 0 -2.447.494c-.013.02-.145.226-.349.578-.587-.709-1.177-1.348-1.738-1.914a25.078 25.078 0 0 1 1.985-5.497zm-5.937 6.59a25.059 25.059 0 0 1 3.981 4.332 23.246 23.246 0 0 0 -1.833 10.643 23.035 23.035 0 0 0 -3.576-.131 14.2 14.2 0 0 1 -.761-2.5c-.991-4.905.946-9.839 2.189-12.344zm20.461 79.459a1.761 1.761 0 0 0 -1.377-1.374 11.569 11.569 0 0 1 -8.54-8.463c1.143.066 2.974.6 5.253 2.777a1.751 1.751 0 0 0 2.924-1.614l-8.01-39.759a1.75 1.75 0 0 0 -1.306-1.356c-5.928-1.426-10.193-5.875-11.042-11.325a21.76 21.76 0 0 1 5.548.422 31.725 31.725 0 0 1 3.788 1 25.463 25.463 0 0 1 2.664 1c.058.027.149.062.211.083a1.773 1.773 0 0 0 1.911-.551 27.686 27.686 0 0 1 2.037-1.914 34.809 34.809 0 0 1 3.1-2.369c.723-.487 1.436-.907 2.143-1.288a16.517 16.517 0 0 0 1.641 8.119 15.639 15.639 0 0 1 -4.626 5.338 1.749 1.749 0 0 0 -.681 1.757l.832 4.129a1.751 1.751 0 0 0 1.714 1.404 1.717 1.717 0 0 0 .347-.035 1.751 1.751 0 0 0 1.371-2.061l-.619-3.069a19.262 19.262 0 0 0 3.759-4.15 18.837 18.837 0 0 0 5.842 4.825v15.731a7.648 7.648 0 0 0 -4.827 2.206 6.576 6.576 0 0 0 -1.023.011l-1.723-8.548a1.75 1.75 0 0 0 -3.432.691l2.77 13.75a1.748 1.748 0 0 0 1 1.249 14.764 14.764 0 0 0 2.39 4.874 8.908 8.908 0 0 1 -.888.733 1.749 1.749 0 0 0 -.748 1.8l6.485 32.2v5.781l-4.28.862zm8.884-1.508-2.841-14.105c.121-.1.25-.22.386-.345a14.779 14.779 0 0 0 2.455 1.718zm13.443-2.619a1.687 1.687 0 0 0 -.157.148 11.689 11.689 0 0 1 -3.2 2.209 1.749 1.749 0 0 0 -1.086 1.619v23.327h-5.5v-38.512a1.763 1.763 0 0 0 -1.079-1.616 11.572 11.572 0 0 1 -6.7-9.981c1.108.289 2.8 1.178 4.6 3.759a1.75 1.75 0 0 0 3.185-1v-25.378a1.751 1.751 0 0 0 -1.013-1.587c-5.532-2.568-8.835-7.772-8.589-13.284 5.63.744 11.235 4.707 11.294 4.751a2.082 2.082 0 0 0 .276.166 1.794 1.794 0 0 0 1.84-.166c.059-.044 5.664-4.007 11.294-4.751.246 5.512-3.057 10.716-8.589 13.284a1.751 1.751 0 0 0 -1.013 1.587v40.561a1.75 1.75 0 0 0 3.185 1c1.807-2.589 3.5-3.476 4.6-3.765a11.176 11.176 0 0 1 -3.348 7.629zm1.893-11.468-.141.7a9.881 9.881 0 0 0 -2.695 1.484v-5.416a15.162 15.162 0 0 0 2.836 3.232zm6.765-33.554-3.924 19.486a8.185 8.185 0 0 0 -5.677-3.077v-15.734a18.837 18.837 0 0 0 5.842-4.829 19.262 19.262 0 0 0 3.759 4.154zm9.032-13.179a38.53 38.53 0 0 0 -3.975-3.328 19.8 19.8 0 0 1 5.733-9.139c.043-.036.083-.076.123-.116h.005c.011-.011.023-.02.034-.032.265-.247.518-.472.753-.673.151.3.311.641.476 1.011a19.689 19.689 0 0 1 1.8 10.746 38.223 38.223 0 0 0 -4.949 1.531zm8.566-2.155a23.232 23.232 0 0 0 -1.835-10.644 25.2 25.2 0 0 1 3.986-4.329c1.244 2.506 3.179 7.437 2.189 12.342a14.2 14.2 0 0 1 -.762 2.5 23.19 23.19 0 0 0 -3.578.131z"/><path d="m87.251 65.115a1.747 1.747 0 0 0 -2.062 1.37l-.668 3.315a1.751 1.751 0 0 0 1.371 2.061 1.722 1.722 0 0 0 .347.034 1.75 1.75 0 0 0 1.714-1.4l.668-3.315a1.751 1.751 0 0 0 -1.37-2.065z"/></g></g></svg>