<?xml version="1.0" encoding="iso-8859-1"?>
<!-- Generator: Adobe Illustrator 19.0.0, SVG Export Plug-In . SVG Version: 6.00 Build 0)  -->
<svg version="1.1" id="Capa_1" xmlns="http://www.w3.org/2000/svg" xmlns:xlink="http://www.w3.org/1999/xlink" x="0px" y="0px"
	 viewBox="0 0 511.189 511.189" style="enable-background:new 0 0 511.189 511.189;" xml:space="preserve">
<g>
	<rect x="339.454" y="163.764" style="fill:#965353;" width="15.973" height="28.952"/>
	<polygon style="fill:#965353;" points="177.878,86.24 161.757,88.884 171.732,27.984 187.706,27.984 	"/>
</g>
<g style="opacity:0.2;">
	<polygon style="fill:#FFFFFF;" points="179.719,27.984 171.732,27.984 161.757,88.884 169.962,87.542 	"/>
</g>
<path style="fill:#965353;" d="M347.444,243.629c18.289,0,63.895,39.295,63.895,87.855c0,48.482-45.605,87.855-63.895,87.855
	c-18.291,0-63.895-39.373-63.895-87.855C283.549,282.924,329.153,243.629,347.444,243.629z"/>
<g style="opacity:0.2;">
	<path style="fill:#FFFFFF;" d="M299.522,331.485c0-42.492,34.928-77.896,55.908-86.077c-2.994-1.162-5.701-1.778-7.986-1.778
		c-18.291,0-63.895,39.295-63.895,87.855c0,48.482,45.604,87.855,63.895,87.855c2.285,0,4.992-0.616,7.986-1.778
		C334.449,409.365,299.522,373.914,299.522,331.485z"/>
</g>
<g style="opacity:0.2;">
	<path d="M395.364,331.485c0-42.492-34.926-77.896-55.906-86.077c2.994-1.162,5.701-1.778,7.986-1.778
		c18.289,0,63.895,39.295,63.895,87.855c0,48.482-45.605,87.855-63.895,87.855c-2.285,0-4.992-0.616-7.986-1.778
		C360.438,409.365,395.364,373.914,395.364,331.485z"/>
</g>
<path style="fill:#FFCE54;" d="M347.444,187.721C490.008,139.8,507.18,251.218,507.18,339.471
	c0,88.254-87.855,167.725-159.736,167.725c-69.645,0-139.295-60.377-155.986-134.42c-2.473-10.856-3.752-22.041-3.752-33.305
	c0-77.793,13.337-173.55,114.132-162.373C315.418,178.619,330.51,182.051,347.444,187.721z M411.338,331.485
	c0-48.561-45.605-87.855-63.895-87.855c-18.291,0-63.895,39.295-63.895,87.855c0,48.482,45.604,87.855,63.895,87.855
	C365.733,419.34,411.338,379.967,411.338,331.485z"/>
<g style="opacity:0.5;">
	<path style="fill:#FFFFFF;" d="M207.432,372.776c-2.473-10.856-3.752-22.041-3.752-33.305c0-71.343,11.271-157.748,90.897-162.958
		c-94.142-5.826-106.871,87.083-106.871,162.958c0,11.264,1.279,22.448,3.752,33.305c16.691,74.043,86.341,134.42,155.986,134.42
		c2.799,0,5.639-0.164,8.479-0.397C288.844,502.68,223.522,444.158,207.432,372.776z"/>
</g>
<g style="opacity:0.2;">
	<path d="M487.946,372.776c2.473-10.856,3.752-22.041,3.752-33.305c0-71.343-11.27-157.748-90.896-162.958
		c94.143-5.826,106.871,87.083,106.871,162.958c0,11.264-1.279,22.448-3.752,33.305c-16.691,74.043-86.342,134.42-155.986,134.42
		c-2.799,0-5.639-0.164-8.477-0.397C406.533,502.68,471.856,444.158,487.946,372.776z"/>
</g>
<g>
	<path style="fill:#3A3847;" d="M299.764,359.439c-2.207,0-4.033-1.786-4.033-3.993s1.748-3.994,3.947-3.994h0.086
		c2.199,0,3.994,1.787,3.994,3.994S301.963,359.439,299.764,359.439z"/>
	<path style="fill:#3A3847;" d="M323.725,383.399c-2.207,0-4.033-1.785-4.033-3.993c0-2.207,1.748-3.993,3.947-3.993h0.086
		c2.199,0,3.992,1.786,3.992,3.993C327.717,381.614,325.924,383.399,323.725,383.399z"/>
	<path style="fill:#3A3847;" d="M347.686,407.36c-2.209,0-4.033-1.786-4.033-3.993s1.748-3.993,3.947-3.993h0.086
		c2.199,0,3.992,1.786,3.992,3.993S349.885,407.36,347.686,407.36z"/>
	<path style="fill:#3A3847;" d="M299.764,311.518c-2.207,0-4.033-1.786-4.033-3.994c0-2.207,1.748-3.993,3.947-3.993h0.086
		c2.199,0,3.994,1.786,3.994,3.993C303.758,309.732,301.963,311.518,299.764,311.518z"/>
	<path style="fill:#3A3847;" d="M323.725,335.478c-2.207,0-4.033-1.786-4.033-3.993s1.748-3.993,3.947-3.993h0.086
		c2.199,0,3.992,1.786,3.992,3.993S325.924,335.478,323.725,335.478z"/>
	<path style="fill:#3A3847;" d="M347.686,359.439c-2.209,0-4.033-1.786-4.033-3.993s1.748-3.994,3.947-3.994h0.086
		c2.199,0,3.992,1.787,3.992,3.994S349.885,359.439,347.686,359.439z"/>
	<path style="fill:#3A3847;" d="M371.645,383.399c-2.207,0-4.031-1.785-4.031-3.993c0-2.207,1.746-3.993,3.945-3.993h0.086
		c2.201,0,3.994,1.786,3.994,3.993C375.639,381.614,373.846,383.399,371.645,383.399z"/>
	<path style="fill:#3A3847;" d="M323.725,287.557c-2.207,0-4.033-1.786-4.033-3.993c0-2.208,1.748-3.993,3.947-3.993h0.086
		c2.199,0,3.992,1.785,3.992,3.993C327.717,285.771,325.924,287.557,323.725,287.557z"/>
	<path style="fill:#3A3847;" d="M347.686,311.518c-2.209,0-4.033-1.786-4.033-3.994c0-2.207,1.748-3.993,3.947-3.993h0.086
		c2.199,0,3.992,1.786,3.992,3.993C351.678,309.732,349.885,311.518,347.686,311.518z"/>
	<path style="fill:#3A3847;" d="M371.645,335.478c-2.207,0-4.031-1.786-4.031-3.993s1.746-3.993,3.945-3.993h0.086
		c2.201,0,3.994,1.786,3.994,3.993S373.846,335.478,371.645,335.478z"/>
	<path style="fill:#3A3847;" d="M395.606,359.439c-2.207,0-4.031-1.786-4.031-3.993s1.746-3.994,3.945-3.994h0.086
		c2.199,0,3.994,1.787,3.994,3.994S397.805,359.439,395.606,359.439z"/>
	<path style="fill:#3A3847;" d="M347.686,263.596c-2.209,0-4.033-1.785-4.033-3.993c0-2.207,1.748-3.993,3.947-3.993h0.086
		c2.199,0,3.992,1.786,3.992,3.993C351.678,261.811,349.885,263.596,347.686,263.596z"/>
	<path style="fill:#3A3847;" d="M371.645,287.557c-2.207,0-4.031-1.786-4.031-3.993c0-2.208,1.746-3.993,3.945-3.993h0.086
		c2.201,0,3.994,1.785,3.994,3.993C375.639,285.771,373.846,287.557,371.645,287.557z"/>
	<path style="fill:#3A3847;" d="M395.606,311.518c-2.207,0-4.031-1.786-4.031-3.994c0-2.207,1.746-3.993,3.945-3.993h0.086
		c2.199,0,3.994,1.786,3.994,3.993C399.6,309.732,397.805,311.518,395.606,311.518z"/>
</g>
<path style="fill:#A0D468;" d="M225.005,8.017c16.855-6.388,75.399-5.429,79.307,4.711c3.838,10.226-39.295,49.84-56.142,56.228
	c-16.777,6.396-35.621-1.996-42.017-18.844C199.764,33.257,208.149,14.49,225.005,8.017z"/>
<g style="opacity:0.3;">
	<path d="M304.311,12.728c-2.449-6.364-26.426-9.109-48.108-8.688c19.217,0.312,37.969,3.104,40.122,8.688
		c3.838,10.226-39.295,49.84-56.142,56.228c-2.418,0.921-4.867,1.451-7.332,1.778c5.039,0.585,10.257,0.148,15.318-1.778
		C265.016,62.568,308.149,22.953,304.311,12.728z"/>
</g>
<g style="opacity:0.5;">
	<path style="fill:#FFFFFF;" d="M214.139,50.112c-6.388-16.854,1.997-35.621,18.852-42.095c6.278-2.379,18.337-3.736,31.199-3.978
		c-15.654-0.266-31.62,1.115-39.186,3.978c-16.855,6.474-25.239,25.24-18.852,42.095c5.476,14.422,20.076,22.564,34.685,20.622
		C229.177,69.377,218.609,61.881,214.139,50.112z"/>
</g>
<path style="fill:#FC6E51;" d="M304.553,155.056l11.395,24.242l-14.109-2.2c-100.795-11.177-114.132,84.58-114.132,162.373
	c0,11.264,1.279,22.448,3.752,33.305l-19.726,4.797c-46.642-21.729-95.842-77.076-95.842-141.93
	c0-83.784,55.432-151.751,123.796-151.751C243.856,83.892,282.666,112.329,304.553,155.056z"/>
<g style="opacity:0.3;">
	<path style="fill:#FFFFFF;" d="M91.864,235.643c0-80.914,51.743-146.884,116.862-151.321c-2.987-0.266-5.998-0.43-9.04-0.43
		c-68.364,0-123.796,67.967-123.796,151.751c0,64.854,49.2,120.2,95.842,141.93l10.811-2.628
		C137.507,351.662,91.864,298.11,91.864,235.643z"/>
	<path style="fill:#FFFFFF;" d="M294.576,176.513c2.379,0.148,4.773,0.313,7.262,0.585l14.109,2.2l-1.146-2.441
		C307.61,176.201,300.879,176.1,294.576,176.513z"/>
</g>
<path style="fill:#FC6E51;" d="M191.458,372.776c3.12,13.899,8.15,27.314,14.616,39.856l-18.368-1.278
	c0,0-183.698-7.987-183.698-175.711c0-139.927,128.289-164.542,181.007-150.697l-38.999,13.961
	c-41.455,24.444-70.126,76.515-70.126,136.736c0,64.854,49.2,120.2,95.842,141.93L191.458,372.776z"/>
<g style="opacity:0.2;">
	<path d="M163.745,377.573l5.405-1.317c-45.854-22.534-93.26-76.952-93.26-140.612c0-60.222,28.671-112.292,70.126-136.736
		l38.999-13.961c-0.702-0.18-1.466-0.328-2.192-0.5c-64.207,5.601-114.92,71.087-114.92,151.197
		C67.903,300.496,117.103,355.843,163.745,377.573z"/>
</g>
<g style="opacity:0.3;">
	<path style="fill:#FFFFFF;" d="M203.68,411.354c0,0-183.698-7.987-183.698-175.711c0-112.939,83.55-150.736,143.514-153.841
		C103.766,78.541,4.008,112.237,4.008,235.643c0,167.724,183.698,175.711,183.698,175.711l18.368,1.278
		c-0.195-0.374-0.358-0.771-0.554-1.146L203.68,411.354z"/>
</g>
<g style="opacity:0.2;">
	<rect x="339.454" y="163.764" style="fill:#FFFFFF;" width="7.986" height="23.13"/>
</g>
<g>
	<path style="fill:#3A3847;" d="M171.732,381.567c-0.569,0-1.139-0.125-1.685-0.375c-48.779-22.721-98.151-80.009-98.151-145.549
		c0-59.332,28.297-114.352,72.093-140.176c17.315-10.327,36.065-15.568,55.697-15.568c44.372,0,84.9,27.416,108.423,73.34
		c0.717,1.357,1.459,2.84,2.207,4.415l2.043,4.484c0.898,2.021-0.016,4.376-2.027,5.273c-2.012,0.889-4.367,0-5.273-2.028
		l-1.996-4.384c-0.654-1.38-1.35-2.761-2.043-4.071c-22.15-43.249-60.019-69.042-101.333-69.042
		c-18.173,0-35.543,4.866-51.626,14.452c-41.424,24.421-68.177,76.741-68.177,133.305c0,62.194,47.055,116.659,93.533,138.311
		c2.005,0.929,2.87,3.308,1.935,5.305C174.673,380.708,173.238,381.567,171.732,381.567z"/>
	<path style="fill:#3A3847;" d="M187.706,415.347c-0.055,0-0.117,0-0.172,0c-1.879-0.086-187.52-10.116-187.52-179.704
		c0-144.934,130.2-156.781,145.051-157.655c1.7-0.086,2.644-0.086,2.706-0.086l0,0c2.2,0.008,3.986,1.794,3.986,3.994
		c0,2.207-1.778,3.993-3.986,3.993c-0.046,0-0.857,0.008-2.277,0.078C122.571,87.317,8.002,100.88,8.002,235.643
		c0,162.029,178.082,171.646,179.876,171.725c2.207,0.094,3.915,1.958,3.821,4.157C191.606,413.67,189.835,415.347,187.706,415.347z
		"/>
	<path style="fill:#3A3847;" d="M163.753,79.899c-0.218,0-0.445-0.016-0.663-0.055c-2.176-0.358-3.65-2.418-3.284-4.594
		l7.987-47.921c0.359-2.177,2.449-3.658,4.594-3.284c2.176,0.366,3.65,2.418,3.283,4.594l-7.986,47.922
		C167.356,78.518,165.665,79.899,163.753,79.899z"/>
	<path style="fill:#3A3847;" d="M179.727,79.899c-0.218,0-0.445-0.016-0.663-0.055c-2.176-0.358-3.65-2.418-3.284-4.594
		l7.987-47.921c0.366-2.177,2.449-3.658,4.594-3.284c2.176,0.366,3.65,2.418,3.284,4.594l-7.987,47.922
		C183.33,78.518,181.637,79.899,179.727,79.899z"/>
	<path style="fill:#3A3847;" d="M187.706,31.978h-15.974c-2.207,0-3.993-1.786-3.993-3.994c0-2.207,1.786-3.993,3.993-3.993h15.974
		c2.207,0,3.993,1.786,3.993,3.993C191.699,30.192,189.913,31.978,187.706,31.978z"/>
	<path style="fill:#3A3847;" d="M236.579,75.094c-15.085,0-28.813-9.469-34.163-23.57c-7.137-18.828,2.355-40.013,21.161-47.235
		C230.676,1.599,244.465,0,260.485,0c16.137,0,43.764,1.466,47.555,11.294c5.521,14.726-43.615,55.768-58.451,61.398
		C245.408,74.282,241.024,75.094,236.579,75.094z M260.485,7.986c-14.656,0-28.024,1.482-34.069,3.768
		c-14.687,5.639-22.112,22.213-16.527,36.939c4.18,11.013,14.905,18.415,26.69,18.415c3.471,0,6.895-0.632,10.17-1.88
		c17.503-6.638,55.073-44.131,53.802-51.166C299.272,12.057,286.114,7.986,260.485,7.986z"/>
	<path style="fill:#3A3847;" d="M347.444,511.189c-2.207,0-3.994-1.786-3.994-3.993s1.787-3.993,3.994-3.993
		c68.652,0,155.744-77.084,155.744-163.731c0-48.318-4.656-115.902-44.951-144.862c-25.098-18.041-61.943-19.086-109.521-3.097
		c-2.076,0.694-4.354-0.429-5.055-2.52c-0.701-2.09,0.422-4.352,2.512-5.054c50.145-16.848,89.424-15.451,116.73,4.181
		c43.264,31.104,48.271,101.278,48.271,151.352C511.174,430.338,419.614,511.189,347.444,511.189z"/>
	<path style="fill:#3A3847;" d="M347.444,511.189c-56.859,0-115.1-38.873-144.918-96.724c-6.817-13.229-11.855-26.963-14.968-40.815
		c-2.55-11.208-3.845-22.713-3.845-34.179c0-46.681,4.313-112.604,41.596-145.97c19.062-17.066,44.981-23.906,76.967-20.373
		l2.551,0.312c13.617,1.771,27.914,5.203,43.873,10.491c2.098,0.694,3.229,2.956,2.535,5.046c-0.695,2.091-2.957,3.229-5.047,2.535
		c-15.256-5.062-29.467-8.471-42.229-10.132l-2.486-0.304c-29.709-3.308-53.546,2.886-70.837,18.376
		c-34.904,31.237-38.937,94.875-38.937,140.019c0,10.865,1.232,21.777,3.65,32.424c2.964,13.197,7.769,26.285,14.273,38.912
		c28.484,55.261,83.87,92.396,137.821,92.396c2.207,0,3.992,1.786,3.992,3.993S349.651,511.189,347.444,511.189z"/>
	<path style="fill:#3A3847;" d="M347.444,423.333c-19.688,0-67.889-39.747-67.889-91.849c0-52.094,48.201-91.849,67.889-91.849
		c19.686,0,67.889,39.755,67.889,91.849C415.332,383.586,367.129,423.333,347.444,423.333z M347.444,247.622
		c-16.41,0-59.902,38.094-59.902,83.862c0,45.776,43.492,83.862,59.902,83.862s59.9-38.086,59.9-83.862
		C407.344,285.716,363.854,247.622,347.444,247.622z"/>
	<path style="fill:#3A3847;" d="M347.444,215.675c-2.207,0-3.994-1.786-3.994-3.993v-23.961c0-2.207,1.787-3.993,3.994-3.993
		s3.992,1.786,3.992,3.993v23.961C351.436,213.889,349.651,215.675,347.444,215.675z"/>
	<path style="fill:#3A3847;" d="M339.457,189.188c-2.209,0-3.994-1.786-3.994-3.993v-21.434c0-2.208,1.785-3.994,3.994-3.994
		c2.207,0,3.992,1.786,3.992,3.994v21.434C343.449,187.402,341.664,189.188,339.457,189.188z"/>
	<path style="fill:#3A3847;" d="M355.43,167.754h-15.973c-2.209,0-3.994-1.786-3.994-3.993c0-2.208,1.785-3.994,3.994-3.994h15.973
		c2.207,0,3.994,1.786,3.994,3.994C359.424,165.968,357.637,167.754,355.43,167.754z"/>
	<path style="fill:#3A3847;" d="M355.43,189.164c-2.207,0-3.994-1.786-3.994-3.993v-21.41c0-2.208,1.787-3.994,3.994-3.994
		s3.994,1.786,3.994,3.994v21.41C359.424,187.378,357.637,189.164,355.43,189.164z"/>
	<path style="fill:#3A3847;" d="M222.766,47.795c-1.053,0-2.098-0.413-2.886-1.232c-1.521-1.591-1.467-4.118,0.125-5.646
		c14.125-13.541,44.436-17.448,45.723-17.612c2.121-0.28,4.18,1.279,4.453,3.472c0.273,2.184-1.279,4.18-3.471,4.453
		c-0.281,0.039-28.968,3.752-41.183,15.451C224.755,47.429,223.757,47.795,222.766,47.795z"/>
</g>
<g>
</g>
<g>
</g>
<g>
</g>
<g>
</g>
<g>
</g>
<g>
</g>
<g>
</g>
<g>
</g>
<g>
</g>
<g>
</g>
<g>
</g>
<g>
</g>
<g>
</g>
<g>
</g>
<g>
</g>
</svg>
