<svg id="Capa_1" enable-background="new 0 0 512 512" height="512" viewBox="0 0 512 512" width="512" xmlns="http://www.w3.org/2000/svg"><path d="m333.367 86.418c-27.486 27.486-77.897 21.638-77.897 21.638s-5.848-50.411 21.638-77.897c27.486-27.486 77.897-21.638 77.897-21.638s5.848 50.411-21.638 77.897z" fill="#98db7c"/><path d="m355.005 8.521s-6.276-.726-15.6-.462c-.043 16.61-3.018 46.861-22.158 66-17.791 17.792-45.184 21.615-62.297 22.1-.019 7.243.52 11.897.52 11.897s50.411 5.848 77.897-21.638 21.638-77.897 21.638-77.897z" fill="#82d361"/><path d="m294.361 125.734c-13.345 0-26.223 2.863-38.361 8.166-12.138-5.304-25.016-8.166-38.361-8.166-72.709 0-131.651 84.678-131.651 189.133s58.942 189.133 131.651 189.133c13.345 0 26.223-2.863 38.361-8.166 12.138 5.303 25.016 8.166 38.361 8.166 72.709 0 131.651-84.678 131.651-189.133s-58.942-189.133-131.651-189.133z" fill="#936cff"/><path d="m217.611 125.734c-3.026 0-6.025.16-9 .449 68.494 6.648 122.623 88.577 122.623 188.684s-54.128 182.036-122.623 188.684c2.975.289 5.974.449 9 .449 72.693 0 131.623-84.678 131.623-189.133s-58.93-189.133-131.623-189.133z" fill="#8165ea"/><path d="m294.361 125.734c-3.034 0-6.042.156-9.025.446 68.522 6.629 122.676 88.566 122.676 188.686s-54.154 182.057-122.676 188.686c2.983.291 5.991.446 9.025.446 72.709 0 131.651-84.678 131.651-189.133s-58.942-189.131-131.651-189.131z" fill="#8165ea"/><path d="m85.921 328.289c2.664-.056 5.146-1.562 6.43-3.896 1.529-2.778.867-6.364.867-9.402 0-100.345 55.801-181.98 124.389-181.98 12.037 0 23.955 2.541 35.425 7.553.096.042.195.072.292.11 31.391 13.786 58.298 45.48 74.235 89.369 1.472 4.051 6.211 6.056 10.148 4.288 3.541-1.59 5.303-5.771 3.979-9.417-14.738-40.587-38.412-71.711-66.695-89.652 6.424-1.493 12.936-2.251 19.484-2.251 23.625 0 46.648 9.82 66.578 28.398 19.867 18.52 35.704 44.677 45.797 75.646 1.286 3.945 5.528 6.103 9.473 4.816 3.946-1.286 6.102-5.528 4.816-9.473-10.881-33.382-28.115-61.731-49.839-81.981-22.762-21.218-49.328-32.434-76.826-32.434-10.275 0-20.456 1.577-30.395 4.684-.018-2.078-.09-4.379-.241-6.866 1.059.025 2.172.042 3.375.042 17.8 0 50.44-3.209 71.656-24.425 1.895-1.896 3.71-3.95 5.391-6.105 2.554-3.271 1.972-7.993-1.3-10.547-3.269-2.552-7.993-1.971-10.547 1.301-1.305 1.672-2.708 3.261-4.172 4.724-19.219 19.221-52.021 20.36-65.651 19.911-.445-13.633.694-46.433 19.912-65.651 19.223-19.224 52.032-20.357 65.656-19.911.265 7.926-.002 22.333-4.067 36.782-1.124 3.995 1.203 8.144 5.198 9.269 3.99 1.121 8.144-1.203 9.269-5.198 6.862-24.386 4.255-47.814 4.141-48.799-.402-3.464-3.135-6.196-6.599-6.599-2.21-.254-54.458-5.935-84.225 23.831-11.708 11.708-17.929 26.894-21.156 41.146-8.917-18.028-23.983-37.349-49.443-52.143-3.591-2.085-8.189-.866-10.273 2.722-2.085 3.588-.867 8.188 2.721 10.273 26.493 15.394 43.777 37.876 51.373 66.822 3.114 11.866 3.888 22.474 3.94 29.745-10.267-3.327-20.799-5.008-31.432-5.008-37.764 0-73.078 20.855-99.437 58.723-25.782 37.039-39.981 86.15-39.981 138.286 0 3.137-.55 6.947 1.187 9.744 1.394 2.241 3.911 3.601 6.547 3.553z"/><path d="m428.829 262.078c-.797-4.072-4.739-6.729-8.82-5.929-4.072.798-6.727 4.746-5.929 8.819 3.174 16.195 4.784 33.025 4.784 50.023 0 100.345-55.801 181.98-124.389 181.98-6.551 0-13.066-.759-19.495-2.253 28.287-17.94 51.966-49.058 66.706-89.649 1.417-3.901-.598-8.211-4.499-9.628-3.9-1.417-8.211.599-9.628 4.498-15.937 43.889-42.843 75.583-74.234 89.369-.097.038-.197.068-.293.11-11.471 5.011-23.389 7.553-35.425 7.553-59.42 0-110.775-61.917-122.111-147.226-.547-4.114-4.315-7.004-8.439-6.459-4.113.546-7.006 4.325-6.459 8.439 12.341 92.87 69.962 160.275 137.01 160.275 13.064 0 25.977-2.538 38.434-7.548 12.456 5.011 25.37 7.548 38.434 7.548 37.764 0 73.078-20.855 99.437-58.723 25.782-37.039 39.981-86.15 39.981-138.286-.001-17.966-1.705-35.769-5.065-52.913z"/></svg>