<svg id="Layer_1" enable-background="new 0 0 128 128" viewBox="0 0 128 128" xmlns="http://www.w3.org/2000/svg"><g><g><path d="m67.7 121.5-7.3-1.7 19-76.9 5.9 1.4z" fill="#be551c"/><path d="m102.3 38.7c3.5 3.3-.9 13.2-5.9 12-2 8.3-14.5 8.8-16 14.9l-1.4-.3-3.4-.8-1.4-.3c1.4-6.1-9.5-12.2-7.6-20.5-5-1.2-4.5-12 .1-13.4-.6-3.9 2.8-10.7 8.1-9.6.5-5.4 6.2-14.3 15.8-12s10.8 12.7 8.8 17.8c5.2 1.4 5.2 9 2.9 12.2z" fill="#aac348"/><path d="m60.3 121.5 7.3-1.7-19-76.9-5.9 1.4z" fill="#be551c"/><path d="m61.4 43.6c2 8.3-9 14.4-7.6 20.5l-1.4.3-3.4.9-1.4.3c-1.4-6.1-14-6.6-16-14.9-5 1.2-9.4-8.7-5.9-12-2.3-3.2-2.3-10.8 2.9-12.2-2-5.1-.9-15.5 8.8-17.8s15.3 6.5 15.9 12c5.3-1.1 8.7 5.7 8.1 9.6 4.5 1.3 5 12.1 0 13.3z" fill="#aac348"/><path d="m67.8 121.5h-7.6l.8-79.1h6z" fill="#df6421"/><path d="m79.3 46c0 8.5-12.1 11.9-12.1 18.2h-6.4c0-6.3-12.1-9.7-12.1-18.2-5.2 0-7.2-10.7-3-13-1.5-3.6.3-11 5.6-11.2-.7-5.4 2.8-15.3 12.7-15.3s13.4 9.9 12.7 15.3c5.4.1 7.1 7.5 5.6 11.2 4.1 2.3 2.2 13-3 13z" fill="#c7e554"/></g><path d="m77.7 85.6-.6 2.8c-.2.9-1.1 1.5-2.1 1.3-.9-.2-1.5-1.1-1.3-2.1l.6-2.8c.2-.9 1.2-1.5 2.1-1.3.9.3 1.5 1.2 1.3 2.1zm26.8-47c1.6 2.6.9 6.4-.6 9.2-1.6 2.9-3.8 4.6-6.2 4.8-1.7 4.2-5.8 6.4-9.5 8.4-2.9 1.5-5.6 3-6.1 5.1l-3.1 13.6c-.2.8-.9 1.5-2.1 1.3-1-.1-1.5-1.1-1.3-2.1l2.7-12-2.9-.7-6.2 25.2.1 15 3.1-13.7c.2-.9 1.2-1.5 2.1-1.3s1.5 1.2 1.3 2.1l-6.4 28.1c-.1.7-.6 1.5-1.7 1.5h-7.5c-.9 0-1.6-.7-1.7-1.5l-12.6-55.6c-.5-2.1-3.2-3.5-6.1-5.1-3.7-2-7.8-4.2-9.4-8.4-2.3-.2-4.6-1.9-6.2-4.8-1.5-2.8-2.2-6.6-.6-9.2-1.3-2.8-1.5-6-.5-8.9.6-1.7 1.8-3.2 3.4-4.1-.9-3.9-.4-8 1.4-11.5 1.9-3.6 5.2-6.1 9.1-7 3.5-.9 7.3-.4 10.4 1.5.8.5 1.1 1.6.6 2.4s-1.6 1.1-2.4.6c-2.3-1.4-5.1-1.8-7.8-1.1-2.9.6-5.5 2.5-6.8 5.2-1.6 3.2-1.9 6.9-.7 10.3.4.9-.1 2-1 2.3-1.5.4-2.5 1.4-2.9 2.7-.8 2.3-.5 4.8.7 6.8.5.7.4 1.7-.2 2.3-1.1 1-.9 3.8.4 6.1.8 1.6 2.4 3.3 3.9 2.9.9-.2 1.9.4 2.1 1.3.9 3.7 4.6 5.7 8.1 7.6 2.8 1.5 5.7 3.1 7.1 5.6l-2.5-11c-2.3-2.4-9.4-6.2-11.8-7.4-.9-.4-1.2-1.5-.8-2.4.4-.8 1.4-1.2 2.3-.8 3.1 1.5 6.1 3.2 9 5.1l-.3-1.4c-1.1-1.2-1.8-2.7-2.2-4.3s-.5-3.2-.3-4.9c-1.9-1.4-4-2.5-6.2-3.4-.9-.3-1.5-1.2-1.2-2.1s1.2-1.5 2.1-1.2c1.6.5 3.1 1.2 4.5 2.1l-2.1-8.9c-.2-.9.4-1.9 1.3-2.1s1.9.4 2.1 1.3l1.3 5.6c.3-1.4.8-2.8 1.6-4.1 1-1.6 2.5-2.7 4.2-3.3 0-4 1.5-7.9 4-10.9 5.2-5.8 14.1-6.2 19.9-1 .4.3.7.7 1 1 .8.9 1.4 1.9 2 2.9 3.4-4.6 9.2-6.7 14.6-5.3 3.9.8 7.2 3.3 9.1 6.9.4.9.1 1.9-.7 2.4-.8.4-1.9.1-2.3-.7-1.4-2.6-3.9-4.5-6.8-5.1-5.9-1.5-10.2 2-12.3 5.9.3 1.3.5 2.6.5 3.9 1.8.5 3.3 1.7 4.2 3.3.8 1.2 1.3 2.6 1.6 4.1l1.3-5.6c.2-.9 1.2-1.5 2.1-1.3s1.5 1.2 1.3 2.1l-2 8.8c1.4-.9 2.9-1.6 4.4-2.1.9-.3 1.9.3 2.2 1.2s-.3 1.9-1.2 2.2c-2.2.8-4.3 2-6.2 3.5.2 1.6.1 3.3-.3 4.9s-1.1 3-2.2 4.3l-.3 1.4c2.9-1.9 5.9-3.6 9-5.1.9-.4 1.9 0 2.3.9.4.8 0 1.8-.8 2.3-2.4 1.1-9.4 4.9-11.8 7.4l-2.6 10.9c1.4-2.5 4.3-4 7.1-5.6 3.6-1.9 7.2-3.9 8.1-7.6.2-.9 1.2-1.5 2.1-1.3 1.5.4 3.1-1.3 3.9-2.9 1.3-2.4 1.5-5.1.4-6.1-.6-.6-.7-1.6-.2-2.3 1.2-2.1 1.5-4.6.7-6.8-.4-1.3-1.4-2.3-2.7-2.6-.9-.3-1.5-1.3-1.1-2.4.4-1.2.7-2.5.7-3.8 0-1 .8-1.7 1.8-1.7s1.7.8 1.7 1.8c0 1.1-.2 2.2-.4 3.3 1.6.9 2.8 2.4 3.4 4.1.9 3 .7 6.2-.5 9zm-28.5 24 2.2-9.2c-1.2 1.5-2.6 2.8-4.1 4.1 1.1 1.5 1.8 3.3 1.9 5.1zm-30.5-22.1c.7 2.9 2.2 3.7 3.2 3.7s1.7.8 1.7 1.7c0 3.8 3.1 6.6 6.1 9.3 3.4 3 4.9 4.6 5.7 7v-11.1c-1.7-2.9-7.7-8.2-9.8-9.9-.8-.6-.9-1.7-.3-2.5s1.7-.9 2.5-.3c1.4 1 5.2 4.6 7.6 7.1v-10.4c-1.5-2.1-3.4-3.9-5.5-5.4-.9-.4-1.2-1.5-.7-2.4.4-.9 1.5-1.2 2.4-.7 1.4.9 2.7 1.9 3.9 3.1v-9.2c0-1 .8-1.8 1.8-1.8s1.8.8 1.8 1.8v9.2c1.2-1.2 2.5-2.2 3.9-3.1.8-.5 1.9-.2 2.4.7.5.8.2 1.9-.7 2.4-2.2 1.4-4 3.2-5.5 5.4v10.4c2.4-2.5 4.9-4.8 7.6-7 .7-.6 1.8-.5 2.5.2.6.7.5 1.8-.2 2.5 0 0 0 0-.1 0-2.1 1.7-8.1 7-9.8 9.9v11.2c.7-2.4 2.6-4.4 5.7-7 3-2.6 6.1-5.5 6.1-9.3 0-1 .8-1.7 1.7-1.8.6-.1 2.1 0 3.2-3.7s-.4-5.7-1-6c-.8-.4-1-1.4-.8-2.2.8-2.3.4-4.8-.9-6.8-.7-1.1-1.9-1.9-3.2-1.9-.5 0-1-.2-1.3-.6s-.5-.9-.4-1.4c.2-1.7 0-3.3-.5-4.9 0 0 0 0 0-.1-.5-1.8-1.4-3.5-2.6-4.9-3.9-4.4-11.5-4.8-15.7 0-2.3 2.7-3.4 6.3-3.1 9.9.1.5-.1 1-.4 1.4s-.8.6-1.3.6c-1.3 0-2.5.8-3.2 1.9-1.3 2-1.6 4.5-.9 6.8.3.8 0 1.8-.8 2.2-.5.3-2.1 2-1.1 6zm11 19.4c-.8 1.1-1.1 2.5-.9 3.8l3.4 13.7v-13.2c0-1.5-1.1-2.9-2.5-4.3zm-2.7-2.4c-1.5-1.2-2.8-2.6-4.1-4.1l2.2 9.2c.2-1.8.9-3.6 1.9-5.1zm-4.1 9.4 9 39.5.1-15-6.2-25.2zm12.3 52.9h4l-.3-28.5v-.1l-.2-25.2h-3l-.2 25.2v.1zm7.1-42.4 3.4-13.7c.2-1.4-.2-2.7-.9-3.8-1.5 1.4-2.6 2.8-2.6 4.3zm-5.1-63.1c1.3-.1 2.5.4 3.3 1.4.6.7 1.7.8 2.5.2.7-.6.8-1.7.2-2.5-1.5-1.7-3.7-2.7-6-2.6-1 0-1.8.8-1.8 1.8s.8 1.7 1.8 1.7z" fill="#190d28"/></g></svg>