<svg id="Capa_1" enable-background="new 0 0 511.208 511.208" height="512" viewBox="0 0 511.208 511.208" width="512" xmlns="http://www.w3.org/2000/svg"><g><g><path d="m421.033 131.386c.1-10.857-1.902-21.794-5.429-32.024-5.512-15.981-15.512-30.1-29.402-39.757-1.537-1.068-3.563-1.13-5.16-.155-14.243 8.694-24.981 21.951-31.456 37.321-5.265 12.496-8.551 26.628-7.101 40.274 2.31 21.735 11.592 43.401 28.518 57.876 1.611 1.378 3.282 2.687 5.005 3.923.285.205 1.558 1.04 2.783 1.839 1.554 1.014 3.561 1.02 5.119.012 3.973-2.569 7.701-5.515 11.123-8.783 16.047-15.322 25.795-38.241 26-60.526z" fill="#91deb6"/></g><g><path d="m421.034 131.388c-.21 22.28-9.95 45.2-26 60.52-3.42 3.27-7.15 6.22-11.12 8.79-1.56 1.01-3.57 1-5.12-.01-1.23-.8-2.5-1.64-2.79-1.84-.72-.52-1.42-1.05-2.12-1.58.76-.66 1.5-1.35 2.23-2.04 16.05-15.33 25.8-38.25 26-60.53.1-10.86-1.9-21.8-5.43-32.03-4.91-14.24-13.38-27-25-36.43 2.92-2.5 6.05-4.77 9.36-6.79 1.59-.97 3.62-.91 5.16.16 13.89 9.65 23.89 23.77 29.4 39.75 3.53 10.23 5.53 21.17 5.43 32.03z" fill="#6ed5a1"/></g><g><path d="m447.347 203.758c9.585-5.101 18.236-12.086 25.536-20.074 11.404-12.479 19.027-28.011 20.872-44.827.204-1.86-.71-3.669-2.33-4.607-14.443-8.356-31.22-11.453-47.816-9.796-13.493 1.347-27.477 5.214-38.771 13.01-17.988 12.416-32.585 30.924-37.211 52.71-.44 2.074-.792 4.167-1.054 6.271-.043.348-.169 1.865-.286 3.323-.148 1.85.806 3.616 2.436 4.503 4.155 2.262 8.525 4.129 13.031 5.574 21.128 6.773 45.919 4.383 65.593-6.087z" fill="#00c27a"/></g><g><path d="m493.754 138.858c-1.84 16.82-9.47 32.35-20.87 44.83-7.3 7.98-15.95 14.97-25.54 20.07-19.67 10.47-44.46 12.86-65.59 6.09-4.51-1.45-8.88-3.31-13.03-5.58-1.04-.56-1.82-1.49-2.2-2.57 20.75 6.11 44.73 3.58 63.87-6.61 9.59-5.1 18.24-12.09 25.54-20.07 11.4-12.48 19.03-28.02 20.87-44.83.1-.89-.06-1.77-.43-2.54 5.21 1.64 10.26 3.83 15.05 6.6 1.62.94 2.53 2.75 2.33 4.61z" fill="#08b865"/></g><g><path d="m315.831 203.758c-9.585-5.101-18.236-12.086-25.536-20.074-11.404-12.479-19.027-28.011-20.872-44.827-.204-1.86.71-3.669 2.33-4.607 14.443-8.356 31.22-11.453 47.816-9.796 13.493 1.347 27.477 5.214 38.771 13.01 17.988 12.416 32.585 30.924 37.211 52.71.44 2.074.792 4.167 1.054 6.271.043.348.169 1.865.286 3.323.148 1.85-.806 3.616-2.436 4.503-4.155 2.262-8.525 4.129-13.031 5.574-21.129 6.773-45.92 4.383-65.593-6.087z" fill="#00c27a"/></g><g><path d="m394.454 204.268c-2.79 1.53-5.69 2.87-8.66 4.03-.11-.53-.22-1.06-.33-1.59-4.62-21.79-19.22-40.29-37.21-52.71-11.29-7.8-25.27-11.66-38.77-13.01-13.25-1.33-26.62.38-38.83 5.39-.54-2.47-.95-4.98-1.23-7.52-.21-1.86.71-3.67 2.33-4.61 14.44-8.35 31.22-11.45 47.81-9.79 13.5 1.34 27.48 5.21 38.78 13.01 17.98 12.41 32.58 30.92 37.21 52.71.44 2.07.79 4.16 1.05 6.27.04.35.17 1.86.29 3.32.14 1.85-.81 3.62-2.44 4.5z" fill="#08b865"/></g><g><path d="m111.191 182.716c-7.606-7.748-16.755-14.066-26.484-18.805-15.198-7.403-32.253-10.315-48.903-7.322-1.842.331-3.318 1.72-3.758 3.539-3.924 16.218-2.142 33.186 4.147 48.633 5.113 12.559 12.782 24.875 23.457 33.499 17.002 13.735 38.886 22.492 61.09 20.759 2.114-.165 4.221-.421 6.313-.765.346-.057 1.837-.366 3.268-.667 1.816-.382 3.239-1.797 3.629-3.611.993-4.626 1.546-9.345 1.655-14.076.513-22.182-8.801-45.281-24.414-61.184z" fill="#91deb6"/></g><g><path d="m135.604 243.898c-.11 4.73-.66 9.45-1.65 14.08-.39 1.81-1.82 3.23-3.63 3.61-1.43.3-2.92.61-3.27.67-1.19.19-2.39.36-3.59.5.08-1.11.13-2.23.16-3.35.51-22.18-8.8-45.28-24.42-61.19-7.6-7.74-16.75-14.06-26.48-18.8-13.25-6.45-27.9-9.5-42.47-8.19.31-3.72.9-7.43 1.79-11.1.44-1.82 1.92-3.21 3.76-3.54 16.65-2.99 33.71-.08 48.9 7.32 9.73 4.74 18.88 11.06 26.49 18.81 15.61 15.9 24.92 39 24.41 61.18z" fill="#6ed5a1"/></g><g><path d="m180.973 215.284c3.171-10.384 4.349-21.44 3.862-32.251-.76-16.888-6.353-33.261-16.939-46.456-1.171-1.46-3.097-2.093-4.905-1.61-16.122 4.304-30.175 13.977-40.738 26.884-8.588 10.493-15.742 23.116-18.216 36.615-3.94 21.499-1.174 44.908 10.96 63.583 1.155 1.778 2.387 3.506 3.689 5.18.216.277 1.199 1.438 2.148 2.552 1.203 1.413 3.127 1.986 4.906 1.462 4.538-1.338 8.948-3.108 13.155-5.273 19.73-10.151 35.57-29.371 42.078-50.686z" fill="#00c27a"/></g><g><path d="m180.974 215.288c-6.51 21.31-22.35 40.53-42.08 50.68-4.21 2.17-8.62 3.94-13.15 5.27-1.78.53-3.71-.04-4.91-1.46-.95-1.11-1.93-2.27-2.15-2.55-.26-.33-.51-.67-.76-1 .18-.08.35-.17.53-.26 19.73-10.15 35.57-29.37 42.08-50.68 3.17-10.39 4.35-21.44 3.86-32.25-.7-15.53-5.48-30.63-14.48-43.21 4.17-2.01 8.55-3.65 13.08-4.86 1.81-.48 3.73.15 4.9 1.61 10.59 13.19 16.18 29.57 16.94 46.46.49 10.81-.69 21.86-3.86 32.25z" fill="#08b865"/></g><g><path d="m87.977 308.28c-10.384 3.171-21.44 4.349-32.251 3.862-16.888-.76-33.261-6.353-46.456-16.939-1.46-1.171-2.093-3.097-1.61-4.905 4.304-16.122 13.977-30.175 26.884-40.738 10.493-8.588 23.116-15.742 36.615-18.216 21.499-3.94 44.908-1.174 63.583 10.96 1.778 1.155 3.506 2.387 5.18 3.689.277.216 1.438 1.199 2.552 2.148 1.413 1.203 1.986 3.127 1.462 4.906-1.338 4.538-3.108 8.948-5.273 13.155-10.151 19.73-29.372 35.57-50.686 42.078z" fill="#00c27a"/></g><g><path d="m143.934 253.048c-1.14 3.87-2.6 7.65-4.34 11.28-.44-.3-.89-.59-1.33-.88-18.67-12.13-42.08-14.9-63.58-10.96-13.5 2.48-26.12 9.63-36.62 18.22-9.64 7.89-17.48 17.74-22.62 28.94-2.12-1.36-4.18-2.84-6.17-4.44-1.46-1.18-2.1-3.1-1.61-4.91 4.3-16.12 13.97-30.17 26.88-40.74 10.49-8.59 23.12-15.74 36.61-18.21 21.5-3.94 44.91-1.18 63.59 10.96 1.78 1.15 3.5 2.38 5.18 3.69.27.21 1.44 1.19 2.55 2.14 1.41 1.21 1.99 3.13 1.46 4.91z" fill="#08b865"/></g><g><path d="m503.708 284.604c0-67.445-54.675-122.12-122.12-122.12s-122.12 54.675-122.12 122.12c0 21.664 5.973 40.435 15.522 59.61 13.414 26.935 42.58 76.011 87.642 102.975 11.643 6.967 26.195 7.004 37.854.063 26.932-16.033 48.798-40.296 66.191-66.077 4.555-6.753 8.842-13.686 12.872-20.765 13.471-23.668 24.159-47.98 24.159-75.806z" fill="#e94444"/></g><g><path d="m503.704 284.608c0 27.82-10.68 52.13-24.16 75.8-4.02 7.08-8.31 14.02-12.87 20.77-17.39 25.78-39.26 50.04-66.19 66.08-11.29 6.72-25.28 6.9-36.73.58 5.54-.43 11.01-2.12 15.96-5.07 26.93-16.03 48.8-40.29 66.19-66.07 4.56-6.75 8.84-13.69 12.87-20.77 13.47-23.67 24.16-47.98 24.16-75.8 0-54.86-36.17-101.27-85.96-116.68 60.19 7.57 106.73 58.92 106.73 121.16z" fill="#d83131"/></g><g><path d="m277.993 232.597c-47.691-47.691-125.012-47.691-172.703 0s-47.691 125.012 0 172.703c15.318 15.318 32.815 24.368 53.127 31.175 28.531 9.561 83.856 23.639 134.787 10.843 13.16-3.306 23.475-13.57 26.811-26.722 7.706-30.381 6.012-62.999.08-93.528-1.554-7.996-3.425-15.93-5.582-23.785-7.211-26.261-16.844-51.01-36.52-70.686z" fill="#e94444"/></g><g><path d="m320.014 420.598c-3.34 13.15-13.65 23.41-26.81 26.72-8.34 2.1-16.78 3.47-25.22 4.26 1.42-.31 2.84-.64 4.26-1 13.16-3.31 23.47-13.57 26.81-26.72 7.71-30.38 6.01-63 .08-93.53-1.55-8-3.42-15.93-5.58-23.78-7.21-26.27-16.85-51.01-36.52-70.69-25.96-25.96-60.7-37.79-94.66-35.49 40.12-9.86 84.27.88 115.62 32.23 19.67 19.67 29.31 44.42 36.52 70.69 2.16 7.85 4.03 15.78 5.58 23.78 5.93 30.53 7.63 63.15-.08 93.53z" fill="#d83131"/></g><g><path d="m414.647 310.577c-4.142 0-7.5 3.358-7.5 7.5v13.384c0 4.142 3.358 7.5 7.5 7.5s7.5-3.358 7.5-7.5v-13.384c0-4.142-3.358-7.5-7.5-7.5z"/><path d="m348.53 310.577c-4.142 0-7.5 3.358-7.5 7.5v13.384c0 4.142 3.358 7.5 7.5 7.5s7.5-3.358 7.5-7.5v-13.384c0-4.142-3.358-7.5-7.5-7.5z"/><path d="m381.589 258.622c-4.142 0-7.5 3.358-7.5 7.5v13.384c0 4.142 3.358 7.5 7.5 7.5s7.5-3.358 7.5-7.5v-13.384c0-4.142-3.358-7.5-7.5-7.5z"/><path d="m452.201 258.622c-4.142 0-7.5 3.358-7.5 7.5v13.384c0 4.142 3.358 7.5 7.5 7.5s7.5-3.358 7.5-7.5v-13.384c0-4.142-3.358-7.5-7.5-7.5z"/><path d="m381.589 355.695c-4.142 0-7.5 3.358-7.5 7.5v13.384c0 4.142 3.358 7.5 7.5 7.5s7.5-3.358 7.5-7.5v-13.384c0-4.142-3.358-7.5-7.5-7.5z"/><path d="m473.732 193.536c1.593-1.544 3.164-3.126 4.687-4.792 12.942-14.161 20.823-31.129 22.791-49.069.528-4.815-1.839-9.492-6.029-11.916-15.42-8.922-33.509-12.646-52.316-10.767-5.2.519-10.212 1.367-14.99 2.525-.653-5.682-1.8-11.412-3.451-17.135-1.148-3.98-5.303-6.276-9.285-5.128-3.98 1.148-6.276 5.305-5.128 9.285 1.724 5.979 2.81 11.942 3.268 17.808-4.597 1.977-8.858 4.294-12.701 6.947-7.154 4.938-13.514 10.526-18.993 16.612-5.476-6.087-11.831-11.675-18.983-16.612-3.829-2.643-8.073-4.953-12.651-6.925.767-7.842 2.972-16.199 6.547-24.685 5.854-13.896 15.136-25.221 26.906-32.858 4.532 3.342 8.667 7.293 12.312 11.766 2.616 3.211 7.341 3.693 10.552 1.076 3.211-2.616 3.693-7.341 1.076-10.552-4.922-6.041-10.595-11.312-16.859-15.667-3.977-2.765-9.216-2.921-13.349-.399-15.206 9.282-27.122 23.395-34.46 40.811-3.66 8.688-6.088 17.351-7.242 25.691-4.817-1.174-9.871-2.034-15.118-2.558-18.803-1.878-36.897 1.846-52.317 10.767-4.19 2.424-6.557 7.102-6.029 11.916 1.967 17.94 9.848 34.908 22.791 49.069 1.525 1.669 3.089 3.274 4.685 4.822-6.889 6.974-13.003 14.714-18.182 23.094-23.1-18.007-50.943-27.093-78.831-27.262.032-2.216-.001-4.45-.103-6.701-.862-19.165-7.287-36.736-18.581-50.813-3.031-3.778-8.011-5.414-12.689-4.163-17.212 4.595-32.637 14.754-44.607 29.38-3.309 4.042-6.253 8.185-8.812 12.381-5.921-4.697-12.486-8.826-19.646-12.314-17.248-8.402-35.754-11.155-53.515-7.961-4.766.857-8.582 4.451-9.721 9.157-4.189 17.315-2.637 35.72 4.491 53.224 3.556 8.736 7.978 16.564 13.063 23.277-4.242 2.578-8.43 5.547-12.516 8.891-14.625 11.97-24.785 27.395-29.38 44.607-1.249 4.677.384 9.657 4.163 12.69 14.077 11.294 31.648 17.719 50.813 18.581 1.713.077 3.415.116 5.107.116.514 0 1.023-.017 1.535-.025.2 34.333 13.657 66.58 37.955 90.879 5.657 5.657 11.624 10.568 18.239 15.014 3.439 2.311 8.098 1.396 10.408-2.042s1.396-8.098-2.042-10.408c-5.802-3.898-11.035-8.207-15.999-13.17-44.69-44.69-44.69-117.407 0-162.097 44.689-44.689 117.405-44.691 162.097 0 10.97 10.97 23.658 27.553 34.591 67.369 2.13 7.76 3.964 15.576 5.452 23.23 6.592 33.93 6.597 64.295.013 90.253-2.662 10.49-10.85 18.649-21.369 21.292-49.082 12.332-102.877-1.398-130.576-10.68-1.475-.494-2.934-1.001-4.378-1.521-3.896-1.403-8.194.618-9.598 4.515s.618 8.194 4.515 9.598c1.549.558 3.113 1.101 4.695 1.631 20.848 6.986 55.756 16.338 93.208 16.338 15.101 0 30.622-1.522 45.79-5.333 14.024-3.524 25.294-13.555 30.504-26.767 9.951 9.599 21.014 18.482 33.246 25.802 7.045 4.215 14.943 6.322 22.841 6.322 7.85 0 15.7-2.083 22.701-6.251 24.924-14.838 47.995-37.827 68.571-68.327 4.572-6.777 9.004-13.927 13.172-21.25 12.432-21.844 25.141-48.373 25.141-79.517-.004-35.466-14.324-67.644-37.48-91.071zm-410.931 111.162c-2.236.06-4.485.053-6.738-.048-15.31-.689-29.327-5.583-40.662-14.175 3.991-13.452 12.223-25.56 23.893-35.111 10.872-8.897 22.358-14.653 33.216-16.643 6.227-1.141 12.44-1.624 18.512-1.501-15.794 19.373-25.522 42.648-28.221 67.478zm33.86-107.584c-1.568 8.554-2.112 17.004-1.676 25.183-8.178-.437-16.626.103-25.178 1.67-4.575.839-9.208 2.206-13.838 4.048-5.004-6.087-9.356-13.553-12.829-22.083-5.687-13.967-7.131-28.538-4.209-42.26 14.063-2.131 28.714.269 42.492 6.981 7.065 3.441 13.63 7.728 19.307 12.569-1.853 4.648-3.228 9.299-4.069 13.892zm80.73-6.936c-24.127 2.645-47.644 12.032-67.471 28.161-.126-6.075.353-12.291 1.495-18.52 1.99-10.859 7.745-22.345 16.643-33.217 9.551-11.67 21.658-19.902 35.11-23.893 8.593 11.335 13.486 25.352 14.175 40.662.102 2.276.111 4.548.048 6.807zm231.707-46.541c9.085-6.271 21.276-10.324 35.255-11.719 15.005-1.499 29.387 1.242 41.722 7.932-1.939 14.091-8.391 27.463-18.729 38.775-1.539 1.684-3.15 3.284-4.793 4.837-18.927-15.182-42.184-25.176-67.599-27.792 4.201-4.384 8.934-8.437 14.144-12.033zm-131.996-3.787c12.333-6.689 26.714-9.429 41.722-7.932 13.979 1.395 26.17 5.448 35.256 11.719 5.214 3.599 9.958 7.652 14.171 12.035-25.421 2.612-48.686 12.599-67.615 27.786-1.647-1.553-3.265-3.147-4.805-4.833-10.339-11.313-16.79-24.684-18.729-38.775zm195.929 216.851c-3.981 6.994-8.21 13.817-12.571 20.281-19.331 28.654-40.799 50.128-63.81 63.827-9.298 5.536-20.858 5.516-30.167-.054-13.761-8.235-25.998-18.659-36.72-29.884 4.53-25.363 3.768-53.965-2.307-85.233-1.56-8.025-3.481-16.214-5.711-24.34-6.655-24.236-16.427-51.981-38.449-74.004-.195-.195-.395-.383-.591-.576 19.928-33.913 56.785-56.733 98.883-56.733 63.202 0 114.62 51.418 114.62 114.619 0 15.514-2.754 36.212-23.177 72.097z"/><path d="m243.989 313.939c-2.929-2.929-7.678-2.929-10.606 0-2.929 2.929-2.929 7.678 0 10.606l9.464 9.464c1.464 1.464 3.384 2.197 5.303 2.197s3.839-.732 5.303-2.197c2.929-2.929 2.929-7.678 0-10.606z"/><path d="m186.631 360.69c-2.929 2.929-2.929 7.678 0 10.606l9.464 9.464c1.464 1.465 3.384 2.197 5.303 2.197s3.839-.732 5.303-2.197c2.929-2.929 2.929-7.678 0-10.606l-9.464-9.464c-2.928-2.929-7.677-2.928-10.606 0z"/><path d="m183.876 300.577c-2.929-2.929-7.678-2.929-10.606 0-2.929 2.929-2.929 7.678 0 10.606l9.464 9.464c1.464 1.464 3.384 2.197 5.303 2.197s3.839-.732 5.303-2.197c2.929-2.929 2.929-7.678 0-10.606z"/><path d="m233.806 250.646c-2.929-2.93-7.678-2.929-10.606 0-2.929 2.929-2.929 7.678 0 10.606l9.464 9.464c1.464 1.465 3.384 2.197 5.303 2.197s3.839-.732 5.303-2.197c2.929-2.929 2.929-7.678 0-10.606z"/><path d="m133.945 350.507c-2.929-2.929-7.678-2.929-10.606 0-2.929 2.929-2.929 7.678 0 10.606l9.464 9.464c1.464 1.464 3.384 2.197 5.303 2.197s3.839-.732 5.303-2.197c2.929-2.929 2.929-7.678 0-10.606z"/><path d="m241.911 369.218c-2.929 2.929-2.929 7.677 0 10.606l9.464 9.464c1.464 1.465 3.384 2.197 5.303 2.197s3.839-.732 5.303-2.197c2.929-2.929 2.929-7.677 0-10.606l-9.464-9.464c-2.928-2.93-7.677-2.929-10.606 0z"/></g></g></svg>