<?xml version="1.0" encoding="iso-8859-1"?>
<!-- Generator: Adobe Illustrator 19.0.0, SVG Export Plug-In . SVG Version: 6.00 Build 0)  -->
<svg version="1.1" id="Capa_1" xmlns="http://www.w3.org/2000/svg" xmlns:xlink="http://www.w3.org/1999/xlink" x="0px" y="0px"
	 viewBox="0 0 512 512" style="enable-background:new 0 0 512 512;" xml:space="preserve">
<path style="fill:#6CB89C;" d="M46.014,82.566c0.525,19.923,13.012,39.939,33.864,50.747s44.406,9.472,60.988-1.584
	c-0.525-19.923-13.012-39.939-33.864-50.747S62.596,71.509,46.014,82.566z"/>
<path style="fill:#3E9073;" d="M166.107,64.992l-11.239-6.263c-4.642-2.587-10.151-0.358-11.998,4.832
	c-2.82,7.926-14.526,32.838-17.223,47.104c-6.583,34.827-3.272,63.721,9.839,85.878l24.991-17.312
	c-10.495-17.739-8.807-42.479-5.543-60.109c2.204-11.907,13.282-34.965,15.654-41.736C172.227,72.712,170.278,67.317,166.107,64.992
	z"/>
<g>
	<path style="fill:#6CB89C;" d="M242.483,114.479c0.525,19.923,13.012,39.939,33.864,50.747s44.406,9.472,60.988-1.584
		c-0.525-19.923-13.012-39.939-33.864-50.747S259.065,103.423,242.483,114.479z"/>
	<path style="fill:#6CB89C;" d="M440.303,135.157c-4.634,19.384-20.99,36.385-43.626,42.647
		c-22.636,6.262-45.405,0.084-59.342-14.162c4.634-19.384,20.99-36.385,43.626-42.647
		C403.598,114.733,426.366,120.91,440.303,135.157z"/>
</g>
<path style="fill:#3E9073;" d="M362.576,96.906l-11.239-6.263c-4.642-2.587-10.151-0.358-11.998,4.832
	c-2.82,7.926-14.526,32.838-17.223,47.104c-6.583,34.827-3.272,63.721,9.839,85.878l24.991-17.312
	c-10.495-17.739-8.807-42.479-5.543-60.109c2.204-11.907,13.282-34.965,15.654-41.736
	C368.696,104.626,366.747,99.231,362.576,96.906z"/>
<path style="fill:#CD7D0A;" d="M143.176,394.664C82.26,394.664,7.5,377.926,7.5,280.453c0-90.435,50.847-115.611,119.371-110.125
	c10.853,0.869,21.756,0.869,32.608,0c68.524-5.486,119.371,19.69,119.371,110.125C278.852,377.926,204.092,394.664,143.176,394.664z
	"/>
<path style="fill:#B46D09;" d="M37.5,280.453c0-75.877,35.798-105.809,87.795-110.241C57.571,165.24,7.5,190.714,7.5,280.453
	c0,97.474,74.76,114.211,135.676,114.211c4.925,0,9.941-0.112,15-0.364C100.66,391.428,37.5,370.046,37.5,280.453z"/>
<path style="fill:#E88D0C;" d="M337.449,454.35c-75.002,0-167.051-19.319-167.051-131.823c0-104.38,62.606-133.438,146.976-127.107
	c13.362,1.003,26.787,1.003,40.149,0c84.371-6.331,146.977,22.727,146.977,127.107C504.5,435.031,412.452,454.35,337.449,454.35z"/>
<path style="fill:#C0760A;" d="M210.398,322.527c0-86.945,43.443-121.623,106.715-127.125
	c-84.238-6.251-146.715,22.853-146.715,127.125c0,112.504,92.048,131.823,167.051,131.823c6.56,0,13.252-0.152,20-0.498
	C287.048,450.253,210.398,425.191,210.398,322.527z"/>
<path d="M48.532,380.479c23.449,14.592,54.407,21.685,94.644,21.685c14.132,0,27.331-0.913,39.321-2.715
	c9.648,15.331,22.827,27.918,39.522,37.657c28.543,16.65,66.301,24.744,115.431,24.744s86.888-8.094,115.431-24.744
	C492.109,414.222,512,375.672,512,322.527c0-45.509-11.803-80.073-35.08-102.733c-2.968-2.89-7.716-2.825-10.605,0.143
	s-2.826,7.716,0.143,10.605C486.724,250.271,497,281.22,497,322.527c0,83.656-52.189,124.323-159.551,124.323
	c-73.814,0-121.549-19.223-144.173-58.424c-9.806-16.991-14.102-36.766-15.124-56.195c-0.446-8.476-0.323-16.989,0.281-25.454
	c2.333-33.952,14.914-69.827,45.511-88.101c0.041-0.024,0.081-0.049,0.122-0.073c22.46-13.366,53.554-18.644,92.747-15.703
	c13.718,1.029,27.553,1.043,41.271,0c35.047-2.63,63.742,1.294,85.288,11.664c3.732,1.797,8.214,0.227,10.01-3.505
	c1.796-3.732,0.227-8.214-3.506-10.01c-17.264-8.309-38.348-12.899-62.887-13.765c3.924-0.438,7.833-1.184,11.686-2.25
	c24.713-6.837,43.458-25.28,48.921-48.132c0.599-2.507-0.131-5.146-1.933-6.988c-11.723-11.983-28.823-18.856-46.916-18.856
	c-6.628,0-13.285,0.912-19.787,2.71c-2.19,0.606-4.327,1.317-6.423,2.103c0.671-1.623,1.217-3.001,1.598-4.089
	c2.844-8.117-0.557-17.328-7.909-21.425l-11.238-6.263c-2.383-1.328-5.05-2.03-7.714-2.03c-6.757,0-12.646,4.278-15.001,10.899
	c-0.723,2.03-2.208,5.578-3.928,9.686c-1.821,4.349-3.894,9.3-5.883,14.373c-4.667-4.204-9.899-7.86-15.541-10.784
	c-10.456-5.42-22.017-8.284-33.43-8.284c-12.915,0-25.076,3.557-35.17,10.287c-2.145,1.43-3.405,3.861-3.337,6.438
	c0.619,23.488,15.146,45.409,37.91,57.208c10.449,5.416,22.004,8.279,33.417,8.279c1.707,0,3.406-0.086,5.099-0.213
	c0.079,2.575,0.222,5.111,0.436,7.601c-20.146-1.111-38.333-0.071-54.497,3.104c-18.41-18.938-45.542-28.541-80.742-28.541
	c-4.713,0-9.646,0.182-14.688,0.522c-3.425-14.158-1.786-30.405,0.389-42.149c1.396-7.539,7.294-21.343,11.197-30.478
	c1.883-4.407,3.37-7.888,4.161-10.144c2.843-8.117-0.558-17.328-7.91-21.425l-11.239-6.264c-2.383-1.328-5.05-2.029-7.713-2.029
	c-6.757,0-12.646,4.278-15.002,10.899c-0.723,2.03-2.208,5.579-3.928,9.688c-1.821,4.349-3.893,9.299-5.883,14.371
	c-4.667-4.203-9.899-7.86-15.54-10.784c-10.457-5.42-22.017-8.285-33.431-8.285c-12.914,0-25.076,3.558-35.17,10.288
	c-2.145,1.43-3.404,3.861-3.336,6.438c0.62,23.488,15.146,45.409,37.911,57.208c10.448,5.416,22.003,8.278,33.417,8.279
	c1.711,0,3.415-0.087,5.111-0.214c0.151,4.879,0.542,9.613,1.179,14.191c-2.166-0.067-4.31-0.112-6.4-0.112
	c-33.907,0-60.385,8.912-78.696,26.489C10.442,208.371,0,239.274,0,280.453C0,326.786,16.329,360.44,48.532,380.479z
	 M357.165,187.929c-0.168-1.245-0.303-2.496-0.41-3.75c4.397,1.47,8.982,2.496,13.677,3.056
	C366.103,187.363,361.681,187.593,357.165,187.929z M382.961,128.223c5.199-1.438,10.511-2.167,15.787-2.167
	c12.516,0,24.329,4.13,33.063,11.449c-5.366,15.459-19.511,28.195-37.134,33.071c-5.196,1.438-10.503,2.167-15.778,2.167
	c-7.818,0-15.393-1.599-22.163-4.65c0.064-0.889,0.453-4.964,0.59-6.112c11.629-4.773,28.379-9.723,47.749-9.592
	c4.159,0.032,7.522-3.308,7.55-7.45c0.028-4.142-3.308-7.522-7.449-7.55c-17.025-0.115-32.209,3.243-44.241,7.26
	c0.056-0.019,0.092-0.278,0.111-0.335c0.649-1.908,1.343-3.801,2.06-5.685c0.112-0.293,0.221-0.585,0.335-0.88
	C369.213,133.414,375.771,130.213,382.961,128.223z M342.182,108.44c1.879-4.489,3.363-8.034,4.223-10.45
	c0.198-0.556,0.635-1.155,1.281-0.795l11.238,6.263c0.882,0.492,1.521,2.034,1.055,3.363c-0.625,1.783-2.096,5.226-3.799,9.213
	c-9.802,22.946-17.12,47.38-14.067,72.587c-2.471,0.044-4.937,0.051-7.403,0.025c-0.091-0.001-0.183-0.002-0.274-0.003
	c-2.478-0.029-4.956-0.091-7.438-0.191c-0.692-6.562-0.836-13.511-0.446-20.802c0.619-11.559,2.169-23.224,5.868-34.233
	C335.229,125.054,339.221,115.515,342.182,108.44z M306.312,165.164c-9.02,0-18.188-2.281-26.514-6.596
	c-16.234-8.415-27.44-23.802-29.493-40.039c6.855-3.66,14.786-5.577,23.187-5.577c9.021,0,18.194,2.283,26.527,6.602
	c6.432,3.333,12.209,7.821,16.894,13.099c-0.071,0.234-0.131,0.45-0.199,0.68c-0.504,1.693-0.969,3.395-1.375,5.115
	c-0.008,0.035-0.018,0.072-0.026,0.107c-10.13-5.629-23.413-11.458-38.924-14.627c-4.057-0.83-8.021,1.788-8.85,5.846
	c-0.829,4.059,1.788,8.021,5.847,8.85c16.265,3.324,29.846,9.981,39.303,15.753c-0.41,3.32-0.734,6.647-0.961,9.984
	c-0.012,0.176-0.032,0.357-0.043,0.533C309.909,165.074,308.115,165.164,306.312,165.164z M145.712,76.528
	c1.88-4.49,3.364-8.036,4.224-10.452c0.2-0.562,0.628-1.159,1.281-0.795l11.239,6.263c0.882,0.492,1.521,2.034,1.055,3.363
	c-0.625,1.783-2.095,5.225-3.798,9.209c-4.412,10.326-10.455,24.469-12.152,33.641c-2.318,12.516-4.056,29.688-0.837,45.684
	c-2.531,0.046-5.063,0.044-7.594-0.007c-0.611-0.012-7.614,0.164-7.694-0.306c-1.244-7.385-1.743-15.294-1.505-23.68
	c0.225-7.952,1.1-15.878,2.428-23.718c0.005-0.029,0.009-0.057,0.014-0.086C134.681,102.027,140.412,89.191,145.712,76.528z
	 M109.842,133.25c-9.02,0-18.188-2.281-26.513-6.596c-16.235-8.415-27.44-23.803-29.493-40.039
	c6.854-3.66,14.786-5.578,23.187-5.578c9.021,0,18.195,2.283,26.528,6.602c6.432,3.334,12.209,7.821,16.894,13.098
	c-0.07,0.23-0.128,0.443-0.196,0.669c-0.509,1.708-0.972,3.401-1.381,5.136c-0.007,0.032-0.016,0.065-0.023,0.097
	c-10.125-5.626-23.411-11.457-38.924-14.627c-4.059-0.83-8.021,1.788-8.85,5.846s1.788,8.021,5.846,8.85
	c16.268,3.325,29.85,9.984,39.298,15.75c-0.215,1.745-0.403,3.493-0.57,5.243c-0.042,0.441-0.406,5.277-0.427,5.277
	C113.442,133.16,111.647,133.25,109.842,133.25z M41.424,199.425c15.423-14.804,38.406-22.31,68.31-22.31
	c11.517,0,22.979,1.407,34.501,1.351c10.812-0.053,21.561-1.35,32.374-1.35c27.217,0,48.074,5.893,63.33,17.96
	c-45.361,14.822-70.846,50.191-76.031,105.401c-1.486,15.823-1.492,31.849,0.689,47.609c0.006,0.043,0.013,0.087,0.019,0.131
	c1.887,13.552,5.341,25.934,10.349,37.124c-9.819,1.211-20.469,1.823-31.789,1.823C56.927,387.164,15,352.259,15,280.453
	C15,243.516,23.891,216.255,41.424,199.425z"/>
<g>
</g>
<g>
</g>
<g>
</g>
<g>
</g>
<g>
</g>
<g>
</g>
<g>
</g>
<g>
</g>
<g>
</g>
<g>
</g>
<g>
</g>
<g>
</g>
<g>
</g>
<g>
</g>
<g>
</g>
</svg>
