<?xml version="1.0" encoding="iso-8859-1"?>
<!-- Generator: Adobe Illustrator 19.0.0, SVG Export Plug-In . SVG Version: 6.00 Build 0)  -->
<svg version="1.1" id="Capa_1" xmlns="http://www.w3.org/2000/svg" xmlns:xlink="http://www.w3.org/1999/xlink" x="0px" y="0px"
	 viewBox="0 0 511.999 511.999" style="enable-background:new 0 0 511.999 511.999;" xml:space="preserve">
<path style="fill:#6B2F59;" d="M142.547,394.618c8.848,7.311,19.2,12.583,30.32,15.432l23.394,6.016
	c11.304,2.891,20.603,10.895,25.148,21.639l24.898,59.487c2.231,5.355,8.388,7.879,13.736,5.648
	c2.548-1.069,4.579-3.091,5.648-5.648l24.898-59.487c4.545-10.744,13.844-18.749,25.148-21.639l23.394-6.016
	c34.681-8.873,58.936-40.146,58.902-75.947v-22.065c-68.402,53.848-152.946,83.073-239.996,82.973
	C152.841,395.011,147.694,394.819,142.547,394.618z"/>
<path style="fill:#80386A;" d="M363.862,315.581l-7.185-15.089c17.203-8.188,28.541-18.256,31.933-28.365l8.647,2.908
	c-6.024-50.38-48.743-88.304-99.482-88.312h-83.55c-55.368,0-100.259,44.891-100.259,100.259v47.122
	c0,23.427,10.485,45.635,28.582,60.515c5.147,0.201,10.293,0.393,15.49,0.393c87.05,0.1,171.594-29.125,239.996-82.973V289.48
	C388.968,300.859,377.23,309.824,363.862,315.581z"/>
<path style="fill:#307E45;" d="M300.197,21.879c11.455-3.283,23.394,3.342,26.677,14.797c1.203,4.186,1.103,8.639-0.276,12.775
	l-3.76,11.363c6.024,3.91,9.65,10.611,9.608,17.796c0.15,11.187-8.33,20.603-19.467,21.639l-23.561,2.339l-33.42,83.55l-33.42-83.55
	h-23.143c-11.906-0.008-21.564-9.667-21.556-21.572c0-5.731,2.289-11.229,6.35-15.273l4.929-4.929l-4.094-8.188
	c-5.314-10.678-0.969-23.645,9.708-28.958c4.604-2.289,9.867-2.866,14.855-1.621l21.305,5.347L238.37,17.2
	c7.001-9.617,20.478-11.73,30.095-4.729c1.671,1.22,3.158,2.665,4.411,4.311l8.188,10.611L300.197,21.879z"/>
<g>
	<path style="fill:#AD5793;" d="M213.798,333.778c-27.839-2.882-54.767-11.588-79.021-25.558l8.998-14.078
		c22.199,12.649,46.796,20.503,72.212,23.068L213.798,333.778z"/>
	<path style="fill:#AD5793;" d="M255.999,336.526c-2.682,0-5.272,0-7.946-0.092c-5.848-0.167-11.697-0.426-17.42-0.835l1.27-16.66
		c5.473,0.409,11.029,0.652,16.66,0.835c2.506,0.084,4.971,0,7.436,0.084V336.526z"/>
	<path style="fill:#AD5793;" d="M356.676,300.491l7.185,15.089c13.368-5.748,25.098-14.713,34.172-26.084v-2.506
		c-0.025-3.994-0.284-7.987-0.777-11.948l-8.647-2.908C385.217,282.219,373.879,292.304,356.676,300.491z"/>
	<path style="fill:#AD5793;" d="M255.999,395.011c-8.263,0-16.785-0.317-25.341-0.944l-8.43-0.727l1.529-16.643l8.246,0.752
		c8.113,0.593,16.459,0.627,24.229,0.886c2.674,0,5.264,0,7.854-0.084c13.811-0.334,27.58-1.638,41.207-3.893l2.807,16.468
		c-14.396,2.406-28.942,3.802-43.529,4.177C261.764,395.011,258.924,395.011,255.999,395.011z"/>
	<path style="fill:#AD5793;" d="M330.116,386.113l-4.361-16.125c3.852-1.044,7.62-2.08,11.221-3.292
		c8.188-2.557,16.142-5.823,23.77-9.75l7.737,14.805c-8.447,4.37-17.253,8.004-26.326,10.861
		C338.371,383.849,334.285,384.985,330.116,386.113z"/>
</g>
<path d="M105.61,334.129c-0.017,39.603,26.803,74.192,65.169,84.034l23.394,5.991c8.764,2.256,15.975,8.472,19.5,16.81l24.94,59.462
	c4.027,9.608,15.081,14.128,24.681,10.101c4.562-1.913,8.188-5.539,10.101-10.101l24.931-59.462
	c3.517-8.322,10.703-14.529,19.45-16.802l23.394-5.99l0,0c38.383-9.825,65.227-44.415,65.219-84.043v-47.147
	c-0.067-59.955-48.659-108.548-108.614-108.614h-29.668l27.162-67.968l18.556-1.855c16.459-1.663,28.457-16.359,26.794-32.818
	c-0.668-6.609-3.517-12.808-8.088-17.629l2.005-5.974c5.222-15.691-3.258-32.634-18.949-37.856
	c-5.715-1.905-11.872-2.039-17.671-0.384l-13.71,3.918l-4.729-6.141c-5.648-7.586-14.646-11.939-24.096-11.647
	c-9.433,0.075-18.256,4.637-23.778,12.282l-4.102,5.623l-15.874-3.96c-16.033-4.01-32.284,5.74-36.294,21.773
	c-1.738,6.935-0.927,14.254,2.264,20.645l1.395,2.791l-0.685,0.685c-11.689,11.689-11.689,30.638,0,42.326
	c5.615,5.615,13.218,8.764,21.155,8.764h17.462l26.97,67.424h-29.668c-59.955,0.067-108.548,48.659-108.614,108.614
	C105.61,286.982,105.61,334.129,105.61,334.129z M230.341,99.488c-1.27-3.175-4.345-5.255-7.762-5.255h-23.118
	c-7.302-0.008-13.209-5.932-13.209-13.226c0-3.501,1.395-6.851,3.868-9.332l4.946-4.946c2.565-2.532,3.208-6.425,1.613-9.65
	l-4.094-8.18c-3.267-6.55-0.602-14.504,5.957-17.771c1.788-0.886,3.751-1.362,5.74-1.387c1.128,0.008,2.247,0.15,3.342,0.418
	l21.33,5.339c3.3,0.827,6.776-0.434,8.781-3.183l7.402-10.168c2.448-3.375,6.341-5.389,10.511-5.431
	c4.152-0.017,8.079,1.88,10.644,5.147l8.196,10.628c2.089,2.715,5.623,3.877,8.915,2.941l19.15-5.472
	c7.027-1.972,14.312,2.122,16.292,9.149c0.71,2.54,0.652,5.23-0.184,7.728l-3.776,11.338c-1.186,3.576,0.159,7.503,3.292,9.591
	c6.074,4.044,7.72,12.248,3.676,18.331c-2.197,3.292-5.748,5.431-9.692,5.823l-23.603,2.356c-3.1,0.309-5.773,2.323-6.926,5.213
	l-25.633,64.158L230.341,99.488z M122.32,286.982c0.058-50.731,41.173-91.846,91.905-91.905h83.55
	c45.1,0.084,83.491,32.852,90.643,77.384c-3.542,10.026-14.763,19.952-31.749,28.039l7.202,15.039
	c9.383-4.286,18.08-9.942,25.808-16.777v35.367c0.008,31.983-21.656,59.905-52.636,67.842l-23.394,5.999
	c-13.811,3.576-25.165,13.385-30.713,26.527l-24.931,59.462c-0.911,2.172-3.05,2.172-3.96,0l-24.931-59.462
	c-5.564-13.151-16.936-22.959-30.763-26.527l-23.394-5.999c-30.98-7.937-52.645-35.859-52.636-67.842L122.32,286.982L122.32,286.982
	z"/>
<path d="M216.012,317.226c-25.424-2.615-50.038-10.469-72.279-23.06l-8.957,14.095c24.28,13.903,51.191,22.6,79.021,25.533
	L216.012,317.226z"/>
<path d="M255.999,336.526v-16.71c-2.506,0-4.996-0.033-7.461-0.092c-5.623-0.125-11.154-0.409-16.593-0.836l-1.287,16.66
	c5.715,0.443,11.547,0.719,17.495,0.835C250.761,336.476,253.376,336.526,255.999,336.526z"/>
<path d="M255.999,395.011c2.882,0,5.731-0.033,8.564-0.109c14.596-0.351,29.142-1.729,43.546-4.119l-2.816-16.484
	c-13.627,2.264-27.388,3.568-41.198,3.893c-10.736,0.267-21.481-0.008-32.192-0.835c-2.732-0.209-5.422-0.451-8.088-0.735
	l-1.738,16.635c2.841,0.301,5.706,0.56,8.581,0.785C238.997,394.685,247.527,395.011,255.999,395.011z"/>
<path d="M342.164,382.612c9.065-2.866,17.871-6.5,26.318-10.861l-7.737-14.805c-7.611,3.918-15.54,7.177-23.703,9.75
	c-3.618,1.178-7.369,2.256-11.246,3.267l4.177,16.175C334.193,385.044,338.254,383.866,342.164,382.612z"/>
<g>
</g>
<g>
</g>
<g>
</g>
<g>
</g>
<g>
</g>
<g>
</g>
<g>
</g>
<g>
</g>
<g>
</g>
<g>
</g>
<g>
</g>
<g>
</g>
<g>
</g>
<g>
</g>
<g>
</g>
</svg>
